<svg clip-rule="evenodd" fill-rule="evenodd" height="800.85199" image-rendering="optimizeQuality" shape-rendering="geometricPrecision" text-rendering="geometricPrecision" width="715" xmlns="http://www.w3.org/2000/svg"><g transform="translate(-16.5 -33.513408)"><path d="m720.479 33.5297c4.88.0965 8.213 1.4298 11.021 3.9703-3.086 7.8534-5.919 15.8534-8.5 24-18.655 43.994-37.321 87.994-56 132-6.861 12.388-13.194 25.054-19 38-12.189 20.522-28.689 36.688-49.5 48.5 16.35652 39.74577 37.47112 58.17116 76 70.5 1.17076 3.40778 2.04052 5.63608 4 9-17.395 21.728-37.395 40.728-60 57-16.112 9.309-32.446 18.143-49 26.5-12.485 4.288-25.151 7.955-38 11 11.262 20.629 18.262 42.963 21 67 1.561 34.861-3.106 68.861-14 102 20.22 17.372 40.386 34.872 60.5 52.5 5.761-4.133 11.49679-8.95757 18.5-10.5 19.65054-4.32794 34.77196 4.46995 41.5 23.5 2.83245 8.01151 1.761 16.646 0 25-7.988 32.976-22.655 62.642-44 89-12.343 14.942-25.51 15.775-39.5 2.5-29.531-9.101-58.865-18.767-88-29-.626-.75-1.126-1.584-1.5-2.5-5.916 15.834-13.916 30.501-24 44-4.644 5.569-10.144 10.069-16.5 13.5-3.572 1.405-7.239 1.738-11 1-5.452-1.038-10.785-2.705-16-5-15.019-10.53-25.853-24.364-32.5-41.5-2.192-7.822-4.692-15.489-7.5-23-4.864 24.474-14.79618 46.73076-33 63.5-4.23885 3.9048-9.91604 6.261-15.5 7.5-6.52428 1.44764-13.91285 1.16441-20.5-1.5-5.47935-2.21632-9.6746-6.94688-13.5-11.5-3.51924-4.18873-7.26665-8.25059-10-13-6.89514-11.98085-11.486-25.127-16.5-38-29.613 9.987-59.28 19.82-89 29.5-3.452 2.899-7.118 5.566-11 8-9.795 2.958-18.129.625-25-7-23.189-26.91-39.022-57.744-47.5-92.5-5.5196-22.827 1.69465-40.5159 23.5-48.5 6.68274-2.44691 14.29382-1.31553 21 1 5.75385 1.9867 10.592 5.928 15.5 9.5 19.072-17.552 38.572-34.219 58.5-50l8-6c-3.84-11.361-6.507-23.028-8-35-2.713-27.627-1.61629-54.93621 6.5-81 3.20459-10.29088 8.417-19.905 12.5-30-32.621-9.817-63.621-23.15-93-40-25.623-17.292-47.6234-38.292-66-63-2.0772-4.132-2.9105-8.466-2.5-13 16.5321-3.523 31.032-11.023 43.5-22.5 14.162-13.335 24.828-29.002 32-47-16.327-10.321-30.493-23.154-42.5-38.5-13.9852-24.994-26.6519-50.661-38-77-13.1469-31.782-26.4802-63.449-40-95-4.1474-10.6134-7.9808-21.28-11.5-32 .0159-2.016 1.0159-3.016 3-3 3.747676-.559133 6.675945-1.261321 10-2 1.6992-.1602 3.3659.0065 5 .5 20.4821 14.053 42.8154 24.053 67 30 29.31 1.6545 58.643 2.9878 88 4 20.655 1.2581 40.322 5.9247 59 14 4.635 2.6528 9.301 5.3195 14 8 10.094 7.0918 19.594 14.925 28.5 23.5 8.741-2.114 17.574-3.781 26.5-5-4.139-15.3099-12.472-27.6432-25-37 2.672-5.9691 7.339-8.8025 14-8.5 40.336-8.1408 75.669 1.5259 106 29 5.24 5.1175 10.24 10.451 15 16 9.641.725 19.141 2.225 28.5 4.5 16.929-17.252 36.763-30.0853 59.5-38.5 16.721-4.3401 33.721-7.0067 51-8 19.333-.3333 38.667-.6667 58-1 16.999-.7791 33.332-4.4458 49-11 13.201-6.1831 26.034-13.0165 38.5-20.5 1.766-.7335 3.599-1.0668 8.479-.9703z" fill="#97513b"/><path d="m588.5 272.5c-35.35914 18.0326-17.37603-41.28714-23-63 27.51-20.837 53.51-43.504 78-68 23.754-27.922 46.587-56.5884 68.5-86-.019 2.7441-.686 5.4107-2 8-15.893 35.9866-31.226 72.32-46 109-9.379 19.759-19.046 39.425-29 59-12.042 17.743-27.542 31.41-46.5 41z" fill="#fefefe"/><path d="m182.5 211.5c-8.333 20-16.667 40-25 60-8.7-2.855-16.367-7.522-23-14-9.988-8.09-18.155-17.757-24.5-29-5.806-12.946-12.1394-25.612-19-38-18.3333-43-36.6667-86-55-129-.9913-1.9473-1.3247-3.9473-1-6 21.1393 29.2809 43.4726 57.614 67 85 25.17 25.677 52.003 49.344 80.5 71z" fill="#fefefe"/><path d="m565.5 209.5c4.364 16.451 12.57948 47.00441 19.30326 63 10.85954 25.83439 16.6549 31.53971 26.69674 51.5-32.82 11.438-66.78819 19.94831-102 19.5-15.09099-.19213-29.97924-3.05375-45-4.5-3.40027-.32739-50.72805-11.5-69-12-14.173-.827-27.83005-1.661-41.65705-.5-30.166 1.916-60.50895 6.083-90.34295 10.5-26.523 2.981-52.856 1.981-79-3-14.65-5.025-29.317-9.858-44-14.5 9.045-13.256 16.378-27.423 22-42.5-1.901-1.729-3.568-3.562-5-5.5 8.333-20 16.667-40 25-60 7.22086-1.5924 7.94216-5.55961 6-10.5-20.951-15.626-40.951-32.292-60-50-15.483-14.475-29.4833-30.142-42-47 3.2559-1.587 5.4226-4.087 6.5-7.5 1.8154-6.8926 2.9821-13.8926 3.5-21 20.039 3.5256 40.206 4.5256 60.5 3 23.026.8136 45.86 3.3136 68.5 7.5 23.885 7.7141 43.885 21.214 60 40.5 1.272.546 2.606.879 4 1 7.904-2.152 15.904-3.985 24-5.5 5.426-.259 10.76-.426 16-.5 1.085-3.273 1.252-6.606.5-10-3.357-13.5478-9.524-25.7144-18.5-36.5 35.619-7.3431 66.619 1.3235 93 26 6.285 6.293 12.285 12.793 18 19.5 12.071.323 23.904 2.323 35.5 6 2.009-.672 3.842-1.672 5.5-3 22.385-25.7636 50.718-40.2636 85-43.5 26.285-2.0588 52.618-3.0588 79-3 8.327-.1016 18.1029-1.368199 26.1089-3.599999l.3911 4.099999c.618 9.7201 2.284 19.0534 5 28-13.473 17.47-28.306 33.637-44.5 48.5-12.187 10.264-24.187 20.764-36 31.5-6.082 5.248-12.582 9.915-19.5 14-.112 3.44.555 6.774 2 10 1.414.913 2.914.913 4.5 0z" fill="#c86847"/><path d="m307.5 264.5c3.016.341 5.682 1.507 8 3.5 4.805 5.462 10.305 10.295 16.5 14.5-1.501 3.571-4.001 6.571-7.5 9-8.22-5.048-15.72-11.048-22.5-18 1.756-2.807 3.589-5.807 5.5-9z" fill="#98513b"/><path d="m426.5 265.5c5.964.631 9.297 3.964 10 10-6.577 4.655-12.91 9.821-19 15.5-1.646 1.401-3.313 1.568-5 .5-1.891-2.631-3.891-5.131-6-7.5 6.968-6.146 13.635-12.313 20-18.5z" fill="#98513b"/><path d="m325 303.5c3.888 9.113-6.67692 12.02205-8.5 9.5-34.69303-23.41515-67.59362-23.80684-95-.5-10.27297.36747-11.11558-5.73744-11-12.5 1.992-3.173 4.658-5.673 8-7.5 29.60791-15.88834 64.14139-23.82761 106.5 11z" fill="#97513b"/><path d="m460.5 279.5c23.87499-3.20842 46.06 4.806 66 18 1.131 1.574 1.298 3.241.5 5l-9.5 11c-7.444-5.288-15.444-9.454-24-12.5-25.571-5.187-48.54711.29624-71 13-3.47259 1.96478-7.97572.42733-10.5-2.5-1.28218-1.48691-.72364-3.90956.5-5.5 2.97598-3.86805 6.928-6.798 11-9.5 5.522-2.924 10.35365-7.00781 16-9.5 6.86894-3.03182 13.67462-6.51559 21-7.5z" fill="#97513b"/><path d="m133.5 326.5c16.912 5.222 33.912 10.389 51 15.5 11.925 2.49 23.925 4.49 36 6 11.349.473 22.683.14 34-1 36.845-4.409 73.512-8.576 110-12.5 12.327.649 24.66 1.149 37 1.5 25.297 4.889 50.963 9.555 77 14 30.78452 3.59517 68.90247 2.83681 140-17.5 7.501 5.994 15.167 11.827 23 17.5 6.906 4.456 14.239 7.789 22 10-34.256 41.114-77.256 67.947-129 80.5-23.362 7.172-47.195 12.172-71.5 15 0 0-3.09064 2.64432-3.5 4.5-.47901 2.1714 1.5 6.5 1.5 6.5 32.492 18.786 52.659 46.619 60.5 83.5 1.943 18.741-3.557 34.908-16.5 48.5-4.069-11.749-11.235-21.249-21.5-28.5-8.272-4.941-16.272-10.274-24-16-4.749-.835-8.749.499-12 4 1.893 10.815 2.893 21.648 3 32.5-1.388 11.131-4.221 21.798-8.5 32-5.825 10.987-12.992 20.987-21.5 30-9.196 9.029-18.863 17.529-29 25.5-1.81 2.644-3.81 5.144-6 7.5-15.265-12.595-29.932-25.928-44-40-11.546-14.093-19.046-30.093-22.5-48-.32-13.213-.154-26.546.5-40-3.326-.845-6.66-1.345-10-1.5-7.53 5.362-15.197 10.529-23 15.5-10.308 8.292-18.308 18.292-24 30-15.647-19.032-19.48-40.365-11.5-64 7.675-21.471 20.175-40.304 37.5-56.5 5.536-4.038 11.203-7.871 17-11.5.907-2.921 1.24-5.921 1-9l-14 .5c-59.48062 2.12431-113.168-19.612-161-54.5-16.824-13.991-32.1571-29.491-46-46.5 7.896-2.184 15.229-5.517 22-10 6.515-4.759 12.848-9.759 19-15 2.923-2.416 5.257-5.25 7-8.5z" fill="#fefefe"/><path d="m381.8866 343c2.79177 0 4.68322.78989 5.6134 3.5.68443 1.9941-1.28891 4.09173-2.75231 5.60941-3.21764 3.33697-6.72369 5.86559-10.24769 8.89059-5.584 2.708-9.584 1.208-12-4.5-2.898-.904-5.564-2.238-8-4-1.319-3.553-.652-6.719 2-9.5z" fill="#98523d"/><path d="m369.5 371.5c1.808-.009 3.475.491 5 1.5 5.531 4.523 10.93895 9.48096 17.5 12.5 6.1725 2.84025 9.76246 3.96437 16 2 7.57572-2.3858 14.034-7.351 20.5-12 2.324 1.654 4.658 3.321 7 5-1.383 4.219-4.24324 7.05819-8 9.5-11.5601 7.5138-26.28747 9.82099-37.45246 6.36277-3.45072-1.06882-6.54855-2.33929-9.54754-4.36277-3.66719-2.47433-6.38-5.858-10.5-7.5-8.835 7.083-19.63157 14.39229-30 14-4.55639-.17239-5.90544-.73375-7.5-1-10.17566-1.69908-18.777-6.721-26-14-.928-1.268-1.095-2.601-.5-4 2.354-2.08 4.854-3.58 7.5-4.5 12.209 11.794 25.876 14.127 41 7 4.903-3.752 9.903-7.252 15-10.5z" fill="#98533d"/><g fill="#c86847"><path d="m518.5 456.5c2.124.531 3.624 1.865 4.5 4 6.451 14.556 11.784 29.556 16 45 3.677 26.789 3.011 53.455-2 80-7.993 30.628-16.38922 61.16993-27 91-3.39912 9.55596-7.93209 20.13739-10.78596 28.33617-9.22901 26.51366-17.33504 53.23883-29.21404 78.66383-1.569.622-3.236.956-5 1-16.81-3.293-33.31-2.126-49.5 3.5-4.472 1.736-8.472 4.236-12 7.5-13.14617-18.19328-16.02505-36.87027-18-59.5 3.23334-19.2122 1.1899-40.99617 19-53 10.777-9.776 21.277-19.942 31.5-30.5 17.41-21.717 26.244-46.717 26.5-75-.667-2-1.333-4-2-6 .333-1 .667-2 1-3 12.494 6.337 22.661 15.337 30.5 27 2.399 4.851 2.899 9.851 1.5 15 4.332 3.235 8.998 4.068 14 2.5 18.833-17.831 26.999-39.664 24.5-65.5-6.724-34.264-24.224-61.764-52.5-82.5 13.226-2.394 26.226-5.227 39-8.5z"/><path d="m246.5 469.5c11.161 2.301 22.494 3.467 34 3.5-21.061 20.128-35.728 44.128-44 72-4.735 26.861 2.599 49.861 22 69 4.755 3.782 9.922 4.282 15.5 1.5-.319-9.373 2.348-17.707 8-25 7.496-7.598 15.829-14.265 25-20-2.717 31.499 6.116 59.166 26.5 83 10.5 10.273 21.5 20.107 33 29.5 3.195 3.526 6.362 7.026 9.5 10.5-.39 28.551-4.39 56.551-12 84-1.163 2.625-2.33 5.291-3.5 8-1 .333-2 .667-3 1-17.433-2.94-34.767-2.44-52 1.5-5.029.953-9.696 2.787-14 5.5-17.98955-40.11818-57.5854-181.4112-61.5-198-9.65-44.193-4.15-86.193 16.5-126z"/><path d="m225.5 624.5c5.77884 20.29971-8.17482-31.45638 41 133.5-26.423 9.019-52.756 18.186-79 27.5-.285-11.835-1.785-23.501-4.5-35-7.14-23.499-13.973-47.165-20.5-71 20.749-18.758 41.749-37.091 63-55z"/><path d="m534.5 635.5c1.933.229 3.6 1.062 5 2.5 17.959 15.99 35.959 31.99 54 48-7.45 28.24-16.44311 56.09268-23.5 84.5-1.69001 6.80308-.666 13.992-.5 21-26.719-8.684-53.385-17.684-80-27 15.88755-42.23525 31.37961-85.81432 45-129z"/></g></g></svg>