<?xml version="1.0" encoding="utf-8"?>
<!-- Generator: Adobe Illustrator 26.5.0, SVG Export Plug-In . SVG Version: 6.00 Build 0)  -->
<svg version="1.1" id="Layer_1" xmlns="http://www.w3.org/2000/svg" xmlns:xlink="http://www.w3.org/1999/xlink" x="0px" y="0px"
	 viewBox="0 0 150.35 113.66" style="enable-background:new 0 0 150.35 113.66;" xml:space="preserve">
<style type="text/css">
	.st0{fill:#FFFFFF;}
	.st1{fill:#4C4F50;}
	.st2{fill:#BF5D7B;}
	.st3{fill:#43BB8E;}
	.st4{fill:#C27B43;}
	.st5{fill:#4770B7;}
	.st6{fill:#2C2F31;}
	.st7{fill:#0D1115;}
</style>
<g id="Layer_2_00000045621372850343946290000016734678041382074258_">
	<g>
		<path class="st0" d="M68.49,11.14c-1.12,0.09-2.22,0.29-3.27,0.56c-2.06,0.54-4.18,0.81-6.17,1.65c-1.16,0.49-2.34,0.94-3.45,1.53
			c-0.61,0.33-0.69,0.33-0.96-0.31c-0.19-0.46-0.53-0.62-1-0.66c-0.83-0.07-1.35,0.47-1.95,0.9c-0.57,0.4-0.76,0.94-0.66,1.59
			c0.04,0.27,0.11,0.55,0.23,0.79c0.12,0.23,0.04,0.29-0.14,0.4c-1.16,0.72-2.05,1.72-2.94,2.76c-0.99,1.16-1.76,2.44-2.48,3.76
			c-0.27,0.5-0.4,1.15-1.18,1.23c-0.47,0.05-0.5,0.58-0.74,0.9c-0.59,0.77-0.59,1.06,0.08,1.72c0.17,0.17,0.29,0.33,0.24,0.6
			c-0.2,1.07-0.42,2.14-0.42,3.24c0,1.34-0.02,2.68,0.1,4.02c0.06,0.7,0.2,1.39,0.3,2.09c0.13,0.83,0.34,1.63,0.55,2.44
			c0.28,1.08,0.6,2.14,1.06,3.15c0.61,1.32,1.22,2.64,2,3.88c0.81,1.27,1.74,2.43,2.79,3.48c0.87,0.87,1.85,1.63,2.82,2.38
			c0.18,0.14,0.17,0.32,0.29,0.46c0.06,0.06,0.03,0.2-0.07,0.29c-0.14,0.12-0.17-0.04-0.24-0.08c-1.13-0.65-2.19-1.38-3.13-2.3
			c-1.24-1.22-2.37-2.51-3.39-3.93c-1.17-1.62-2.16-3.33-3.01-5.13c-0.57-1.22-1.15-2.44-1.55-3.73c-0.35-1.14-0.7-2.29-0.96-3.45
			c-0.25-1.12-0.54-2.26-0.57-3.41c-0.03-1.08-0.22-2.15-0.04-3.24c0.16-0.97,0.22-1.95,0.49-2.89c0.17-0.62,0.42-1.21,0.21-1.89
			c-0.27-0.87-0.88-1.34-1.64-1.76c-1.03-0.57-2.07-1.09-3.13-1.57c-1.47-0.66-2.88-1.45-4.34-2.12c-1.26-0.58-2.45-1.3-3.67-1.96
			c-1.28-0.69-2.56-1.37-3.83-2.08c-1.28-0.72-2.53-1.49-3.83-2.18c-2.16-1.15-4.25-2.42-6.35-3.67c-1.36-0.81-2.7-1.65-4.05-2.47
			C9.37,5.43,8.25,4.72,7.12,4.04c-1.99-1.2-3.89-2.56-5.84-3.85c-0.44-0.29-0.87-0.13-0.88,0.4c-0.02,1.4-0.35,2.79-0.32,4.18
			c0.02,1.46-0.18,2.91-0.03,4.37c0.1,0.96-0.02,1.92,0.1,2.89c0.15,1.27,0.14,2.56,0.25,3.83c0.06,0.66,0.18,1.32,0.24,1.99
			c0.08,0.85,0.26,1.69,0.4,2.54c0.2,1.19,0.34,2.39,0.61,3.57c0.27,1.17,0.5,2.35,0.75,3.52c0.31,1.41,0.66,2.82,1.07,4.19
			c0.64,2.11,1.29,4.23,2.08,6.3c0.49,1.27,0.98,2.54,1.49,3.81c0.32,0.79,0.76,1.52,1.07,2.3c0.91,2.24,2.12,4.31,3.3,6.41
			c0.76,1.34,1.63,2.6,2.5,3.87c0.81,1.18,1.67,2.31,2.61,3.39c1.02,1.16,2.06,2.3,3.2,3.35c0.71,0.64,1.43,1.26,2.22,1.81
			c0.53,0.37,1.04,0.78,1.59,1.12c0.4,0.25,0.95,0.4,1.01,1.01c0.06,0.63,0.33,1.21,0.53,1.79c0.67,1.91,1.41,3.79,2.46,5.55
			c0.61,1.02,1.14,2.1,1.78,3.1c0.87,1.36,1.83,2.65,2.83,3.9c0.46,0.57,0.98,1.11,1.46,1.67c0.61,0.72,1.26,1.39,1.91,2.07
			c0.88,0.9,1.79,1.78,2.79,2.54c0.51,0.39,0.95,0.86,1.48,1.22c0.99,0.66,1.98,1.34,3.03,1.92c1.14,0.63,2.3,1.22,3.56,1.54
			c0.42,0.11,0.61,0.36,0.62,0.77c0,0.11-0.02,0.22,0.01,0.32c0.69,2.15,1.5,4.22,3.12,5.91c1.2,1.25,2.39,2.47,3.81,3.47
			c0.15,0.1,0.22,0.18,0.09,0.38c-0.43,0.67-0.84,1.35-1.23,2.04c-0.39,0.7-0.75,1.42-1.03,2.15c-0.31,0.85-0.35,1.78-0.38,2.71
			c-0.05,1.84,1.7,3.25,3.23,3.38c0.98,0.08,1.97,0.33,2.96,0.03c0.06-0.02,0.15,0.01,0.2,0.05c0.71,0.53,1.53,0.78,2.39,0.98
			c1.11,0.25,2.2,0.55,3.36,0.37c0.14-0.02,0.31-0.05,0.43,0.01c0.82,0.43,1.73,0.53,2.61,0.69c0.94,0.17,1.87-0.01,2.69-0.49
			c1.43-0.83,1.62-2.37,1.86-3.76c0.12-0.72-0.02-1.57-0.28-2.33c-0.15-0.44,0.01-0.51,0.4-0.51c1.51,0.01,3.02,0.03,4.53,0
			c1.07-0.02,2.14,0.1,3.21-0.09c0.45-0.08,0.62,0.17,0.46,0.62c-0.06,0.16-0.18,0.29-0.18,0.49c0.04,1.27,0.04,2.51,0.38,3.78
			c0.5,1.85,2.84,2.56,4.25,2.28c1.3-0.26,2.56-0.7,3.9-0.69c1.18,0.01,2.28-0.31,3.36-0.73c0.17-0.07,0.34,0.02,0.51-0.09
			c0.47-0.31,0.9-0.67,1.57-0.5c0.62,0.16,1.28-0.16,1.91-0.07c0.66,0.09,1.29-0.15,1.77-0.41c1.15-0.63,1.99-1.61,1.99-3.05
			c0-0.56-0.05-1.1-0.18-1.66c-0.13-0.6-0.29-1.17-0.55-1.73c-0.46-0.96-0.92-1.91-1.5-2.81c-0.52-0.81-0.48-0.85,0.33-1.47
			c1.33-1.02,2.52-2.2,3.61-3.45c0.93-1.07,1.56-2.34,2.06-3.67c0.29-0.78,0.61-1.55,0.65-2.4c0.02-0.31,0.28-0.44,0.5-0.48
			c0.4-0.07,0.76-0.21,1.13-0.36c1.25-0.51,2.45-1.12,3.61-1.83c1.31-0.8,2.53-1.73,3.68-2.73c1.39-1.21,2.74-2.46,3.99-3.83
			c1.32-1.45,2.49-3.02,3.7-4.55c0.64-0.81,1.17-1.7,1.68-2.6c0.63-1.08,1.29-2.13,1.81-3.27c0.38-0.85,0.76-1.7,1.14-2.55
			c0.52-1.16,0.88-2.36,1.2-3.57c0.09-0.33,0.23-0.58,0.51-0.72c0.53-0.28,1.04-0.59,1.51-0.93c1.18-0.85,2.33-1.77,3.36-2.8
			c1.14-1.14,2.22-2.33,3.24-3.59c1.08-1.33,2.1-2.7,3.04-4.12c1.39-2.1,2.67-4.27,3.75-6.54c0.56-1.18,1.08-2.39,1.62-3.58
			c0.71-1.56,1.32-3.15,1.95-4.73c0.53-1.33,0.96-2.7,1.39-4.07c0.26-0.82,0.59-1.64,0.76-2.47c0.2-0.97,0.54-1.9,0.75-2.87
			c0.33-1.55,0.72-3.09,1.01-4.64c0.29-1.58,0.56-3.17,0.8-4.76c0.25-1.67,0.35-3.36,0.59-5.03c0.2-1.46,0.22-2.94,0.23-4.42
			c0.01-1.88,0.1-3.76-0.09-5.63c-0.12-1.16-0.21-2.32-0.33-3.48c-0.07-0.72-0.26-0.8-0.91-0.45c-0.15,0.08-0.31,0.16-0.45,0.26
			c-0.85,0.6-1.68,1.23-2.55,1.8c-1.47,0.96-2.99,1.86-4.46,2.82c-1.21,0.79-2.43,1.57-3.67,2.3c-1.63,0.95-3.23,1.95-4.9,2.83
			c-1.43,0.76-2.77,1.69-4.17,2.49c-1.52,0.86-3.1,1.62-4.61,2.5c-1.83,1.07-3.72,2.03-5.59,3.01c-1.58,0.83-3.18,1.64-4.83,2.36
			c-1.13,0.49-2.25,1.06-3.32,1.69c-0.51,0.3-0.97,0.66-1.26,1.22c-0.39,0.76-0.2,1.51,0.01,2.25c0.34,1.19,0.54,2.39,0.55,3.63
			c0,0.87-0.01,1.75-0.09,2.62c-0.1,1.11-0.25,2.21-0.5,3.28c-0.39,1.67-0.87,3.31-1.5,4.91c-0.66,1.66-1.37,3.29-2.29,4.81
			c-0.9,1.49-1.84,2.96-2.97,4.31c-1.12,1.34-2.32,2.59-3.74,3.61c-0.54,0.39-1.04,0.86-1.72,1.05c-0.05-0.59-0.04-0.71,0.29-0.91
			c0.25-0.15,0.46-0.34,0.68-0.51c2.16-1.65,3.89-3.68,5.26-6.03c0.41-0.7,0.73-1.45,1.12-2.16c0.43-0.78,0.69-1.63,0.99-2.45
			c0.43-1.2,0.76-2.45,0.93-3.74c0.2-1.46,0.49-2.92,0.51-4.4c0.03-1.74-0.14-3.46-0.43-5.18c-0.03-0.19,0-0.37,0.16-0.53
			c0.72-0.78,0.43-2.05-0.5-2.6c-0.28-0.17-0.66-0.2-0.86-0.54c-0.71-1.18-1.3-2.43-2.13-3.55c-1.03-1.37-2.12-2.67-3.54-3.66
			c-0.34-0.24-0.41-0.43-0.25-0.81c0.22-0.54,0.2-1.12-0.01-1.65c-0.27-0.68-2.05-1.49-2.78-1.31c-0.26,0.06-0.45,0.25-0.56,0.52
			c-0.28,0.68-0.54,0.76-1.18,0.39c-1.29-0.76-2.68-1.28-4.09-1.77c-1.03-0.36-2.09-0.62-3.16-0.85c-1.5-0.32-2.99-0.67-4.51-0.91
			c-0.34-0.05-0.74,0.02-1.12-0.25c0.57-0.06,0.97-0.42,1.5-0.42c0.23,0,0.61-0.09,0.58-0.48c-0.02-0.33-0.13-0.59-0.52-0.73
			c-0.41-0.16-0.84-0.22-1.26-0.33c-1.49-0.39-3-0.49-4.52-0.25c-0.22,0.03-0.44,0.04-0.39-0.31c0.06-0.44-0.27-0.78-0.4-1.17
			c-0.06-0.16-0.38-0.52-0.71-0.44c-0.73,0.16-1.36,0.46-1.84,1.11c-0.3,0.4-0.62,0.93-1.3,0.82c-1.13-0.19-2.27-0.17-3.4,0
			c-0.87,0.14-1.75,0.28-2.57,0.65c-0.28,0.12-0.47,0.37-0.44,0.64c0.03,0.22,0.23,0.43,0.53,0.44
			C67.56,10.59,68.01,10.9,68.49,11.14z"/>
		<path d="M68.52,11.16c-0.49-0.24-0.93-0.56-1.48-0.56c-0.3,0-0.51-0.22-0.53-0.44c-0.03-0.27,0.16-0.52,0.44-0.64
			c0.82-0.36,1.7-0.51,2.57-0.65c1.13-0.18,2.27-0.19,3.4,0c0.68,0.11,1-0.41,1.3-0.82c0.48-0.65,1.11-0.95,1.84-1.11
			c0.33-0.07,0.66,0.28,0.71,0.44c0.13,0.39,0.46,0.72,0.4,1.17c-0.05,0.35,0.17,0.34,0.39,0.31c1.53-0.24,3.04-0.14,4.52,0.25
			c0.42,0.11,0.84,0.18,1.26,0.33c0.39,0.15,0.5,0.4,0.52,0.73c0.02,0.39-0.36,0.48-0.58,0.48c-0.54,0-0.94,0.36-1.5,0.42
			c0.38,0.27,0.78,0.2,1.12,0.25c1.52,0.23,3.01,0.58,4.51,0.91c1.07,0.23,2.13,0.49,3.16,0.85c1.41,0.48,2.8,1.01,4.09,1.77
			c0.64,0.38,0.9,0.29,1.18-0.39c0.11-0.27,0.3-0.45,0.56-0.52c0.73-0.18,2.5,0.63,2.78,1.31c0.21,0.53,0.23,1.12,0.01,1.65
			c-0.16,0.38-0.09,0.57,0.25,0.81c1.42,0.98,2.51,2.28,3.54,3.66c0.83,1.11,1.43,2.36,2.13,3.55c0.2,0.34,0.58,0.37,0.86,0.54
			c0.93,0.55,1.22,1.83,0.5,2.6c-0.16,0.17-0.19,0.34-0.16,0.53c0.3,1.71,0.46,3.44,0.43,5.18c-0.02,1.49-0.31,2.94-0.51,4.4
			c-0.18,1.29-0.5,2.54-0.93,3.74c-0.29,0.82-0.56,1.67-0.99,2.45c-0.39,0.71-0.71,1.46-1.12,2.16c-1.37,2.35-3.09,4.38-5.26,6.03
			c-0.23,0.17-0.43,0.36-0.68,0.51c-0.34,0.2-0.35,0.32-0.29,0.91c0.68-0.19,1.18-0.66,1.72-1.05c1.42-1.03,2.62-2.27,3.74-3.61
			c1.13-1.35,2.07-2.82,2.97-4.31c0.92-1.52,1.63-3.15,2.29-4.81c0.63-1.6,1.12-3.24,1.5-4.91c0.25-1.07,0.41-2.17,0.5-3.28
			c0.08-0.87,0.09-1.75,0.09-2.62c-0.01-1.23-0.21-2.44-0.55-3.63c-0.21-0.74-0.4-1.49-0.01-2.25c0.28-0.56,0.75-0.92,1.26-1.22
			c1.07-0.63,2.19-1.19,3.32-1.69c1.65-0.72,3.24-1.53,4.83-2.36c1.87-0.98,3.76-1.94,5.59-3.01c1.51-0.88,3.09-1.64,4.61-2.5
			c1.41-0.8,2.74-1.74,4.17-2.49c1.67-0.88,3.27-1.88,4.9-2.83c1.24-0.73,2.46-1.51,3.67-2.3c1.47-0.96,2.98-1.86,4.46-2.82
			c0.87-0.57,1.7-1.2,2.55-1.8c0.14-0.1,0.3-0.17,0.45-0.26c0.65-0.36,0.84-0.27,0.91,0.45c0.12,1.16,0.21,2.32,0.33,3.48
			c0.19,1.88,0.1,3.75,0.09,5.63c-0.01,1.47-0.03,2.96-0.23,4.42c-0.23,1.67-0.34,3.36-0.59,5.03c-0.23,1.6-0.51,3.18-0.8,4.76
			c-0.29,1.56-0.68,3.09-1.01,4.64c-0.21,0.97-0.55,1.9-0.75,2.87c-0.17,0.83-0.5,1.65-0.76,2.47c-0.43,1.37-0.86,2.74-1.39,4.07
			c-0.63,1.59-1.23,3.18-1.95,4.73c-0.55,1.19-1.06,2.4-1.62,3.58c-1.09,2.27-2.36,4.44-3.75,6.54c-0.94,1.42-1.96,2.79-3.04,4.12
			c-1.02,1.26-2.1,2.45-3.24,3.59c-1.03,1.03-2.18,1.95-3.36,2.8c-0.47,0.34-0.99,0.65-1.51,0.93c-0.28,0.15-0.42,0.39-0.51,0.72
			c-0.32,1.22-0.68,2.42-1.2,3.57c-0.38,0.85-0.76,1.7-1.14,2.55c-0.52,1.14-1.18,2.2-1.81,3.27c-0.52,0.89-1.05,1.79-1.68,2.6
			c-1.21,1.53-2.38,3.1-3.7,4.55c-1.25,1.37-2.6,2.62-3.99,3.83c-1.15,1-2.37,1.93-3.68,2.73c-1.16,0.71-2.35,1.32-3.61,1.83
			c-0.37,0.15-0.73,0.29-1.13,0.36c-0.22,0.04-0.48,0.17-0.5,0.48c-0.04,0.85-0.36,1.62-0.65,2.4c-0.5,1.33-1.13,2.6-2.06,3.67
			c-1.09,1.26-2.28,2.44-3.61,3.45c-0.81,0.62-0.86,0.66-0.33,1.47c0.58,0.9,1.04,1.85,1.5,2.81c0.26,0.55,0.42,1.12,0.55,1.73
			c0.12,0.56,0.18,1.1,0.18,1.66c0,1.45-0.84,2.42-1.99,3.05c-0.48,0.26-1.11,0.5-1.77,0.41c-0.63-0.08-1.29,0.24-1.91,0.07
			c-0.67-0.18-1.1,0.19-1.57,0.5c-0.17,0.11-0.34,0.03-0.51,0.09c-1.08,0.42-2.18,0.74-3.36,0.73c-1.34-0.01-2.61,0.43-3.9,0.69
			c-1.42,0.29-3.75-0.43-4.25-2.28c-0.35-1.27-0.34-2.51-0.38-3.78c-0.01-0.19,0.12-0.33,0.18-0.49c0.16-0.45,0-0.7-0.46-0.62
			c-1.07,0.19-2.14,0.07-3.21,0.09c-1.51,0.03-3.02,0.01-4.53,0c-0.39,0-0.55,0.06-0.4,0.51c0.25,0.75,0.4,1.61,0.28,2.33
			c-0.24,1.4-0.43,2.94-1.86,3.76c-0.82,0.47-1.75,0.66-2.69,0.49c-0.88-0.16-1.79-0.26-2.61-0.69c-0.11-0.06-0.29-0.04-0.43-0.01
			c-1.15,0.18-2.25-0.12-3.36-0.37c-0.85-0.19-1.67-0.45-2.39-0.98c-0.05-0.04-0.14-0.07-0.2-0.05c-0.99,0.3-1.99,0.05-2.96-0.03
			c-1.53-0.13-3.28-1.54-3.23-3.38c0.03-0.93,0.06-1.86,0.38-2.71c0.27-0.73,0.64-1.45,1.03-2.15c0.39-0.69,0.8-1.38,1.23-2.04
			c0.13-0.2,0.05-0.28-0.09-0.38c-1.42-0.99-2.62-2.21-3.81-3.47c-1.62-1.7-2.43-3.76-3.12-5.91c-0.03-0.1,0-0.21-0.01-0.32
			c-0.02-0.41-0.21-0.67-0.62-0.77c-1.27-0.32-2.43-0.91-3.56-1.54c-1.05-0.58-2.03-1.26-3.03-1.92c-0.53-0.35-0.97-0.83-1.48-1.22
			c-1-0.76-1.92-1.64-2.79-2.54c-0.65-0.67-1.3-1.35-1.91-2.07c-0.48-0.56-1-1.09-1.46-1.67c-1.01-1.25-1.97-2.54-2.83-3.9
			c-0.64-1.01-1.17-2.08-1.78-3.1c-1.05-1.76-1.78-3.64-2.46-5.55c-0.21-0.58-0.47-1.16-0.53-1.79c-0.06-0.6-0.6-0.75-1.01-1.01
			c-0.55-0.35-1.06-0.75-1.59-1.12c-0.79-0.55-1.51-1.17-2.22-1.81c-1.15-1.04-2.19-2.18-3.2-3.35c-0.94-1.08-1.81-2.21-2.61-3.39
			c-0.87-1.26-1.74-2.52-2.5-3.87c-1.18-2.1-2.39-4.17-3.3-6.41c-0.32-0.78-0.76-1.51-1.07-2.3c-0.51-1.26-1-2.53-1.49-3.81
			c-0.79-2.07-1.44-4.19-2.08-6.3c-0.42-1.37-0.76-2.78-1.07-4.19c-0.25-1.17-0.48-2.35-0.75-3.52c-0.27-1.17-0.42-2.38-0.61-3.57
			c-0.14-0.85-0.31-1.69-0.4-2.54c-0.06-0.67-0.18-1.33-0.24-1.99c-0.11-1.27-0.1-2.56-0.25-3.83c-0.11-0.97,0-1.93-0.1-2.89
			C-0.07,7.71,0.13,6.25,0.1,4.79c-0.02-1.4,0.31-2.78,0.33-4.19c0.01-0.53,0.44-0.69,0.88-0.4C3.25,1.5,5.15,2.86,7.14,4.06
			c1.13,0.68,2.24,1.39,3.37,2.07c1.35,0.82,2.69,1.66,4.05,2.47c2.1,1.25,4.19,2.52,6.35,3.67c1.3,0.69,2.55,1.47,3.83,2.18
			c1.27,0.71,2.55,1.39,3.83,2.08c1.22,0.66,2.41,1.38,3.67,1.96c1.46,0.67,2.87,1.46,4.34,2.12c1.06,0.48,2.11,1,3.13,1.57
			c0.76,0.42,1.37,0.89,1.64,1.76c0.21,0.68-0.04,1.28-0.21,1.89c-0.27,0.95-0.33,1.93-0.49,2.89c-0.18,1.1,0.01,2.17,0.04,3.24
			c0.03,1.15,0.32,2.28,0.57,3.41c0.25,1.16,0.61,2.31,0.96,3.45c0.4,1.29,0.97,2.51,1.55,3.73c0.85,1.8,1.84,3.51,3.01,5.13
			c1.02,1.42,2.15,2.71,3.39,3.93c0.94,0.93,2,1.66,3.13,2.3c0.08,0.04,0.1,0.21,0.24,0.08c0.1-0.09,0.12-0.23,0.07-0.29
			c-0.12-0.14-0.11-0.32-0.29-0.46c-0.97-0.76-1.95-1.51-2.82-2.38c-1.05-1.05-1.98-2.21-2.79-3.48c-0.79-1.24-1.4-2.56-2-3.88
			c-0.46-1.01-0.78-2.07-1.06-3.15c-0.21-0.81-0.43-1.61-0.55-2.44c-0.11-0.69-0.25-1.38-0.3-2.09c-0.11-1.34-0.1-2.68-0.1-4.02
			c0-1.1,0.22-2.17,0.42-3.24c0.05-0.27-0.07-0.43-0.24-0.6c-0.66-0.66-0.67-0.95-0.08-1.72c0.24-0.31,0.27-0.85,0.74-0.9
			c0.78-0.08,0.91-0.73,1.18-1.23c0.72-1.33,1.49-2.61,2.48-3.76c0.88-1.03,1.77-2.04,2.94-2.76c0.18-0.11,0.26-0.17,0.14-0.4
			c-0.12-0.24-0.19-0.52-0.23-0.79c-0.1-0.66,0.09-1.19,0.66-1.59c0.6-0.42,1.12-0.96,1.95-0.9c0.47,0.04,0.81,0.2,1,0.66
			c0.27,0.64,0.35,0.64,0.96,0.31c1.11-0.59,2.29-1.04,3.45-1.53c1.99-0.84,4.12-1.11,6.17-1.65C66.3,11.45,67.4,11.25,68.52,11.16z
			 M63.55,50.28c0.45,0.44,0.99,0.69,1.59,0.81c-0.46-0.45-1-0.75-1.57-1.01c-0.11-0.01-0.2-0.16-0.37-0.05
			C63.33,50.13,63.44,50.2,63.55,50.28z M88.33,46.63c-0.68,0.35-1.28,0.81-1.82,1.36c-0.65,0.2-1.01,0.78-1.53,1.16
			c0.57-0.31,1.17-0.56,1.6-1.07c0.72-0.3,1.33-0.78,1.92-1.29c0.02-0.04,0.03-0.08,0.05-0.11c0.43-0.28,0.85-0.57,1.29-0.83
			c1.45-0.87,2.72-1.99,4.36-2.62c3.85-1.49,6.31-4.37,7.53-8.26c0.77-2.45,1.13-4.93-0.3-7.35c-1.18-2.01-2.41-3.96-4.37-5.32
			c-0.61-0.42-0.87-0.42-1.39,0.13c-0.76,0.81-1.49,1.66-2.33,2.39c-0.23,0.2-0.16,0.3,0.08,0.42c1.89,0.9,3.26,2.32,4.18,4.19
			c1.84,3.74,1.13,8.37-2.33,11.25c-2.81,2.34-6.06,2.81-9.52,1.48c-3.7-1.43-6.18-5.54-5.73-9.47c0.05-0.45,0.37-1.07,0.1-1.31
			c-0.25-0.22-0.88-0.01-1.34,0.02c-0.77,0.06-0.84,0.13-0.84,0.92c-0.01,1.98,0.63,3.77,1.59,5.47c1.94,3.44,4.85,5.51,8.74,6.18
			c1.13,0.19,2.26,0.31,3.16-0.65c0.01-0.01,0.03-0.02,0.04-0.03c0.28-0.19,0.48-0.02,0.65,0.17c0.23,0.25,0,0.38-0.17,0.5
			c-0.74,0.55-1.49,1.07-2.2,1.64c-0.42,0.34-0.98,0.5-1.26,1.01C88.42,46.62,88.37,46.62,88.33,46.63z M85.07,50.11
			c-0.82,0.32-1.43,0.92-2.09,1.47c0.79-0.41,1.6-0.78,2.26-1.41c0.06-0.05,0.16-0.12,0.19-0.14c0.61-0.28,0.5-0.3,0.82-0.49
			c2.77-1.72,5.54-3.45,8.31-5.17c0.3-0.04,0.62,0.08,0.91-0.05c2-0.91,3.71-2.22,5.11-3.92c1.1-1.34,1.91-2.85,2.45-4.5
			c0.67-2.04,0.92-4.14,0.59-6.26c-0.17-1.09,0.92-2.09,1.67-2.31c0.26-0.07,0.66,0.17,0.77-0.17c0.09-0.26-0.29-0.46-0.38-0.73
			c-0.01-0.03-0.02-0.07-0.04-0.1c-0.23-0.34-0.7-0.47-1.03-0.22c-0.67,0.48-1.32,0.99-1.97,1.49c-0.17,0.13-0.29,0.29-0.18,0.51
			c0.73,1.44,0.71,2.97,0.5,4.51c-0.3,2.22-0.96,4.31-2.24,6.18c-1.25,1.81-2.76,3.32-4.7,4.38c-0.56,0.31-1.19,0.49-1.7,0.89
			c-0.3-0.05-0.66-0.28-0.78,0.25c-0.01,0.06-0.14,0.1-0.22,0.14c-2.5,1.72-5.01,3.44-7.51,5.16c-0.19,0.13-0.31,0.25-0.56,0.37
			C85.18,50.04,85.14,50.11,85.07,50.11z M84.71,51.49c0.88-0.27,1.64-0.75,2.37-1.28c2.66-1.47,5.32-2.94,7.98-4.42
			c0.37-0.21,0.79-0.33,1.08-0.67c0.61,0.06,0.86,0.34,0.86,0.99c0.01,1.79-0.16,3.59-0.1,5.38c0.01,0.16-0.08,0.36,0.07,0.46
			c0.18,0.12,0.28-0.11,0.39-0.2c0.61-0.5,1.23-0.98,1.8-1.53c1.31-1.28,2.39-2.74,3.31-4.33c1.48-2.56,2.42-5.32,2.94-8.2
			c0.39-2.15,0.63-4.32,0.35-6.52c-0.11-0.85-0.21-1.7-0.35-2.55c-0.05-0.3-0.2-0.47-0.51-0.19c-0.29,0.26-0.5,0.53-0.45,0.97
			c0.18,1.52,0.16,3.04-0.1,4.55c-0.41,2.34-1.26,4.51-2.7,6.41c-1.04,1.38-2.27,2.59-3.72,3.53c-0.64,0.41-1.28,0.86-2.04,1.06
			c-0.44-0.38-0.71-0.02-1.06,0.2c-2.57,1.62-5.16,3.22-7.74,4.83C86.21,50.35,85.43,50.88,84.71,51.49
			c-0.03,0.03-0.14-0.04-0.11,0.08C84.64,51.54,84.67,51.52,84.71,51.49z M67.44,51.5c0.02,0.02,0.01,0.01,0.03,0.01
			c-0.02-0.02-0.01-0.01-0.02-0.02c-0.38-0.47-0.91-0.73-1.4-1.06c-0.64-0.42-1.22-0.93-1.94-1.21c-0.82-0.39-1.48-1.02-2.23-1.51
			c-1.62-1.05-3.2-2.16-4.75-3.32c-0.35-0.26-0.63-0.34-1.01-0.26c-0.23-0.42-0.72-0.35-1.07-0.55c-1.09-0.65-2.2-1.25-3.12-2.14
			c-1.33-1.29-2.46-2.71-3.24-4.4c-0.69-1.47-1.13-3.02-1.27-4.64c-0.13-1.44-0.19-2.9,0.53-4.25c0.11-0.2,0.05-0.33-0.12-0.46
			c-0.49-0.39-0.95-0.82-1.47-1.17c-0.23-0.16-0.44-0.37-0.71-0.47c-0.62-0.22-0.88,0.22-1.11,0.66c-0.09,0.16-0.37,0.25-0.23,0.49
			c0.12,0.21,0.36,0.11,0.54,0.12c1.02,0.04,2.06,1.2,1.94,2.17c-0.37,3.11,0.08,6.06,1.63,8.82c1.25,2.24,2.94,4.04,5.16,5.31
			c0.71,0.4,1.42,0.94,2.34,0.74c0.26,0.16,0.52,0.31,0.78,0.47c2.43,1.52,4.85,3.05,7.28,4.57c0.85,0.56,1.68,1.13,2.55,1.67
			C66.81,51.24,67.07,51.49,67.44,51.5z M54.32,45.2c0.48,0.25,0.96,0.5,1.44,0.77c2.31,1.31,4.67,2.52,6.94,3.89
			c0.12,0.07,0.26,0.2,0.44,0.06c-0.03-0.04-0.05-0.1-0.09-0.12c-1.52-0.96-3.06-1.89-4.56-2.89c-1.08-0.72-2.32-1.21-3.22-2.19
			c-0.1-0.1-0.2-0.03-0.29,0.02c-0.14,0.07-0.28,0.15-0.42,0.23c-0.41-0.08-0.75-0.3-1.11-0.5c-1.43-0.77-2.67-1.8-3.75-2.98
			c-1.63-1.78-2.74-3.87-3.35-6.23c-0.47-1.81-0.6-3.63-0.38-5.48c0.07-0.56,0.02-1.03-0.53-1.4c-0.33-0.22-0.37-0.08-0.41,0.15
			c-0.22,1.21-0.39,2.44-0.44,3.67c-0.06,1.38,0.03,2.76,0.2,4.13c0.22,1.78,0.64,3.52,1.2,5.22c0.53,1.6,1.22,3.12,2.09,4.58
			c1.37,2.29,3.07,4.26,5.22,5.85c0.08,0.06,0.16,0.18,0.27,0.1c0.1-0.07,0.06-0.2,0.07-0.3c0-0.65,0-1.29,0-1.94
			c0-1.22-0.15-2.43-0.1-3.66C53.55,45.47,53.69,45.29,54.32,45.2z M61.27,46.29c0.14,0.12,0.11,0.17,0.2,0.23
			c0.87,0.6,1.73,1.21,2.61,1.79c0.51,0.33,0.97,0.75,1.62,1.01c-0.06-0.25-0.2-0.32-0.33-0.41c-0.68-0.49-1.35-1-2.03-1.49
			c-0.63-0.46-1.19-1.03-1.93-1.33c-1.05-0.65-1.92-1.52-2.94-2.21c-0.16-0.1-0.25-0.23-0.1-0.39c0.15-0.17,0.32-0.37,0.59-0.25
			c0.16,0.08,0.32,0.18,0.44,0.3c0.47,0.46,1.04,0.6,1.68,0.54c0.86-0.07,1.72-0.18,2.55-0.44c4.16-1.28,6.84-4.09,8.28-8.13
			c0.39-1.1,0.67-2.24,0.56-3.44c-0.04-0.44-0.17-0.7-0.68-0.67c-0.34,0.02-0.69-0.01-1.02-0.07c-0.47-0.09-0.62-0.02-0.52,0.52
			c0.5,2.69-0.1,5.15-1.74,7.34c-2.54,3.39-7.16,4.59-11.08,2.9c-3.89-1.68-6.2-5.84-5.47-10.01c0.53-3.07,2.16-5.39,4.98-6.82
			c0.21-0.11,0.42-0.19,0.13-0.44c-0.94-0.84-1.77-1.79-2.61-2.72c-0.26-0.29-0.45-0.28-0.77-0.06c-1.75,1.18-3.06,2.74-4.11,4.56
			c-0.67,1.16-1.43,2.28-1.51,3.69c-0.13,2.13,0.27,4.15,1.13,6.09c1.4,3.16,3.63,5.54,6.87,6.79c1.36,0.53,2.55,1.26,3.73,2.07
			C60.29,45.59,60.78,45.94,61.27,46.29z M96.91,60.99c-0.01-0.05-0.02-0.1-0.04-0.14c-0.01,0.01-0.04,0.03-0.04,0.03
			C96.85,60.91,96.88,60.95,96.91,60.99c-0.2,1.09-0.06,2.18-0.08,3.27c-0.07,3.13-0.04,6.26-0.02,9.39c0,0.44-0.09,0.77-0.52,0.96
			c-0.27,0.12-0.37,0.28-0.29,0.63c0.27,1.2,0.42,2.43,0.46,3.67c0.06,2.1-0.08,4.18-0.61,6.23c-0.57,2.22-1.21,4.37-2.8,6.14
			c-1.56,1.74-3.3,3.25-5.31,4.42c-1.94,1.13-4.02,1.98-6.2,2.54c-2.03,0.52-4.07,0.97-6.19,0.96c-1.01-0.01-2-0.07-3-0.22
			c-2.12-0.31-4.18-0.84-6.18-1.59c-2.1-0.79-4.05-1.88-5.83-3.26c-1.38-1.07-2.64-2.27-3.68-3.67c-1.29-1.76-1.79-3.84-2.29-5.91
			c-0.42-1.79-0.5-3.6-0.44-5.43c0.04-1.36,0.16-2.71,0.52-4.03c0.06-0.24-0.02-0.37-0.23-0.47c-0.33-0.16-0.5-0.4-0.51-0.8
			c-0.02-3.14,0.08-6.29-0.08-9.43c-0.06-1.11-0.01-2.23-0.02-3.34c0-0.12,0.06-0.27-0.11-0.41c-0.59,1.28-1.18,2.52-1.73,3.78
			c-0.75,1.72-1.42,3.48-2,5.26c-0.5,1.53-0.95,3.08-1.34,4.63c-0.41,1.61-0.69,3.25-0.91,4.9c-0.19,1.44-0.35,2.88-0.37,4.33
			c-0.03,2.22,0.12,4.44,0.63,6.61c0.36,1.54,0.82,3.06,1.6,4.44c0.89,1.59,2.07,2.94,3.45,4.15c1.89,1.65,4,2.94,6.27,3.97
			c2.03,0.91,4.14,1.62,6.32,2.08c1.93,0.41,3.87,0.75,5.84,0.79c2.07,0.04,4.14-0.03,6.2,0.03c2.89,0.07,5.72-0.39,8.5-1.06
			c2.37-0.57,4.65-1.46,6.82-2.59c2.3-1.2,4.36-2.73,6.16-4.61c1.43-1.5,2.43-3.23,3.07-5.17c0.62-1.86,0.99-3.78,1.1-5.72
			c0.17-2.82,0.05-5.63-0.44-8.42c-0.43-2.46-1.02-4.89-1.77-7.28c-0.45-1.44-0.96-2.85-1.5-4.25c-0.53-1.38-1.11-2.75-1.74-4.09
			C97.47,61.91,97.39,61.33,96.91,60.99z M40.55,24.41c-0.04-0.56-0.38-0.91-0.78-1.13c-1.12-0.61-2.25-1.19-3.41-1.72
			c-1.89-0.86-3.72-1.83-5.56-2.78c-3.13-1.61-6.23-3.31-9.29-5.06c-1.7-0.97-3.46-1.86-5.12-2.91c-2.16-1.36-4.42-2.56-6.56-3.97
			C8.51,5.97,7.11,5.21,5.79,4.33c-1.39-0.92-2.81-1.79-4.14-2.8C1.44,1.37,1.29,1.38,1.27,1.69c-0.1,1.45-0.26,2.89-0.3,4.34
			c-0.1,2.89,0.1,5.77,0.31,8.65c0.16,2.16,0.43,4.31,0.8,6.44c0.49,2.83,1.08,5.65,1.83,8.44c0.71,2.62,1.51,5.22,2.44,7.78
			c1.17,3.22,2.53,6.36,4.1,9.4c1.39,2.69,2.93,5.28,4.71,7.73c1.53,2.1,3.23,4.06,5.12,5.84c1.42,1.34,3,2.44,4.66,3.44
			c0.23,0.14,0.36,0.3,0.43,0.57c0.22,0.86,0.39,1.74,0.72,2.58c0.88,2.29,1.94,4.49,3.18,6.61c1.04,1.76,2.19,3.44,3.47,5.03
			c1.43,1.77,2.92,3.49,4.63,5c1.73,1.54,3.5,3.01,5.51,4.17c1.12,0.64,2.26,1.23,3.49,1.65c0.16,0.06,0.4,0.21,0.32-0.15
			c-0.26-1.19-0.34-2.41-0.4-3.62c-0.01-0.2-0.08-0.37-0.32-0.44c-0.33-0.1-0.36-0.36-0.25-0.64c0.12-0.32,0.28-0.62,0.38-0.94
			c0.37-1.12,0.27-2.31,0.38-3.46c0.21-2.21,0.64-4.38,1.17-6.53c0.5-1.99,1.1-3.96,1.83-5.89c0.5-1.33,1.01-2.67,1.6-3.97
			c0.33-0.73,0.64-1.47,0.97-2.21c0.3-0.68,0.3-1.39,0.31-2.11c0.01-0.36,0.06-0.71,0.55-0.68c0.54,0.04,0.71-0.09,0.72-0.64
			c0.02-0.77,0.01-1.55,0.01-2.32c0-0.38-0.14-0.68-0.53-0.84c-0.38-0.16-0.74-0.35-1.09-0.59c-1.81-1.25-3.38-2.75-4.78-4.45
			c-0.89-1.08-1.69-2.22-2.43-3.4c-1.09-1.77-2.02-3.62-2.78-5.57c-0.6-1.55-1.15-3.12-1.53-4.74c-0.35-1.51-0.61-3.04-0.72-4.6
			c-0.12-1.77-0.04-3.51,0.26-5.24C40.15,25.68,40.38,25.03,40.55,24.41z M96.91,56.68c0,0.7-0.01,1.18,0,1.67
			c0.01,0.32,0.08,0.57,0.52,0.41c0.3-0.11,0.5,0,0.57,0.37c0.05,0.27,0.07,0.53,0.08,0.8c0.02,0.43-0.03,0.85,0.14,1.27
			c0.7,1.7,1.48,3.36,2.14,5.08c1.01,2.61,1.86,5.26,2.52,7.97c0.57,2.37,0.96,4.76,1.16,7.19c0.09,1.07-0.01,2.19,0.68,3.15
			c0.17,0.24-0.02,0.49-0.26,0.54c-0.33,0.07-0.31,0.27-0.33,0.51c-0.08,1-0.18,2-0.27,2.99c-0.02,0.26-0.28,0.57-0.07,0.75
			c0.1,0.09,0.48-0.09,0.72-0.19c3.37-1.33,6.19-3.48,8.82-5.92c1.18-1.1,2.26-2.29,3.32-3.51c1.62-1.87,3.04-3.89,4.34-5.99
			c0.99-1.59,1.85-3.24,2.56-4.97c0.54-1.3,1.1-2.6,1.37-4.01c0.07-0.39,0.14-0.85,0.59-1.09c1.66-0.89,3.15-2.05,4.54-3.31
			c2.34-2.13,4.31-4.59,6.1-7.19c1.12-1.63,2.15-3.33,3.09-5.07c1.2-2.24,2.32-4.52,3.3-6.86c1.15-2.74,2.15-5.54,3.02-8.38
			c0.93-3.05,1.68-6.14,2.29-9.27c0.43-2.21,0.77-4.43,1.03-6.68c0.23-2.05,0.41-4.1,0.49-6.15c0.06-1.58,0-3.16,0.03-4.75
			c0.02-1.43-0.12-2.85-0.23-4.28c-0.02-0.26-0.11-0.42-0.41-0.2c-0.52,0.38-1.07,0.72-1.6,1.09c-2.24,1.52-4.53,2.96-6.83,4.37
			c-2.46,1.51-4.94,2.97-7.43,4.42c-2.04,1.19-4.09,2.35-6.15,3.5c-1.7,0.95-3.42,1.86-5.14,2.79c-1.91,1.03-3.83,2.01-5.78,2.95
			c-1.58,0.76-3.17,1.51-4.72,2.32c-0.87,0.45-1.48,0.81-1.04,2.28c0.54,1.79,0.7,3.62,0.61,5.51c-0.1,2-0.43,3.94-0.89,5.87
			c-0.65,2.7-1.7,5.25-2.95,7.7c-0.76,1.5-1.67,2.92-2.68,4.28c-1.68,2.23-3.51,4.33-5.94,5.76C97.13,55.03,96.59,55.68,96.91,56.68
			z M95.44,80.26c0.02-1.53-0.1-3.04-0.32-4.56c-0.06-0.41-0.2-0.44-0.52-0.26c-1.68,0.94-3.37,1.88-5.07,2.79
			c-1.77,0.94-3.49,1.97-5.25,2.94c-2.06,1.15-4.17,2.21-6.19,3.43c-0.13,0.08-0.27,0.09-0.41,0.11c-1.27,0.18-2.55,0.05-3.82,0.09
			c-0.65,0.02-1.22-0.11-1.83-0.45c-2.64-1.44-5.26-2.9-7.89-4.36c-2.74-1.51-5.48-3.01-8.22-4.52c-0.49-0.27-0.62-0.22-0.69,0.34
			c-0.31,2.46-0.47,4.92-0.14,7.4c0.31,2.38,1.15,4.55,2.48,6.52c1.19,1.76,2.68,3.25,4.44,4.46c2.08,1.44,4.37,2.44,6.8,3.11
			c2.14,0.59,4.3,1.08,6.51,1.04c2.43-0.05,4.79-0.57,7.11-1.29c2.4-0.75,4.65-1.82,6.63-3.35c2.53-1.95,4.44-4.41,5.51-7.46
			C95.26,84.3,95.46,82.3,95.44,80.26z M72.34,64.44c-0.01,0-0.01,0-0.02,0c0-2.55-0.01-5.11,0.01-7.66c0-0.53-0.16-0.85-0.65-1.11
			c-2.1-1.12-4.19-2.27-6.27-3.42c-3.45-1.91-6.89-3.82-10.34-5.73c-0.55-0.31-0.63-0.26-0.63,0.38c0,2.43,0.03,4.85,0,7.28
			c-0.03,2.5,0.1,4.99,0.06,7.49c-0.06,3.86-0.11,7.73,0.26,11.58c0.05,0.54,0.25,0.84,0.72,1.08c1.08,0.56,2.14,1.15,3.2,1.74
			c2.5,1.38,4.99,2.76,7.49,4.13c1.82,1,3.64,2,5.46,3.01c0.2,0.11,0.38,0.33,0.63,0.21c0.26-0.13,0.17-0.41,0.17-0.63
			c-0.05-3.58,0.03-7.15-0.08-10.73C72.28,69.51,72.34,66.98,72.34,64.44z M78.12,70.8c-0.06,3.82,0.05,8-0.1,12.18
			c-0.02,0.43,0.26,0.6,0.63,0.4c0.57-0.31,1.12-0.65,1.68-0.96c2.46-1.37,4.91-2.74,7.37-4.1c2.58-1.43,5.17-2.84,7.77-4.25
			c0.36-0.2,0.48-0.47,0.49-0.87c0.05-4.47-0.02-8.95,0.08-13.42c0.02-0.84-0.11-1.69-0.06-2.53c0.03-0.54,0.04-1.06,0.02-1.61
			c-0.06-1.26-0.15-2.53-0.08-3.79c0.1-1.66,0.37-3.32,0.17-4.99c-0.07-0.58-0.14-0.64-0.65-0.36c-2.58,1.43-5.16,2.86-7.75,4.29
			c-3.03,1.67-6.06,3.35-9.09,5.01c-0.28,0.15-0.4,0.32-0.4,0.63c0,1.15-0.06,2.3-0.07,3.45C78.1,63.39,78.12,66.91,78.12,70.8z
			 M68.53,10.01c0.18,0.1,0.24,0.14,0.3,0.17c0.65,0.37,1.34,0.69,1.78,1.35c0.13,0.2,0.24,0.37,0.02,0.56
			c-0.21,0.18-0.45,0.19-0.63,0.01c-0.23-0.22-0.45-0.21-0.74-0.16c-1.75,0.28-3.49,0.59-5.21,1.01c-1.6,0.39-3.21,0.72-4.74,1.33
			c-1.16,0.47-2.31,0.98-3.42,1.55c-0.2,0.1-0.39,0.18-0.19,0.48c0.66,0.99,1.37,1.93,2.17,2.8c0.17,0.19,0.35,0.25,0.62,0.21
			c0.58-0.09,1.17-0.17,1.76-0.16c1.3,0.02,2.57,0.25,3.84,0.6c1.62,0.45,3.07,1.22,4.34,2.28c1.51,1.26,2.77,2.75,3.55,4.59
			c0.1,0.22,0.24,0.27,0.46,0.29c1.84,0.18,3.69,0.14,5.53,0c0.24-0.02,0.39-0.12,0.5-0.34c0.82-1.77,1.97-3.28,3.49-4.5
			c1.6-1.29,3.39-2.17,5.4-2.62c1.54-0.34,3.08-0.39,4.64-0.13c0.2,0.03,0.35-0.02,0.48-0.16c0.81-0.86,1.53-1.8,2.21-2.76
			c0.21-0.3,0.15-0.42-0.14-0.56c-1.41-0.7-2.85-1.38-4.35-1.86c-2.8-0.89-5.67-1.48-8.57-1.95c-0.45-0.07-0.99-0.31-1.41,0.19
			c-0.14,0.17-0.3,0.03-0.43-0.06c-0.15-0.11-0.18-0.28-0.1-0.43c0.17-0.32,0.33-0.63,0.66-0.82c0.48-0.27,0.93-0.57,1.4-0.86
			c-0.07-0.14-0.18-0.16-0.28-0.18c-1.44-0.28-2.88-0.34-4.33-0.1c-0.53,0.09-0.77-0.09-0.84-0.61c-0.02-0.12-0.02-0.25-0.05-0.37
			c-0.08-0.31-0.08-0.72-0.43-0.81c-0.3-0.07-0.52,0.25-0.74,0.45c-0.44,0.4-0.77,0.9-1.15,1.35c-0.27,0.32-0.56,0.45-0.91,0.1
			c-0.19-0.18-0.45-0.23-0.7-0.23c-0.67-0.01-1.34-0.05-1.99,0.01C69.77,9.7,69.2,9.78,68.53,10.01z M77.71,39.57
			c0,0.47-0.03,0.81,0.01,1.13c0.17,1.38,0.12,2.76-0.15,4.12c-0.27,1.34-1.05,2.45-1.75,3.59c-0.32,0.53-0.89,0.5-1.23-0.02
			c-0.43-0.66-0.86-1.32-1.22-2.01c-0.71-1.41-0.87-2.93-0.79-4.49c0.04-0.7,0.01-1.4,0.01-2.2c-0.61,0.76-1.09,1.49-1.7,2.09
			c-2.11,2.1-4.59,3.57-7.54,4.19c-0.11,0.02-0.28-0.04-0.31,0.14c-0.01,0.11,0.12,0.16,0.21,0.23c0.65,0.48,1.29,0.97,1.94,1.45
			c1.99,1.49,3.98,2.98,5.98,4.47c1.16,0.87,2.33,1.73,3.48,2.61c0.41,0.31,0.77,0.45,1.16-0.02c0.06-0.08,0.18-0.12,0.26-0.18
			c1.25-0.93,2.5-1.85,3.75-2.78c1.09-0.81,2.17-1.63,3.26-2.44c1.38-1.03,2.76-2.06,4.14-3.08c0.09-0.06,0.2-0.11,0.17-0.24
			c-0.04-0.13-0.16-0.11-0.27-0.13c-0.61-0.15-1.24-0.25-1.82-0.48c-1.35-0.53-2.67-1.11-3.84-2.01c-0.98-0.76-1.89-1.57-2.68-2.53
			C78.45,40.55,78.13,40.1,77.71,39.57z M94.35,110.64c0.11,0,0.22,0,0.32,0c1.2,0.06,2.2-0.37,2.93-1.3
			c0.67-0.85,0.56-1.86,0.33-2.83c-0.39-1.64-1.23-3.09-2.12-4.5c-0.35-0.55-0.46-0.57-1.03-0.21c-0.77,0.5-1.57,0.94-2.4,1.34
			c-3.63,1.73-7.46,2.75-11.45,3.15c-0.34,0.03-0.51,0.16-0.57,0.51c-0.18,1.1-0.23,2.19-0.12,3.31c0.22,2.13,2.35,2.99,3.84,2.53
			c0.75-0.23,1.54-0.32,2.26-0.68c0.13-0.07,0.33-0.07,0.48-0.02c0.61,0.19,1.22,0.07,1.81-0.02c1.2-0.17,2.42-0.34,3.4-1.19
			c0.23-0.2,0.53-0.27,0.81-0.19C93.35,110.69,93.85,110.65,94.35,110.64z M70.17,108.7c0.07-0.62-0.1-1.22-0.13-1.82
			c-0.02-0.4-0.2-0.56-0.6-0.6c-2.46-0.21-4.85-0.73-7.2-1.46c-2.39-0.75-4.66-1.77-6.79-3.09c-0.4-0.25-0.57-0.17-0.81,0.19
			c-0.85,1.3-1.47,2.71-2.03,4.15c-0.27,0.69-0.41,1.45-0.25,2.22c0.26,1.25,1.49,2.33,2.78,2.34c0.82,0.01,1.65,0.13,2.47-0.09
			c0.31-0.08,0.6,0.02,0.85,0.25c0.1,0.1,0.21,0.2,0.34,0.26c1.47,0.76,3.02,1.06,4.67,0.9c0.21-0.02,0.47-0.05,0.64,0.04
			c0.74,0.41,1.58,0.47,2.36,0.71c1.09,0.34,2.54-0.24,3.16-1.19C70.19,110.64,70.13,109.66,70.17,108.7z M77.38,62.29
			c0,0,0.01,0,0.01,0c0-1.74,0-3.49,0-5.23c0-0.29-0.01-0.68-0.35-0.68c-1.03-0.01-2.07-0.16-3.1,0.02c-0.8,0.14-0.8,0.13-0.8,0.94
			c0.03,6.92-0.06,13.84,0.1,20.76c0.04,1.69,0.02,3.38,0.01,5.07c0,0.49,0.2,0.72,0.71,0.71c0.84-0.02,1.69,0,2.54-0.01
			c0.68,0,0.79-0.11,0.8-0.78c0.04-5.25-0.07-10.49,0.09-15.74C77.42,65.67,77.38,63.98,77.38,62.29z M61.1,42.05
			c2.17,0.02,4.04-0.73,5.65-2.16c2.54-2.26,3.3-5.09,2.66-8.37c-0.06-0.29-0.18-0.48-0.46-0.52c-0.68-0.09-1.33-0.31-1.99-0.47
			c-0.11-0.03-0.24-0.14-0.35-0.02c-0.11,0.13-0.04,0.27,0.01,0.41c0.04,0.1,0.09,0.2,0.14,0.29c0.53,1.03,0.7,2.13,0.58,3.28
			c-0.42,4.12-4.87,6.63-8.62,4.87c-2.59-1.22-3.96-3.83-3.47-6.63c0.44-2.54,2.28-4.39,4.91-4.95c0.13-0.03,0.33,0.04,0.36-0.15
			c0.02-0.16-0.15-0.23-0.27-0.31c-0.63-0.41-1.25-0.84-1.82-1.34c-0.29-0.26-0.57-0.28-0.89-0.1c-0.55,0.3-1.1,0.6-1.59,1
			c-2.08,1.65-3.23,3.8-3.31,6.46c-0.06,1.98,0.52,3.76,1.75,5.35C56.1,40.91,58.35,41.97,61.1,42.05z M97.71,33.36
			c0.07-0.67-0.1-1.54-0.38-2.4c-0.76-2.36-2.37-3.96-4.51-5.09c-0.27-0.14-0.53-0.12-0.8,0.09c-0.62,0.49-1.27,0.94-1.9,1.41
			c-0.1,0.07-0.24,0.14-0.21,0.29c0.03,0.17,0.2,0.12,0.31,0.14c1.72,0.38,3.1,1.23,4.06,2.75c1.83,2.9,1.02,6.62-2.1,8.55
			c-1.88,1.16-3.9,1.14-5.85,0.16c-1.49-0.75-2.54-1.94-3.04-3.58c-0.49-1.63-0.39-3.19,0.42-4.69c0.06-0.12,0.21-0.25,0.09-0.39
			c-0.11-0.13-0.27-0.03-0.4,0c-0.56,0.13-1.11,0.28-1.68,0.39c-0.41,0.08-0.68,0.27-0.76,0.71c-0.33,1.83-0.25,3.65,0.56,5.33
			c1.58,3.27,4.21,4.98,7.88,5.02c2.36,0.02,4.34-0.94,5.97-2.55C96.96,37.89,97.75,35.89,97.71,33.36z M73.49,41.28
			c0,0.08-0.03,0.47-0.04,0.56c0,0.25,0.01,0.5,0,0.76c-0.09,1.71,0.51,3.2,1.41,4.6c0.17,0.27,0.34,0.45,0.62,0.05
			c0.58-0.84,1.07-1.71,1.28-2.7c0.33-1.55,0.1-3.11,0.15-4.66c0.06-1.8-0.66-3.36-1.09-5c-0.08-0.32-0.33-0.55-0.67-0.53
			c-0.34,0.02-0.53,0.27-0.59,0.61c-0.11,0.62-0.35,1.21-0.55,1.8c-0.14,0.4-0.4,0.78-0.41,1.22
			C73.58,39.25,73.49,39.99,73.49,41.28z M60.54,20.1c-0.39,0-0.79-0.01-1.18,0.01c-0.12,0-0.28-0.05-0.34,0.08
			c-0.08,0.17,0.1,0.25,0.19,0.34c3.24,2.99,6.93,5.15,11.26,6.11c0.14,0.03,0.3,0.13,0.41,0.01c0.12-0.13-0.03-0.27-0.1-0.38
			C68.49,22.33,65.06,20.3,60.54,20.1z M91.5,20.15c-5.66-0.63-10.27,2.69-12.04,6.5C83.87,25.17,88.1,23.56,91.5,20.15z
			 M53.42,20.92c-0.01-0.13-0.03-0.25-0.13-0.35c-0.51-0.52-0.82-1.17-1.16-1.79c-0.26-0.46-0.44-0.42-0.81-0.15
			c-0.91,0.66-1.67,1.45-2.38,2.31c-1.07,1.29-1.94,2.69-2.61,4.22c-0.1,0.22-0.04,0.36,0.15,0.5c0.46,0.34,0.93,0.67,1.35,1.06
			c0.35,0.32,0.54,0.29,0.73-0.15c0.32-0.76,0.84-1.41,1.31-2.08c0.87-1.24,1.95-2.28,3.23-3.1C53.27,21.27,53.43,21.15,53.42,20.92
			z M104.12,25.34c-0.03-0.07-0.08-0.17-0.12-0.26c-0.65-1.59-1.59-3-2.7-4.29c-0.72-0.83-1.48-1.65-2.42-2.26
			c-0.19-0.12-0.32-0.21-0.47,0.05c-0.43,0.72-0.84,1.46-1.37,2.11c-0.2,0.25-0.14,0.43,0.13,0.61c0.44,0.3,0.89,0.6,1.29,0.96
			c1.43,1.28,2.55,2.8,3.46,4.47c0.16,0.3,0.28,0.33,0.5,0.1c0.42-0.45,0.94-0.77,1.43-1.13C103.96,25.61,104.09,25.53,104.12,25.34
			z M88.11,45.26c0.22,0,0.43,0.01,0.65,0c0.16-0.01,0.28-0.07,0.29-0.25c0.01-0.21-0.15-0.21-0.29-0.23
			c-0.91-0.11-1.79-0.34-2.66-0.6c-2.23-0.66-4.07-1.97-5.57-3.64c-1.06-1.18-1.95-2.55-2.45-4.12c-0.15-0.48-0.38-0.93-0.49-1.42
			c-0.1-0.44-0.58-0.56-0.83-0.5c-0.38,0.1-0.1,0.46-0.02,0.72c0.17,0.6,0.39,1.19,0.63,1.77c0.91,2.27,2.41,4.07,4.29,5.6
			c0.99,0.81,2.12,1.39,3.28,1.89C85.92,44.91,86.98,45.24,88.11,45.26z M62.37,45.28c0.21-0.03,0.5-0.04,0.78-0.1
			c2.33-0.51,4.37-1.55,6.19-3.11c1.88-1.62,3.24-3.58,4.07-5.92c0.14-0.4,0.2-0.83,0.39-1.22c0.08-0.16,0.15-0.56-0.25-0.46
			c-0.34,0.09-0.67,0.27-0.8,0.7c-0.64,2.24-1.76,4.2-3.38,5.88c-1.07,1.11-2.34,1.95-3.69,2.61c-1.25,0.61-2.61,0.98-4.02,1.11
			c-0.13,0.01-0.26,0.02-0.27,0.19c-0.01,0.17,0.09,0.27,0.26,0.28C61.86,45.26,62.08,45.27,62.37,45.28z M73.14,33.35
			c-0.03,0.11-0.07,0.22,0.05,0.3c0.1,0.07,0.2,0.03,0.29-0.05c0.2-0.17,0.46-0.18,0.7-0.23c0.96-0.21,1.88-0.16,2.77,0.27
			c0.12,0.06,0.25,0.09,0.3-0.09c0.08-0.25-0.24-0.77-0.51-0.88c-1-0.39-2-0.4-3.02-0.05C73.33,32.76,73.17,32.98,73.14,33.35z
			 M75.18,31.31c-0.5,0.02-1.04-0.01-1.57,0.11c-0.14,0.03-0.29,0-0.38,0.15c-0.04,0.07-0.02,0.14,0.04,0.19
			c0.15,0.12,0.31,0.09,0.45,0.01c0.46-0.25,0.96-0.23,1.46-0.26c0.57-0.04,1.08,0.17,1.62,0.27c0.15,0.03,0.27,0.02,0.3-0.13
			c0.03-0.16-0.11-0.2-0.24-0.23C76.32,31.31,75.76,31.33,75.18,31.31z M65.47,51.24c-0.04-0.01-0.08-0.03-0.12-0.03
			c-0.01,0-0.04,0.07-0.03,0.07c0.03,0.02,0.07,0.04,0.11,0.05C65.44,51.31,65.45,51.28,65.47,51.24z M82.66,51.78
			c0.01-0.01,0.03-0.01,0.04-0.02c-0.01-0.01-0.02-0.02-0.04-0.03c-0.01,0-0.03,0.01-0.04,0.02C82.64,51.77,82.65,51.78,82.66,51.78
			z M65.7,51.41c-0.01,0.01-0.03,0.02-0.04,0.02c0.01,0.01,0.02,0.02,0.02,0.03c0.02-0.01,0.04-0.03,0.06-0.04
			C65.73,51.42,65.72,51.42,65.7,51.41z"/>
		<path class="st1" d="M40.55,24.41c-0.17,0.62-0.4,1.27-0.52,1.93c-0.31,1.73-0.38,3.47-0.26,5.24c0.11,1.56,0.36,3.09,0.72,4.6
			c0.38,1.62,0.93,3.19,1.53,4.74c0.75,1.94,1.68,3.8,2.78,5.57c0.73,1.18,1.54,2.32,2.43,3.4c1.4,1.7,2.97,3.2,4.78,4.45
			c0.34,0.24,0.71,0.43,1.09,0.59c0.4,0.17,0.53,0.46,0.53,0.84c0.01,0.77,0.01,1.55-0.01,2.32c-0.01,0.55-0.18,0.67-0.72,0.64
			c-0.49-0.03-0.55,0.32-0.55,0.68c-0.01,0.72-0.01,1.43-0.31,2.11c-0.33,0.73-0.63,1.48-0.97,2.21c-0.59,1.3-1.09,2.63-1.6,3.97
			c-0.73,1.92-1.33,3.9-1.83,5.89c-0.53,2.14-0.96,4.31-1.17,6.53c-0.11,1.15-0.02,2.33-0.38,3.46c-0.1,0.32-0.26,0.62-0.38,0.94
			c-0.11,0.29-0.08,0.55,0.25,0.64c0.24,0.07,0.31,0.24,0.32,0.44c0.06,1.22,0.14,2.43,0.4,3.62c0.08,0.36-0.16,0.2-0.32,0.15
			c-1.23-0.42-2.37-1.01-3.49-1.65c-2.01-1.16-3.78-2.63-5.51-4.17c-1.71-1.52-3.2-3.24-4.63-5c-1.28-1.58-2.43-3.27-3.47-5.03
			c-1.24-2.12-2.3-4.32-3.18-6.61c-0.32-0.84-0.49-1.72-0.72-2.58c-0.07-0.27-0.2-0.43-0.43-0.57c-1.66-1-3.24-2.1-4.66-3.44
			c-1.89-1.79-3.59-3.74-5.12-5.84c-1.78-2.45-3.32-5.04-4.71-7.73c-1.57-3.04-2.93-6.18-4.1-9.4c-0.93-2.56-1.73-5.15-2.44-7.78
			c-0.75-2.78-1.34-5.6-1.83-8.44c-0.37-2.13-0.65-4.28-0.8-6.44C1.07,11.8,0.87,8.92,0.96,6.03c0.05-1.45,0.2-2.89,0.31-4.34
			c0.02-0.31,0.17-0.32,0.38-0.16c1.33,1.01,2.75,1.87,4.14,2.8c1.32,0.88,2.72,1.65,4.04,2.52c2.14,1.41,4.39,2.61,6.56,3.97
			c1.66,1.04,3.41,1.93,5.12,2.91c3.06,1.75,6.15,3.44,9.29,5.06c1.84,0.95,3.67,1.92,5.56,2.78c1.16,0.53,2.29,1.11,3.41,1.72
			C40.17,23.5,40.52,23.85,40.55,24.41z M38.5,26.98c0.32,0.05,0.5-0.05,0.52-0.28c0.03-0.3-0.09-0.49-0.42-0.58
			c-2.17-0.55-4.31-1.18-6.43-1.93c-4.16-1.47-8.21-3.19-12.15-5.18c-3.47-1.76-6.89-3.59-10.14-5.74
			c-1.58-1.04-3.13-2.13-4.67-3.23c-0.27-0.19-0.55-0.35-0.8-0.04c-0.25,0.32-0.01,0.58,0.24,0.77c2.12,1.59,4.3,3.09,6.57,4.46
			c2.18,1.3,4.38,2.57,6.64,3.73c3.1,1.57,6.23,3.06,9.46,4.36c2.88,1.16,5.78,2.24,8.77,3.08C36.92,26.61,37.73,26.89,38.5,26.98z
			 M37.18,33.59c0.14,0,0.29-0.01,0.43,0c0.27,0.02,0.53-0.02,0.55-0.35c0.02-0.33-0.2-0.4-0.49-0.43c-0.91-0.09-1.81-0.19-2.72-0.3
			c-2.72-0.33-5.41-0.84-8.07-1.46c-3.89-0.91-7.72-2.04-11.48-3.4c-1.87-0.67-3.73-1.38-5.56-2.19c-1.65-0.73-3.29-1.5-4.89-2.34
			C4.72,23,4.42,22.87,4.25,23.18c-0.18,0.31,0,0.55,0.29,0.7c0.57,0.29,1.15,0.57,1.72,0.87c2.25,1.16,4.59,2.11,6.95,3.01
			c1.51,0.57,3.02,1.13,4.55,1.63c1.74,0.56,3.48,1.11,5.25,1.58c2.83,0.75,5.68,1.45,8.58,1.92
			C33.45,33.18,35.31,33.43,37.18,33.59z M25.41,39.85c3.05-0.02,5.57-0.17,8.08-0.42c1.64-0.16,3.26-0.44,4.87-0.79
			c0.27-0.06,0.63-0.17,0.54-0.54c-0.09-0.35-0.4-0.47-0.78-0.37c-1.2,0.3-2.42,0.46-3.64,0.65c-2.03,0.31-4.06,0.39-6.1,0.47
			c-2.76,0.11-5.53,0.02-8.3-0.09c-0.07,0-0.14-0.01-0.21-0.01c-1.46-0.14-2.92-0.29-4.38-0.4c-1.12-0.09-2.24-0.24-3.35-0.41
			c-0.9-0.14-1.8-0.31-2.7-0.45c-0.28-0.04-0.59,0-0.66,0.31c-0.07,0.33,0.17,0.52,0.47,0.62c0.05,0.02,0.11,0.02,0.16,0.03
			c0.69,0.11,1.38,0.21,2.06,0.33c3.07,0.55,6.18,0.78,9.29,0.93C22.47,39.78,24.2,39.91,25.41,39.85z M49.1,55.31
			c-0.03-0.25-0.02-0.52-0.33-0.56c-0.33-0.04-0.49,0.17-0.55,0.47c-0.23,1.11-0.57,2.18-0.96,3.23c-0.53,1.44-1.13,2.85-1.75,4.25
			c-1.34,3.02-2.89,5.91-4.52,8.78c-0.38,0.67-0.76,1.34-1.19,1.98c-1.11,1.63-2.15,3.3-3.34,4.87c-0.2,0.26-0.28,0.57,0.01,0.75
			c0.25,0.16,0.54,0.05,0.73-0.25c0.28-0.44,0.58-0.86,0.88-1.28c1.5-2.07,2.84-4.25,4.14-6.45c1.1-1.86,2.09-3.77,3.05-5.7
			c1.21-2.45,2.28-4.97,3.1-7.58C48.63,56.97,48.91,56.14,49.1,55.31z M14.98,51.42c1.57-0.23,3.23-0.38,4.85-0.73
			c4.36-0.92,8.68-1.96,12.88-3.49c2.56-0.94,5.08-1.92,7.46-3.26c0.29-0.16,0.49-0.33,0.32-0.67c-0.17-0.33-0.46-0.24-0.7-0.12
			c-0.33,0.16-0.64,0.38-0.97,0.55c-2.74,1.42-5.62,2.49-8.55,3.42c-3.33,1.06-6.7,1.95-10.14,2.59c-1.74,0.33-3.48,0.67-5.25,0.8
			c-0.35,0.03-0.75,0.1-0.75,0.53C14.15,51.57,14.62,51.33,14.98,51.42z M45.52,51.31c0.02-0.32-0.09-0.48-0.3-0.55
			c-0.3-0.1-0.41,0.12-0.52,0.34c-0.97,1.88-2.08,3.67-3.31,5.39c-1.13,1.59-2.32,3.13-3.56,4.64c-1.86,2.26-3.85,4.4-5.96,6.43
			c-0.87,0.83-1.77,1.63-2.65,2.44c-0.17,0.15-0.31,0.35-0.13,0.56c0.17,0.2,0.43,0.2,0.63,0.05c0.33-0.24,0.65-0.5,0.95-0.78
			c1.94-1.86,3.9-3.69,5.66-5.73c1.68-1.95,3.37-3.89,4.89-5.97c1.32-1.81,2.57-3.66,3.7-5.59C45.17,52.12,45.35,51.67,45.52,51.31z
			 M21.4,60.12c0.18-0.06,0.46-0.13,0.73-0.23c1.31-0.47,2.59-1.03,3.87-1.59c1.64-0.73,3.26-1.49,4.83-2.34
			c2.63-1.42,5.21-2.93,7.69-4.61c1.17-0.8,2.26-1.69,3.37-2.56c0.39-0.31,0.72-0.7,1.08-1.05c0.19-0.18,0.27-0.38,0.09-0.61
			c-0.21-0.26-0.37-0.07-0.55,0.05c-0.09,0.06-0.18,0.12-0.25,0.2c-1.4,1.37-3,2.5-4.62,3.57c-2.76,1.83-5.61,3.5-8.58,4.97
			c-2.51,1.24-5.03,2.44-7.67,3.35c-0.16,0.06-0.27,0.17-0.38,0.29c-0.09,0.11-0.1,0.23-0.05,0.36
			C21.02,60.08,21.15,60.13,21.4,60.12z"/>
		<path class="st1" d="M96.91,56.68c-0.31-1,0.22-1.65,1.28-2.28c2.43-1.43,4.26-3.52,5.94-5.76c1.01-1.35,1.92-2.78,2.68-4.28
			c1.26-2.46,2.31-5,2.95-7.7c0.46-1.93,0.79-3.88,0.89-5.87c0.1-1.89-0.07-3.72-0.61-5.51c-0.44-1.46,0.17-1.82,1.04-2.28
			c1.55-0.81,3.14-1.56,4.72-2.32c1.95-0.94,3.87-1.93,5.78-2.95c1.72-0.92,3.44-1.84,5.14-2.79c2.06-1.15,4.11-2.31,6.15-3.5
			c2.49-1.46,4.98-2.92,7.43-4.42c2.31-1.41,4.59-2.85,6.83-4.37c0.53-0.36,1.08-0.71,1.6-1.09c0.3-0.22,0.39-0.06,0.41,0.2
			c0.12,1.42,0.25,2.85,0.23,4.28c-0.02,1.58,0.03,3.17-0.03,4.75c-0.08,2.06-0.25,4.1-0.49,6.15c-0.25,2.24-0.59,4.47-1.03,6.68
			c-0.61,3.13-1.36,6.22-2.29,9.27c-0.87,2.84-1.87,5.64-3.02,8.38c-0.98,2.34-2.1,4.63-3.3,6.86c-0.94,1.75-1.97,3.44-3.09,5.07
			c-1.79,2.6-3.75,5.06-6.1,7.19c-1.39,1.26-2.88,2.42-4.54,3.31c-0.45,0.24-0.51,0.7-0.59,1.09c-0.27,1.4-0.83,2.7-1.37,4.01
			c-0.71,1.72-1.57,3.38-2.56,4.97c-1.3,2.1-2.72,4.11-4.34,5.99c-1.05,1.22-2.14,2.42-3.32,3.51c-2.63,2.43-5.45,4.59-8.82,5.92
			c-0.24,0.09-0.61,0.28-0.72,0.19c-0.21-0.18,0.05-0.49,0.07-0.75c0.09-1,0.19-2,0.27-2.99c0.02-0.24,0-0.44,0.33-0.51
			c0.24-0.05,0.44-0.29,0.26-0.54c-0.69-0.96-0.59-2.08-0.68-3.15c-0.2-2.43-0.58-4.83-1.16-7.19c-0.66-2.71-1.51-5.37-2.52-7.97
			c-0.67-1.72-1.44-3.38-2.14-5.08c-0.17-0.42-0.12-0.85-0.14-1.27c-0.01-0.27-0.03-0.53-0.08-0.8c-0.06-0.36-0.27-0.48-0.57-0.37
			c-0.44,0.17-0.51-0.09-0.52-0.41C96.89,57.86,96.91,57.38,96.91,56.68z M111.84,27.03c0.62-0.16,1.25-0.3,1.87-0.48
			c2.28-0.63,4.53-1.36,6.74-2.21c1.71-0.66,3.43-1.27,5.09-2.04c1.96-0.92,3.93-1.82,5.87-2.8c2.91-1.47,5.75-3.07,8.53-4.77
			c2-1.22,3.93-2.56,5.81-3.96c0.29-0.22,0.4-0.52,0.2-0.79c-0.21-0.29-0.49-0.14-0.74,0.05c-2.4,1.72-4.82,3.4-7.36,4.91
			c-3.38,2.01-6.85,3.83-10.42,5.48c-2.6,1.2-5.24,2.33-7.93,3.31c-2.54,0.93-5.12,1.75-7.75,2.38c-0.3,0.07-0.46,0.22-0.42,0.51
			C111.36,26.91,111.55,27.03,111.84,27.03z M113.21,33.59c0.67,0,1.31-0.14,1.97-0.21c2.35-0.23,4.67-0.66,6.98-1.15
			c2.26-0.48,4.49-1.05,6.71-1.69c2.12-0.61,4.22-1.26,6.28-2.02c1.83-0.67,3.65-1.36,5.45-2.13c1.73-0.75,3.42-1.55,5.09-2.42
			c0.29-0.15,0.72-0.32,0.5-0.75c-0.22-0.44-0.6-0.17-0.88-0.01c-1.7,0.9-3.44,1.71-5.2,2.46c-2.06,0.88-4.16,1.64-6.28,2.38
			c-3.04,1.06-6.13,1.96-9.25,2.75c-1.56,0.39-3.14,0.69-4.72,1c-1.81,0.36-3.63,0.63-5.46,0.82c-0.57,0.06-1.14,0.13-1.7,0.21
			c-0.26,0.03-0.46,0.15-0.43,0.44c0.03,0.26,0.22,0.34,0.47,0.33C112.89,33.58,113.05,33.59,113.21,33.59z M124.38,39.82
			c2.11,0.02,3.99-0.12,5.87-0.18c2.51-0.08,4.99-0.39,7.48-0.69c1.15-0.14,2.3-0.3,3.43-0.57c0.3-0.07,0.5-0.22,0.41-0.56
			c-0.08-0.33-0.35-0.39-0.64-0.34c-0.32,0.05-0.63,0.15-0.95,0.2c-1.82,0.25-3.65,0.48-5.48,0.7c-2.41,0.28-4.82,0.39-7.23,0.47
			c-2.99,0.1-5.99,0.08-8.98-0.2c-1.19-0.11-2.39-0.2-3.57-0.41c-0.85-0.15-1.69-0.28-2.52-0.5c-0.28-0.08-0.56-0.08-0.69,0.23
			c-0.13,0.33,0.12,0.46,0.35,0.63c0.26,0.19,0.55,0.12,0.83,0.19c1.9,0.48,3.84,0.68,5.78,0.8
			C120.52,39.71,122.56,39.95,124.38,39.82z M101.32,55.41c0.02,0.11,0.04,0.27,0.08,0.42c0.78,2.85,1.87,5.57,3.12,8.25
			c0.79,1.68,1.61,3.35,2.49,4.98c1.65,3.08,3.51,6.03,5.53,8.87c0.22,0.3,0.44,0.61,0.67,0.91c0.18,0.23,0.43,0.4,0.69,0.22
			c0.29-0.2,0.21-0.5,0.04-0.76c-0.08-0.12-0.16-0.24-0.25-0.35c-0.88-1.08-1.64-2.25-2.4-3.41c-1.01-1.55-1.94-3.15-2.86-4.76
			c-1.57-2.75-2.93-5.61-4.2-8.5c-0.85-1.93-1.52-3.93-2.03-5.98c-0.07-0.28-0.15-0.58-0.53-0.55
			C101.24,54.77,101.35,55.1,101.32,55.41z M135.55,51.4c0.22-0.11,0.69,0.19,0.73-0.33c0.04-0.46-0.4-0.46-0.69-0.51
			c-1.08-0.18-2.16-0.31-3.24-0.47c-2.11-0.31-4.18-0.77-6.25-1.28c-1.93-0.48-3.84-1.02-5.73-1.61c-2.69-0.85-5.32-1.82-7.86-3.02
			c-0.68-0.32-1.33-0.7-2-1.04c-0.25-0.13-0.52-0.11-0.66,0.15c-0.15,0.26,0.09,0.42,0.25,0.58c0.06,0.06,0.15,0.09,0.23,0.14
			c2.07,1.18,4.28,2.05,6.5,2.9c2.23,0.85,4.51,1.53,6.8,2.17c2.45,0.68,4.93,1.25,7.43,1.69C132.52,51.03,134.01,51.26,135.55,51.4
			z M120.94,70.7c0.18,0.02,0.33-0.03,0.4-0.21c0.1-0.28-0.12-0.47-0.27-0.59c-0.49-0.4-0.9-0.87-1.38-1.27
			c-0.99-0.81-1.84-1.75-2.74-2.65c-1.81-1.82-3.48-3.75-5.1-5.74c-1.93-2.38-3.74-4.84-5.29-7.48c-0.34-0.58-0.63-1.19-0.96-1.79
			c-0.1-0.18-0.28-0.3-0.5-0.22c-0.24,0.09-0.22,0.31-0.2,0.5c0.01,0.12,0.06,0.25,0.12,0.35c0.41,0.73,0.8,1.47,1.23,2.19
			c1.32,2.22,2.83,4.3,4.43,6.32c1.47,1.85,3.02,3.63,4.63,5.36c1.51,1.63,3.14,3.13,4.76,4.64
			C120.31,70.36,120.54,70.69,120.94,70.7z M128.88,60.12c0.35,0.02,0.56-0.09,0.59-0.33c0.03-0.34-0.28-0.43-0.52-0.52
			c-2.06-0.74-4.06-1.61-6.03-2.55c-1.79-0.86-3.58-1.75-5.29-2.76c-1.48-0.87-2.96-1.73-4.38-2.7c-1.36-0.93-2.74-1.82-3.98-2.9
			c-0.46-0.4-0.92-0.8-1.38-1.2c-0.18-0.16-0.38-0.3-0.6-0.04c-0.22,0.26-0.1,0.46,0.1,0.65c0.96,0.94,1.99,1.82,3.09,2.58
			c1.79,1.24,3.61,2.46,5.49,3.57c3.55,2.1,7.24,3.92,11.05,5.48C127.66,59.68,128.32,59.91,128.88,60.12z"/>
		<path class="st1" d="M96.91,60.99c0.48,0.34,0.56,0.93,0.79,1.41c0.63,1.34,1.21,2.71,1.74,4.09c0.54,1.4,1.05,2.81,1.5,4.25
			c0.75,2.39,1.34,4.82,1.77,7.28c0.49,2.78,0.6,5.6,0.44,8.42c-0.12,1.94-0.49,3.87-1.1,5.72c-0.64,1.94-1.65,3.68-3.07,5.17
			c-1.8,1.88-3.85,3.42-6.16,4.61c-2.17,1.13-4.44,2.02-6.82,2.59c-2.79,0.67-5.61,1.13-8.5,1.06c-2.07-0.05-4.14,0.02-6.2-0.03
			c-1.97-0.04-3.91-0.38-5.84-0.79c-2.18-0.46-4.29-1.17-6.32-2.08c-2.27-1.03-4.38-2.32-6.27-3.97c-1.38-1.2-2.56-2.56-3.45-4.15
			c-0.78-1.38-1.23-2.9-1.6-4.44c-0.51-2.17-0.66-4.39-0.63-6.61c0.02-1.45,0.17-2.89,0.37-4.33c0.22-1.65,0.51-3.29,0.91-4.9
			c0.39-1.56,0.84-3.11,1.34-4.63c0.58-1.78,1.26-3.54,2-5.26c0.55-1.26,1.14-2.5,1.73-3.78c0.17,0.14,0.11,0.29,0.11,0.41
			c0.01,1.11-0.04,2.23,0.02,3.34c0.16,3.14,0.06,6.29,0.08,9.43c0,0.41,0.17,0.64,0.51,0.8c0.21,0.1,0.29,0.23,0.23,0.47
			c-0.36,1.32-0.47,2.67-0.52,4.03c-0.06,1.83,0.02,3.65,0.44,5.43c0.49,2.08,1,4.16,2.29,5.91c1.03,1.41,2.3,2.6,3.68,3.67
			c1.78,1.38,3.73,2.47,5.83,3.26c2,0.75,4.06,1.27,6.18,1.59c1,0.15,1.99,0.21,3,0.22c2.12,0.01,4.16-0.44,6.19-0.96
			c2.18-0.56,4.26-1.41,6.2-2.54c2.01-1.17,3.75-2.68,5.31-4.42c1.59-1.77,2.22-3.92,2.8-6.14c0.53-2.06,0.67-4.13,0.61-6.23
			c-0.04-1.24-0.18-2.47-0.46-3.67c-0.08-0.35,0.01-0.51,0.29-0.63c0.42-0.19,0.52-0.52,0.52-0.96c-0.01-3.13-0.05-6.26,0.02-9.39
			C96.85,63.16,96.71,62.07,96.91,60.99L96.91,60.99z"/>
		<path class="st2" d="M95.44,80.26c0.02,2.04-0.18,4.05-0.86,5.99c-1.07,3.05-2.98,5.51-5.51,7.46c-1.98,1.53-4.23,2.6-6.63,3.35
			c-2.32,0.72-4.68,1.25-7.11,1.29c-2.22,0.04-4.38-0.45-6.51-1.04c-2.44-0.67-4.72-1.67-6.8-3.11c-1.75-1.21-3.25-2.7-4.44-4.46
			c-1.33-1.97-2.17-4.14-2.48-6.52c-0.32-2.48-0.17-4.94,0.14-7.4c0.07-0.57,0.2-0.61,0.69-0.34c2.74,1.51,5.49,3.01,8.22,4.52
			c2.63,1.46,5.25,2.92,7.89,4.36c0.61,0.33,1.18,0.47,1.83,0.45c1.27-0.04,2.55,0.1,3.82-0.09c0.14-0.02,0.27-0.03,0.41-0.11
			c2.02-1.22,4.13-2.28,6.19-3.43c1.75-0.98,3.47-2.01,5.25-2.94c1.71-0.9,3.39-1.85,5.07-2.79c0.32-0.18,0.46-0.15,0.52,0.26
			C95.34,77.21,95.46,78.73,95.44,80.26z"/>
		<path class="st3" d="M72.34,64.44c0,2.54-0.06,5.07,0.02,7.61c0.11,3.58,0.03,7.15,0.08,10.73c0,0.22,0.09,0.5-0.17,0.63
			c-0.25,0.13-0.43-0.1-0.63-0.21c-1.82-1.01-3.64-2-5.46-3.01c-2.5-1.38-4.99-2.76-7.49-4.13c-1.06-0.59-2.12-1.18-3.2-1.74
			c-0.47-0.24-0.67-0.55-0.72-1.08c-0.38-3.85-0.33-7.72-0.26-11.58c0.04-2.5-0.09-4.99-0.06-7.49c0.03-2.43,0-4.85,0-7.28
			c0-0.64,0.08-0.69,0.63-0.38c3.45,1.91,6.89,3.82,10.34,5.73c2.09,1.15,4.17,2.31,6.27,3.42c0.49,0.26,0.65,0.59,0.65,1.11
			c-0.02,2.55-0.01,5.11-0.01,7.66C72.33,64.44,72.34,64.44,72.34,64.44z"/>
		<path class="st3" d="M78.12,70.8c0-3.89-0.02-7.41,0.01-10.93c0.01-1.15,0.07-2.3,0.07-3.45c0-0.3,0.12-0.48,0.4-0.63
			c3.04-1.66,6.07-3.34,9.09-5.01c2.58-1.43,5.16-2.86,7.75-4.29c0.51-0.28,0.58-0.22,0.65,0.36c0.2,1.67-0.07,3.33-0.17,4.99
			c-0.08,1.27,0.02,2.53,0.08,3.79c0.02,0.54,0.02,1.07-0.02,1.61c-0.05,0.84,0.08,1.69,0.06,2.53c-0.1,4.47-0.03,8.95-0.08,13.42
			c0,0.4-0.12,0.67-0.49,0.87c-2.59,1.41-5.18,2.83-7.77,4.25c-2.46,1.36-4.92,2.73-7.37,4.1c-0.56,0.31-1.11,0.65-1.68,0.96
			c-0.38,0.2-0.65,0.03-0.63-0.4C78.17,78.8,78.06,74.61,78.12,70.8z M82.64,69.15c0.35-0.39,0.71-0.75,0.48-1.3
			c-0.05-0.11-0.39-0.36-0.29-0.48c0.03-0.04,0.35,0.09,0.41,0.1c0.17,0.05,0.17,0.21,0.19,0.35c0.04,0.34,0.09,0.67,0.14,1.01
			c0.02,0.19,0.08,0.37,0.32,0.35c0.24-0.03,0.26-0.25,0.25-0.41c-0.02-0.27-0.11-0.53-0.14-0.79c-0.03-0.3-0.17-0.62,0.28-0.8
			c0.23-0.1,0.17-0.35-0.07-0.44c-0.2-0.07-0.37-0.14-0.37-0.39c0-0.4-0.01-0.79,0-1.18c0-0.17,0.03-0.34,0.28-0.25
			c0.21,0.07,0.4,0.08,0.47-0.18c0.06-0.24-0.05-0.42-0.24-0.56c-0.39-0.28-0.94,0.02-1.06,0.61c-0.09,0.47-0.2,0.95-0.08,1.44
			c0.05,0.2,0.13,0.47-0.12,0.59c-0.42,0.21-0.59,0.66-1.01,0.91c-0.44,0.26-0.28,0.94-0.49-0.21c-0.03-0.16-0.05-0.32-0.1-0.47
			c-0.22-0.65-0.78-1.03-1.33-0.93c-0.6,0.11-0.87,0.5-0.88,1.28c-0.01,1.17-0.03,2.34-0.03,3.5c0,0.65,0.22,0.78,0.84,0.55
			c0.67-0.25,0.98-0.81,1.29-1.38c0.17-0.3,0.33-0.45,0.66-0.2c0.23,0.18,0.5,0.18,0.77,0.07c0.25-0.1,0.59-0.16,0.56-0.49
			C83.32,69.08,82.94,69.28,82.64,69.15z M91.17,62.62c0.02,0.17,0.2,1.31,0.21,1.36c0.06,0.35,0.32,0.47,0.61,0.51
			c0.34,0.04,0.59-0.13,0.74-0.44c0.27-0.56,0.47-1.14,0.3-1.76c-0.08-0.29-0.14-0.6-0.55-0.63c-0.41-0.04-0.76,0.04-0.95,0.44
			c-0.14,0.31-0.25,0.53-0.71,0.49c-0.44-0.04-0.9-0.19-1-0.63c-0.04-0.18-0.1-0.32-0.29-0.32c-0.21,0-0.26,0.18-0.27,0.34
			c-0.01,0.25-0.09,0.37-0.36,0.44c-0.28,0.08-0.3,0.35-0.03,0.45c0.39,0.14,0.31,0.39,0.31,0.68c-0.01,0.68,0.04,1.36,0.06,2.04
			c0.01,0.18,0.13,0.26,0.28,0.27c0.16,0.01,0.19-0.13,0.23-0.25c0.05-0.14,0.02-0.28,0.01-0.42c-0.02-0.61-0.02-1.22-0.05-1.83
			c-0.02-0.45,0.37-0.42,0.6-0.44c0.35-0.02,0.22,0.3,0.19,0.48c-0.08,0.45-0.04,0.9-0.06,1.34c-0.01,0.24,0.06,0.47,0.32,0.48
			c0.28,0.01,0.31-0.26,0.33-0.47C91.17,64.46,91.05,63.01,91.17,62.62z M83.29,59.34c0.73-0.02,1,0.38,0.77,1
			c-0.2,0.53-0.59,0.9-1.07,1.17c-0.39,0.22-0.8,0.41-1.2,0.61c-0.21,0.1-0.49,0.2-0.37,0.49c0.12,0.31,0.39,0.16,0.61,0.09
			c0.22-0.07,0.44-0.16,0.64-0.26c0.85-0.42,1.62-0.93,2.01-1.85c0.23-0.54,0.12-1.07-0.22-1.52c-0.29-0.39-0.7-0.47-1.16-0.32
			c-0.08,0.03-0.18,0.02-0.27,0.02c-0.12,0-0.27,0.02-0.31-0.14c-0.03-0.12,0.07-0.19,0.15-0.26c0.45-0.39,0.92-0.74,1.47-0.97
			c0.2-0.09,0.41-0.23,0.24-0.49c-0.16-0.23-0.36-0.23-0.6-0.06c-0.33,0.24-0.69,0.45-1.03,0.68c-0.25,0.17-0.5,0.35-0.72,0.56
			c-0.26,0.26-0.44,0.61-0.28,0.98c0.16,0.38,0.56,0.33,0.89,0.34C83.04,59.41,83.22,59.35,83.29,59.34z M94.46,68.74
			c0.01,0.44-0.01,0.86-0.21,1.26c-0.15,0.3-0.33,0.26-0.47,0.02c-0.17-0.29-0.27-0.62-0.25-0.98c0.01-0.2,0.03-0.45-0.24-0.45
			c-0.26,0-0.35,0.23-0.34,0.46c0.02,0.54,0.09,1.07,0.43,1.53c0.18,0.25,0.39,0.41,0.73,0.32c0.34-0.1,0.52,0.03,0.48,0.41
			c-0.02,0.2-0.01,0.39-0.02,0.59c-0.01,0.23-0.07,0.44-0.31,0.52c-0.24,0.08-0.35-0.11-0.45-0.29c-0.09-0.14-0.21-0.27-0.4-0.18
			c-0.2,0.1-0.18,0.31-0.11,0.47c0.19,0.43,0.51,0.79,0.99,0.8c0.44,0.01,0.67-0.34,0.79-0.76c0.41-1.48,0-2.95-0.04-4.43
			c-0.01-0.19-0.18-0.26-0.36-0.24c-0.2,0.02-0.27,0.16-0.26,0.34C94.41,68.35,94.44,68.54,94.46,68.74z M83.44,75.1
			c0.01,0,0.02,0,0.03,0c0,0.27,0,0.54,0,0.81c0,0.12,0,0.31-0.15,0.3c-0.55-0.03-0.86,0.39-1.26,0.63
			c-0.12,0.07-0.24,0.21-0.39,0.11c-0.17-0.11-0.1-0.29-0.07-0.44c0.19-1.02-0.15-2.04,0.02-3.06c0.03-0.17-0.04-0.37-0.29-0.38
			c-0.27-0.01-0.32,0.18-0.34,0.39c-0.01,0.14-0.02,0.29-0.01,0.43c0.09,1.11,0.08,2.22-0.03,3.33c-0.02,0.16-0.02,0.33,0,0.48
			c0.04,0.38,0.27,0.49,0.59,0.28c0.22-0.15,0.41-0.37,0.65-0.46c0.58-0.23,0.86-1.05,1.67-0.87c0.12,0.03,0.24-0.15,0.25-0.31
			c0.05-0.68-0.09-1.36-0.12-2.04c-0.01-0.15-0.12-0.32-0.32-0.28c-0.15,0.03-0.24,0.14-0.24,0.31
			C83.44,74.6,83.44,74.85,83.44,75.1z M85.12,71.94C85.12,71.94,85.12,71.94,85.12,71.94c0.01-0.16,0.01-0.32,0-0.49
			c0-0.19,0.06-0.45-0.22-0.47c-0.29-0.02-0.34,0.25-0.35,0.46c-0.05,1.4,0.03,2.8,0.2,4.19c0.03,0.26,0.19,0.35,0.46,0.29
			c1.35-0.31,1.82-1.35,1.16-2.56c-0.17-0.31-0.41-0.51-0.78-0.45c-0.41,0.07-0.51-0.13-0.48-0.48
			C85.13,72.26,85.12,72.1,85.12,71.94z M85.93,58.36c-0.12-0.36-0.06-0.59-0.03-0.82c0.08-0.49,0.14-0.99,0.22-1.49
			c0.03-0.2,0.01-0.37-0.21-0.42c-0.24-0.06-0.31,0.1-0.34,0.31c-0.04,0.27-0.1,0.53-0.14,0.79c-0.21,1.22-0.43,2.43-0.39,3.67
			c0.01,0.21,0,0.49,0.29,0.5c0.32,0,0.3-0.29,0.33-0.52c0.03-0.26-0.15-0.63,0.11-0.74c0.23-0.1,0.31,0.32,0.51,0.46
			c0.13,0.09,0.23,0.25,0.41,0.09c0.15-0.13,0.18-0.3,0.04-0.43c-0.57-0.54-0.37-1.04,0.06-1.53c0.06-0.06,0.09-0.16,0.12-0.24
			c0.05-0.15,0.04-0.29-0.11-0.38c-0.15-0.09-0.27-0.04-0.37,0.1C86.29,57.91,86.14,58.1,85.93,58.36z M88.57,72.13
			c0.02,1.11,0.71,1.53,1.62,0.99c0.06-0.03,0.13-0.06,0.2-0.07c0.3-0.02,0.35-0.22,0.3-0.46c-0.11-0.56-0.23-1.12-0.37-1.68
			c-0.07-0.26-0.21-0.41-0.55-0.33C88.91,70.79,88.55,71.22,88.57,72.13z M85.73,66.32c0.02,0.33,0.05,0.78,0.09,1.22
			c0.01,0.18,0.08,0.32,0.29,0.32c0.2,0,0.29-0.14,0.29-0.32c0-0.23,0.03-0.48-0.02-0.7c-0.12-0.51,0.12-0.91,0.32-1.32
			c0.05-0.11,0.12-0.24,0.27-0.23c0.16,0.02,0.17,0.18,0.19,0.29c0.06,0.37,0.1,0.74,0.15,1.11c0.02,0.18,0.02,0.39,0.26,0.4
			c0.23,0,0.31-0.22,0.3-0.38c-0.03-0.67,0.01-1.36-0.37-1.97c-0.16-0.25-0.38-0.32-0.64-0.23C86.43,64.66,85.73,65.74,85.73,66.32z
			 M95.39,61.52c-0.01,0-0.01,0-0.02,0c0-0.11,0-0.22,0-0.32c-0.02-0.48-0.21-0.84-0.72-0.94c-0.26-0.05-1.26,0.58-1.27,0.83
			c-0.01,0.69,0.01,1.39,0.04,2.08c0.01,0.13,0.07,0.31,0.24,0.31c0.19,0,0.28-0.15,0.29-0.33c0.02-0.29,0.03-0.58,0.02-0.86
			c-0.02-0.35,0.09-0.67,0.23-0.99c0.07-0.16,0.15-0.37,0.37-0.32c0.23,0.05,0.21,0.27,0.2,0.44c-0.02,0.36-0.07,0.71-0.1,1.07
			c-0.01,0.18,0.1,0.33,0.27,0.34c0.19,0.02,0.28-0.14,0.31-0.31C95.31,62.2,95.35,61.86,95.39,61.52z M90.05,54.32
			c0,0,0.01,0,0.01,0c0-0.16,0.01-0.32,0-0.48c-0.02-0.16-0.06-0.33-0.27-0.35c-0.2-0.02-0.29,0.12-0.32,0.29
			c-0.03,0.12-0.06,0.24-0.07,0.37c-0.11,1.32-0.22,2.64-0.33,3.96c-0.02,0.23,0,0.49,0.25,0.53c0.29,0.05,0.38-0.21,0.41-0.46
			C89.84,56.89,89.95,55.6,90.05,54.32z M91.91,53.14c0.01-0.32,0.06-0.65-0.26-0.68c-0.34-0.04-0.3,0.33-0.38,0.55
			c-0.01,0.02-0.01,0.03-0.01,0.05c-0.12,1.35-0.25,2.7-0.37,4.06c-0.02,0.24-0.02,0.52,0.29,0.54c0.26,0.01,0.3-0.25,0.33-0.47
			C91.64,55.81,91.78,54.45,91.91,53.14z M92.17,68.8c-0.28,0.04-0.47,0.21-0.68,0.39c-0.64,0.57-0.77,1.27-0.52,2.06
			c0.08,0.27-0.06,0.79,0.44,0.68c0.39-0.09,0.15-0.52,0.15-0.79c-0.02-0.72,0.09-1.38,0.8-1.77c0.14-0.08,0.24-0.16,0.19-0.33
			C92.48,68.87,92.36,68.78,92.17,68.8z M86.7,72.56c0.12,0.63,0.11,1.29,0.3,1.91c0.05,0.17,0.11,0.31,0.32,0.29
			c0.21-0.02,0.26-0.2,0.25-0.36c-0.03-0.34-0.1-0.67-0.16-1.01c-0.11-0.6,0.04-0.92,0.59-1.2c0.14-0.07,0.27-0.14,0.24-0.31
			c-0.02-0.13-0.09-0.23-0.22-0.28C87.58,71.47,86.69,72.11,86.7,72.56z M87.45,58.71c0,0.11-0.01,0.21,0,0.32
			c0.01,0.25-0.11,0.62,0.3,0.61c0.35-0.01,0.34-0.35,0.36-0.62c0.04-0.59,0-1.18,0.12-1.76c0.04-0.22,0.01-0.47-0.26-0.51
			c-0.32-0.05-0.36,0.24-0.39,0.47C87.51,57.71,87.49,58.21,87.45,58.71z M88.08,64.43c-0.01,0-0.02,0-0.03,0
			c0.09,0.62,0.17,1.24,0.27,1.85c0.02,0.13,0.1,0.27,0.29,0.26c0.16-0.01,0.24-0.13,0.24-0.25c0-0.78-0.02-1.57-0.22-2.34
			c-0.03-0.12-0.13-0.22-0.28-0.2c-0.16,0.03-0.26,0.11-0.27,0.29C88.08,64.18,88.08,64.3,88.08,64.43z M85.35,67.94
			c-0.13-0.53-0.07-1.11-0.09-1.68c-0.01-0.16,0-0.37-0.21-0.37c-0.26-0.01-0.23,0.22-0.23,0.4c-0.01,0.57-0.01,1.15-0.01,1.72
			c0,0.21,0.02,0.43,0.29,0.42C85.4,68.42,85.32,68.16,85.35,67.94z M88.46,55.23c0.03-0.21-0.16-0.3-0.37-0.3
			c-0.26-0.01-0.41,0.16-0.37,0.42c0.02,0.19,0.06,0.42,0.33,0.42C88.35,55.75,88.45,55.55,88.46,55.23z M85.32,65.18
			c-0.01-0.24-0.13-0.34-0.31-0.35c-0.21-0.01-0.29,0.12-0.27,0.31c0.02,0.17,0.1,0.32,0.3,0.32
			C85.26,65.46,85.32,65.32,85.32,65.18z"/>
		<path class="st1" d="M68.53,10.01c0.67-0.24,1.24-0.32,1.8-0.37c0.66-0.06,1.33-0.02,1.99-0.01c0.25,0,0.51,0.05,0.7,0.23
			c0.35,0.35,0.64,0.22,0.91-0.1c0.38-0.45,0.71-0.95,1.15-1.35c0.22-0.2,0.45-0.52,0.74-0.45c0.35,0.09,0.35,0.5,0.43,0.81
			c0.03,0.12,0.03,0.25,0.05,0.37c0.07,0.52,0.31,0.7,0.84,0.61c1.45-0.24,2.89-0.18,4.33,0.1c0.1,0.02,0.21,0.04,0.28,0.18
			c-0.46,0.29-0.92,0.59-1.4,0.86c-0.33,0.19-0.5,0.51-0.66,0.82c-0.08,0.15-0.06,0.32,0.1,0.43c0.13,0.09,0.29,0.22,0.43,0.06
			c0.41-0.5,0.95-0.27,1.41-0.19c2.9,0.47,5.77,1.06,8.57,1.95c1.5,0.48,2.93,1.15,4.35,1.86c0.29,0.15,0.35,0.27,0.14,0.56
			c-0.68,0.96-1.4,1.9-2.21,2.76c-0.13,0.14-0.28,0.19-0.48,0.16c-1.55-0.26-3.1-0.21-4.64,0.13c-2.01,0.45-3.8,1.33-5.4,2.62
			c-1.52,1.23-2.67,2.74-3.49,4.5c-0.1,0.22-0.25,0.32-0.5,0.34c-1.84,0.14-3.69,0.18-5.53,0c-0.21-0.02-0.36-0.07-0.46-0.29
			c-0.78-1.84-2.04-3.33-3.55-4.59c-1.27-1.06-2.71-1.82-4.34-2.28c-1.26-0.35-2.53-0.58-3.84-0.6c-0.59-0.01-1.18,0.07-1.76,0.16
			c-0.27,0.04-0.44-0.02-0.62-0.21c-0.81-0.87-1.52-1.81-2.17-2.8c-0.2-0.3-0.01-0.38,0.19-0.48c1.12-0.57,2.26-1.08,3.42-1.55
			c1.54-0.61,3.15-0.94,4.74-1.33c1.72-0.42,3.46-0.74,5.21-1.01c0.29-0.05,0.51-0.06,0.74,0.16c0.19,0.18,0.43,0.17,0.63-0.01
			c0.22-0.19,0.11-0.37-0.02-0.56c-0.44-0.66-1.12-0.98-1.78-1.35C68.77,10.15,68.72,10.12,68.53,10.01z"/>
		<path class="st1" d="M77.71,39.57c0.41,0.54,0.73,0.98,1.08,1.4c0.79,0.95,1.7,1.77,2.68,2.53c1.17,0.9,2.49,1.48,3.84,2.01
			c0.58,0.23,1.21,0.33,1.82,0.48c0.1,0.03,0.23,0,0.27,0.13c0.04,0.13-0.08,0.18-0.17,0.24c-1.38,1.03-2.76,2.05-4.14,3.08
			c-1.09,0.81-2.17,1.63-3.26,2.44c-1.25,0.93-2.5,1.85-3.75,2.78c-0.09,0.06-0.2,0.1-0.26,0.18c-0.38,0.47-0.75,0.33-1.16,0.02
			c-1.15-0.88-2.32-1.74-3.48-2.61c-1.99-1.49-3.98-2.98-5.98-4.47c-0.64-0.48-1.29-0.97-1.94-1.45c-0.09-0.06-0.22-0.11-0.21-0.23
			c0.02-0.17,0.19-0.11,0.31-0.14c2.95-0.62,5.43-2.08,7.54-4.19c0.6-0.6,1.08-1.33,1.7-2.09c0,0.8,0.03,1.5-0.01,2.2
			c-0.08,1.56,0.07,3.08,0.79,4.49c0.35,0.7,0.79,1.36,1.22,2.01c0.33,0.51,0.9,0.54,1.23,0.02c0.7-1.14,1.48-2.25,1.75-3.59
			c0.27-1.36,0.32-2.74,0.15-4.12C77.68,40.37,77.71,40.04,77.71,39.57z"/>
		<path class="st4" d="M94.35,110.64c-0.5,0.01-1,0.05-1.5-0.1c-0.28-0.08-0.58-0.01-0.81,0.19c-0.97,0.86-2.19,1.02-3.4,1.19
			c-0.59,0.09-1.2,0.21-1.81,0.02c-0.14-0.05-0.35-0.04-0.48,0.02c-0.71,0.36-1.51,0.45-2.26,0.68c-1.49,0.46-3.62-0.4-3.84-2.53
			c-0.12-1.12-0.07-2.21,0.12-3.31c0.06-0.35,0.23-0.48,0.57-0.51c3.99-0.4,7.82-1.42,11.45-3.15c0.83-0.39,1.63-0.84,2.4-1.34
			c0.56-0.37,0.67-0.34,1.03,0.21c0.9,1.41,1.73,2.85,2.12,4.5c0.23,0.97,0.34,1.98-0.33,2.83c-0.73,0.93-1.73,1.37-2.93,1.3
			C94.56,110.64,94.46,110.64,94.35,110.64z"/>
		<path class="st4" d="M70.17,108.7c-0.04,0.96,0.02,1.94-0.55,2.8c-0.62,0.95-2.07,1.53-3.16,1.19c-0.78-0.24-1.62-0.3-2.36-0.71
			c-0.17-0.09-0.42-0.06-0.64-0.04c-1.65,0.16-3.2-0.14-4.67-0.9c-0.13-0.06-0.23-0.17-0.34-0.26c-0.24-0.23-0.54-0.33-0.85-0.25
			c-0.82,0.21-1.65,0.1-2.47,0.09c-1.28-0.02-2.52-1.09-2.78-2.34c-0.16-0.77-0.02-1.52,0.25-2.22c0.56-1.43,1.18-2.85,2.03-4.15
			c0.24-0.36,0.41-0.44,0.81-0.19c2.13,1.32,4.4,2.34,6.79,3.09c2.35,0.73,4.74,1.26,7.2,1.46c0.4,0.03,0.58,0.19,0.6,0.6
			C70.07,107.49,70.24,108.08,70.17,108.7z"/>
		<path class="st0" d="M61.27,46.29c-0.49-0.35-0.99-0.7-1.49-1.04c-1.18-0.81-2.37-1.54-3.73-2.07c-3.23-1.26-5.47-3.63-6.87-6.79
			c-0.86-1.93-1.26-3.96-1.13-6.09c0.09-1.41,0.84-2.53,1.51-3.69c1.05-1.81,2.36-3.38,4.11-4.56c0.32-0.21,0.51-0.22,0.77,0.06
			c0.85,0.93,1.67,1.88,2.61,2.72c0.29,0.25,0.08,0.33-0.13,0.44c-2.82,1.43-4.45,3.75-4.98,6.82c-0.72,4.17,1.58,8.33,5.47,10.01
			c3.92,1.69,8.54,0.49,11.08-2.9c1.64-2.19,2.24-4.65,1.74-7.34c-0.1-0.54,0.05-0.61,0.52-0.52c0.33,0.06,0.68,0.09,1.02,0.07
			c0.51-0.03,0.64,0.24,0.68,0.67c0.11,1.19-0.17,2.34-0.56,3.44c-1.44,4.04-4.12,6.84-8.28,8.13c-0.83,0.26-1.68,0.37-2.55,0.44
			c-0.64,0.06-1.21-0.07-1.68-0.54c-0.13-0.12-0.28-0.23-0.44-0.3c-0.27-0.13-0.44,0.08-0.59,0.25c-0.15,0.16-0.05,0.29,0.1,0.39
			c1.02,0.68,1.89,1.56,2.94,2.21C61.44,46.21,61.35,46.24,61.27,46.29z"/>
		<path class="st0" d="M88.47,46.61c0.28-0.51,0.84-0.68,1.26-1.01c0.72-0.57,1.47-1.1,2.2-1.64c0.17-0.13,0.4-0.25,0.17-0.5
			c-0.17-0.19-0.37-0.36-0.65-0.17c-0.02,0.01-0.03,0.02-0.04,0.03c-0.9,0.97-2.04,0.85-3.16,0.65c-3.89-0.67-6.8-2.74-8.74-6.18
			c-0.96-1.7-1.61-3.49-1.59-5.47c0.01-0.8,0.08-0.86,0.84-0.92c0.46-0.04,1.1-0.24,1.34-0.02c0.27,0.24-0.05,0.86-0.1,1.31
			c-0.46,3.93,2.03,8.04,5.73,9.47c3.46,1.33,6.7,0.87,9.52-1.48c3.47-2.89,4.17-7.52,2.33-11.25c-0.92-1.86-2.29-3.29-4.18-4.19
			c-0.24-0.11-0.31-0.22-0.08-0.42c0.84-0.74,1.56-1.58,2.33-2.39c0.52-0.55,0.79-0.56,1.39-0.13c1.96,1.36,3.18,3.31,4.37,5.32
			c1.43,2.42,1.06,4.9,0.3,7.35c-1.22,3.89-3.68,6.78-7.53,8.26c-1.63,0.63-2.9,1.75-4.36,2.62c-0.44,0.26-0.86,0.55-1.29,0.83
			C88.52,46.66,88.49,46.64,88.47,46.61z"/>
		<path class="st3" d="M77.38,62.29c0,1.69,0.04,3.38-0.01,5.07c-0.16,5.25-0.05,10.49-0.09,15.74c-0.01,0.67-0.11,0.78-0.8,0.78
			c-0.84,0-1.69-0.01-2.54,0.01c-0.51,0.01-0.71-0.22-0.71-0.71c0.01-1.69,0.03-3.38-0.01-5.07c-0.15-6.92-0.06-13.84-0.1-20.76
			c0-0.82,0-0.8,0.8-0.94c1.03-0.18,2.07-0.04,3.1-0.02c0.35,0,0.35,0.39,0.35,0.68c0,1.74,0,3.49,0,5.23
			C77.39,62.29,77.38,62.29,77.38,62.29z"/>
		<path class="st2" d="M61.1,42.05c-2.75-0.09-5-1.15-6.71-3.36c-1.23-1.59-1.81-3.37-1.75-5.35c0.08-2.66,1.23-4.81,3.31-6.46
			c0.49-0.39,1.04-0.7,1.59-1c0.32-0.17,0.6-0.15,0.89,0.1c0.56,0.5,1.18,0.93,1.82,1.34c0.12,0.08,0.29,0.15,0.27,0.31
			c-0.03,0.2-0.23,0.13-0.36,0.15c-2.62,0.56-4.46,2.42-4.91,4.95c-0.49,2.8,0.87,5.41,3.47,6.63c3.75,1.77,8.2-0.75,8.62-4.87
			c0.12-1.15-0.05-2.25-0.58-3.28c-0.05-0.1-0.1-0.19-0.14-0.29c-0.05-0.13-0.12-0.28-0.01-0.41c0.11-0.13,0.24-0.01,0.35,0.02
			c0.66,0.16,1.31,0.37,1.99,0.47c0.28,0.04,0.41,0.23,0.46,0.52c0.64,3.28-0.12,6.11-2.66,8.37C65.15,41.32,63.28,42.07,61.1,42.05
			z"/>
		<path class="st2" d="M97.71,33.36c0.04,2.54-0.75,4.53-2.35,6.12c-1.63,1.62-3.61,2.58-5.97,2.55c-3.67-0.04-6.3-1.75-7.88-5.02
			c-0.81-1.68-0.88-3.49-0.56-5.33c0.08-0.44,0.34-0.63,0.76-0.71c0.56-0.11,1.12-0.25,1.68-0.39c0.14-0.03,0.29-0.12,0.4,0
			c0.12,0.14-0.02,0.27-0.09,0.39c-0.81,1.51-0.91,3.06-0.42,4.69c0.5,1.64,1.55,2.83,3.04,3.58c1.95,0.98,3.97,1,5.85-0.16
			c3.12-1.93,3.93-5.65,2.1-8.55c-0.96-1.53-2.35-2.37-4.06-2.75c-0.11-0.03-0.28,0.02-0.31-0.14c-0.03-0.15,0.11-0.21,0.21-0.29
			c0.63-0.47,1.28-0.92,1.9-1.41c0.27-0.21,0.53-0.23,0.8-0.09c2.14,1.13,3.76,2.73,4.51,5.09C97.61,31.81,97.78,32.69,97.71,33.36z
			"/>
		<path class="st1" d="M54.32,45.2c-0.63,0.09-0.77,0.27-0.8,0.97c-0.05,1.22,0.1,2.44,0.1,3.66c0,0.65,0,1.29,0,1.94
			c0,0.1,0.04,0.23-0.07,0.3c-0.12,0.08-0.19-0.04-0.27-0.1c-2.15-1.59-3.85-3.56-5.22-5.85c-0.87-1.45-1.57-2.98-2.09-4.58
			c-0.56-1.7-0.98-3.44-1.2-5.22c-0.17-1.37-0.25-2.75-0.2-4.13c0.05-1.23,0.22-2.45,0.44-3.67c0.04-0.23,0.08-0.37,0.41-0.15
			c0.56,0.37,0.6,0.84,0.53,1.4c-0.23,1.85-0.09,3.68,0.38,5.48c0.61,2.35,1.72,4.44,3.35,6.23c1.08,1.18,2.32,2.21,3.75,2.98
			c0.36,0.19,0.7,0.42,1.11,0.5C54.47,45.05,54.39,45.12,54.32,45.2z"/>
		<path class="st1" d="M95.89,44.95c0.76-0.2,1.4-0.64,2.04-1.06c1.45-0.94,2.68-2.15,3.72-3.53c1.43-1.9,2.29-4.07,2.7-6.41
			c0.26-1.5,0.28-3.03,0.1-4.55c-0.05-0.44,0.16-0.71,0.45-0.97c0.31-0.28,0.46-0.11,0.51,0.19c0.13,0.85,0.24,1.7,0.35,2.55
			c0.28,2.19,0.04,4.37-0.35,6.52c-0.52,2.88-1.46,5.64-2.94,8.2c-0.92,1.59-2,3.05-3.31,4.33c-0.56,0.55-1.19,1.03-1.8,1.53
			c-0.11,0.09-0.2,0.32-0.39,0.2c-0.14-0.1-0.06-0.3-0.07-0.46c-0.06-1.8,0.1-3.59,0.1-5.38c0-0.65-0.25-0.93-0.86-0.99
			C96.06,45.07,95.97,45.01,95.89,44.95z"/>
		<path class="st4" d="M73.49,41.28c0-1.29,0.09-2.03,0.11-3.32c0.01-0.44,0.26-0.81,0.41-1.22c0.21-0.59,0.45-1.17,0.55-1.8
			c0.06-0.34,0.25-0.59,0.59-0.61c0.34-0.02,0.58,0.21,0.67,0.53c0.43,1.65,1.14,3.21,1.09,5c-0.05,1.55,0.19,3.12-0.15,4.66
			c-0.21,1-0.7,1.87-1.28,2.7c-0.28,0.41-0.44,0.22-0.62-0.05c-0.9-1.4-1.5-2.89-1.41-4.6c0.01-0.25,0-0.5,0-0.76
			C73.45,41.76,73.49,41.36,73.49,41.28z"/>
		<path class="st0" d="M60.54,20.1c4.52,0.2,7.96,2.23,10.24,6.17c0.07,0.12,0.21,0.25,0.1,0.38c-0.11,0.12-0.27,0.02-0.41-0.01
			c-4.34-0.97-8.03-3.13-11.26-6.11c-0.1-0.09-0.28-0.17-0.19-0.34c0.06-0.13,0.23-0.08,0.34-0.08
			C59.75,20.09,60.14,20.1,60.54,20.1z"/>
		<path class="st0" d="M91.5,20.15c-3.4,3.42-7.63,5.03-12.04,6.5C81.23,22.84,85.84,19.52,91.5,20.15z"/>
		<path class="st1" d="M53.42,20.92c0.01,0.23-0.15,0.35-0.32,0.46c-1.28,0.82-2.36,1.86-3.23,3.1c-0.47,0.67-0.98,1.32-1.31,2.08
			c-0.19,0.44-0.37,0.47-0.73,0.15c-0.42-0.38-0.89-0.72-1.35-1.06c-0.19-0.14-0.25-0.28-0.15-0.5c0.67-1.53,1.54-2.94,2.61-4.22
			c0.71-0.86,1.47-1.65,2.38-2.31c0.37-0.26,0.55-0.31,0.81,0.15c0.34,0.62,0.65,1.27,1.16,1.79
			C53.39,20.67,53.42,20.79,53.42,20.92z"/>
		<path class="st1" d="M104.12,25.34c-0.03,0.19-0.16,0.27-0.27,0.35c-0.49,0.37-1.01,0.68-1.43,1.13c-0.22,0.24-0.34,0.2-0.5-0.1
			c-0.91-1.68-2.03-3.2-3.46-4.47c-0.4-0.36-0.85-0.66-1.29-0.96c-0.27-0.18-0.33-0.36-0.13-0.61c0.53-0.66,0.94-1.39,1.37-2.11
			c0.15-0.26,0.28-0.17,0.47-0.05c0.95,0.61,1.7,1.43,2.42,2.26c1.11,1.29,2.05,2.7,2.7,4.29
			C104.04,25.17,104.09,25.27,104.12,25.34z"/>
		<path class="st5" d="M55.93,44.36c-0.92,0.21-1.63-0.33-2.34-0.74c-2.23-1.27-3.91-3.07-5.16-5.31c-1.55-2.77-2-5.71-1.63-8.82
			c0.11-0.96-0.92-2.13-1.94-2.17c-0.19-0.01-0.42,0.09-0.54-0.12c-0.13-0.24,0.15-0.33,0.23-0.49c0.23-0.44,0.49-0.88,1.11-0.66
			c0.27,0.09,0.48,0.31,0.71,0.47c0.52,0.35,0.98,0.78,1.47,1.17c0.17,0.13,0.22,0.26,0.12,0.46c-0.72,1.35-0.66,2.81-0.53,4.25
			c0.14,1.61,0.59,3.16,1.27,4.64c0.78,1.69,1.92,3.11,3.24,4.4c0.92,0.89,2.03,1.49,3.12,2.14c0.34,0.21,0.83,0.13,1.07,0.55
			C56.05,44.2,55.99,44.28,55.93,44.36z"/>
		<path class="st5" d="M94.29,44.07c0.51-0.4,1.14-0.58,1.7-0.89c1.95-1.06,3.46-2.57,4.7-4.38c1.28-1.86,1.94-3.96,2.24-6.18
			c0.21-1.54,0.23-3.07-0.5-4.51c-0.11-0.22,0.01-0.38,0.18-0.51c0.65-0.5,1.3-1.01,1.97-1.49c0.33-0.24,0.81-0.12,1.03,0.22
			c0.02,0.03,0.03,0.07,0.04,0.1c0.1,0.27,0.47,0.47,0.38,0.73c-0.11,0.33-0.51,0.09-0.77,0.17c-0.75,0.21-1.84,1.22-1.67,2.31
			c0.33,2.12,0.08,4.22-0.59,6.26c-0.54,1.65-1.35,3.15-2.45,4.5c-1.4,1.7-3.1,3.01-5.11,3.92c-0.29,0.13-0.6,0.02-0.91,0.05
			C94.53,44.22,94.38,44.17,94.29,44.07z"/>
		<path class="st5" d="M88.11,45.26c-1.13-0.02-2.19-0.36-3.21-0.8c-1.16-0.5-2.29-1.08-3.28-1.89c-1.87-1.53-3.38-3.33-4.29-5.6
			c-0.23-0.58-0.45-1.17-0.63-1.77c-0.07-0.26-0.36-0.62,0.02-0.72c0.26-0.07,0.73,0.06,0.83,0.5c0.12,0.49,0.34,0.94,0.49,1.42
			c0.5,1.57,1.39,2.94,2.45,4.12c1.5,1.68,3.34,2.98,5.57,3.64c0.88,0.26,1.76,0.49,2.66,0.6c0.15,0.02,0.3,0.02,0.29,0.23
			c-0.01,0.18-0.13,0.25-0.29,0.25C88.54,45.27,88.33,45.26,88.11,45.26z"/>
		<path class="st5" d="M62.37,45.28c-0.29-0.01-0.51-0.02-0.72-0.03c-0.17-0.01-0.27-0.11-0.26-0.28c0.01-0.17,0.14-0.18,0.27-0.19
			c1.4-0.14,2.77-0.5,4.02-1.11c1.35-0.67,2.62-1.5,3.69-2.61c1.62-1.68,2.74-3.64,3.38-5.88c0.12-0.43,0.46-0.61,0.8-0.7
			c0.4-0.11,0.33,0.3,0.25,0.46c-0.19,0.39-0.25,0.82-0.39,1.22c-0.83,2.34-2.19,4.3-4.07,5.92c-1.81,1.56-3.86,2.6-6.19,3.11
			C62.87,45.24,62.58,45.26,62.37,45.28z"/>
		<path class="st0" d="M95.89,44.95c0.09,0.06,0.17,0.11,0.26,0.17c-0.29,0.33-0.71,0.46-1.08,0.67c-2.66,1.48-5.32,2.95-7.98,4.42
			c0-0.08,0-0.15,0-0.23c2.58-1.61,5.17-3.2,7.74-4.83C95.18,44.93,95.44,44.57,95.89,44.95z"/>
		<path class="st0" d="M54.32,45.2c0.08-0.08,0.15-0.16,0.23-0.23c0.14-0.08,0.28-0.16,0.42-0.23c0.09-0.05,0.19-0.12,0.29-0.02
			c0.91,0.98,2.14,1.47,3.22,2.19c1.5,1,3.04,1.93,4.56,2.89c0.04,0.02,0.06,0.08,0.09,0.12c-0.18,0.14-0.32,0.01-0.44-0.06
			c-2.27-1.37-4.64-2.58-6.94-3.89C55.28,45.7,54.8,45.46,54.32,45.2z"/>
		<path class="st0" d="M55.93,44.36c0.06-0.08,0.13-0.16,0.19-0.23c0.38-0.08,0.66,0,1.01,0.26c1.55,1.15,3.13,2.27,4.75,3.32
			c0.76,0.49,1.41,1.13,2.23,1.51c0.02,0.11-0.05,0.15-0.13,0.18c-2.43-1.52-4.85-3.05-7.28-4.57
			C56.45,44.67,56.19,44.52,55.93,44.36z"/>
		<path class="st5" d="M73.14,33.35c0.02-0.37,0.19-0.59,0.58-0.72c1.02-0.35,2.02-0.34,3.02,0.05c0.28,0.11,0.6,0.63,0.51,0.88
			c-0.06,0.17-0.18,0.14-0.3,0.09c-0.89-0.43-1.82-0.48-2.77-0.27c-0.25,0.05-0.5,0.06-0.7,0.23c-0.09,0.07-0.19,0.12-0.29,0.05
			C73.08,33.58,73.11,33.46,73.14,33.35z"/>
		<path class="st0" d="M61.27,46.29c0.08-0.05,0.17-0.08,0.14-0.2c0.74,0.3,1.3,0.87,1.93,1.33c0.68,0.49,1.35,1,2.03,1.49
			c0.13,0.09,0.27,0.17,0.33,0.41c-0.64-0.25-1.11-0.67-1.62-1.01c-0.88-0.58-1.74-1.19-2.61-1.79
			C61.38,46.43,61.35,46.41,61.27,46.29z"/>
		<path class="st1" d="M75.18,31.31c0.58,0.02,1.14,0,1.69,0.12c0.13,0.03,0.27,0.07,0.24,0.23c-0.03,0.15-0.15,0.15-0.3,0.13
			c-0.54-0.1-1.05-0.31-1.62-0.27c-0.5,0.03-1,0.01-1.46,0.26c-0.14,0.08-0.3,0.11-0.45-0.01c-0.06-0.05-0.08-0.12-0.04-0.19
			c0.08-0.15,0.24-0.12,0.38-0.15C74.14,31.3,74.68,31.34,75.18,31.31z"/>
		<path class="st0" d="M63.98,49.4c0.08-0.04,0.15-0.08,0.13-0.18c0.72,0.28,1.3,0.79,1.94,1.21c0.49,0.32,1.02,0.59,1.4,1.06
			l-0.01,0.01c-0.37-0.01-0.63-0.26-0.91-0.43C65.67,50.53,64.83,49.96,63.98,49.4z"/>
		<path class="st0" d="M87.08,49.98c0,0.08,0,0.15,0,0.23c-0.74,0.53-1.5,1.01-2.37,1.28l0,0C85.43,50.88,86.21,50.35,87.08,49.98z"
			/>
		<path class="st0" d="M85.24,50.17c-0.66,0.62-1.47,0.99-2.26,1.41c0.66-0.55,1.28-1.15,2.09-1.47
			C85.58,49.76,85.18,50.15,85.24,50.17z"/>
		<path class="st0" d="M86.51,47.99c0.54-0.55,1.14-1,1.82-1.36c0.06,0.05,0.11,0.11,0.17,0.16c-0.59,0.51-1.19,0.98-1.92,1.29
			C86.56,48.05,86.53,48.02,86.51,47.99z"/>
		<path class="st0" d="M63.57,50.08c0.57,0.26,1.11,0.56,1.57,1.01c-0.6-0.12-1.15-0.37-1.59-0.81
			C63.49,50.21,63.54,50.15,63.57,50.08z"/>
		<path class="st0" d="M86.58,48.08c-0.43,0.51-1.03,0.76-1.6,1.07c0.51-0.39,0.88-0.96,1.53-1.16
			C86.53,48.02,86.56,48.05,86.58,48.08z"/>
		<path class="st0" d="M63.57,50.08c-0.02,0.06-0.08,0.13-0.02,0.2c-0.11-0.08-0.22-0.15-0.35-0.25
			C63.37,49.92,63.46,50.08,63.57,50.08z"/>
		<path class="st0" d="M65.47,51.24c-0.02,0.04-0.03,0.07-0.04,0.1c-0.04-0.02-0.08-0.03-0.11-0.05c-0.01,0,0.02-0.07,0.03-0.07
			C65.38,51.21,65.42,51.22,65.47,51.24z"/>
		<path class="st0" d="M84.71,51.49c-0.04,0.03-0.07,0.05-0.11,0.08C84.57,51.45,84.68,51.52,84.71,51.49L84.71,51.49z"/>
		<path class="st1" d="M96.91,60.99c-0.02-0.04-0.05-0.08-0.07-0.12c0,0,0.03-0.02,0.04-0.03C96.88,60.89,96.9,60.94,96.91,60.99
			C96.91,60.99,96.91,60.99,96.91,60.99z"/>
		<path class="st0" d="M82.66,51.78c-0.01-0.01-0.02-0.02-0.04-0.03c0.01-0.01,0.03-0.02,0.04-0.02c0.01,0,0.02,0.02,0.04,0.03
			C82.69,51.77,82.67,51.78,82.66,51.78z"/>
		<path class="st0" d="M65.7,51.41c0.01,0.01,0.03,0.01,0.04,0.02c-0.02,0.01-0.04,0.03-0.06,0.04c-0.01-0.01-0.02-0.02-0.02-0.03
			C65.68,51.43,65.69,51.42,65.7,51.41z"/>
		<path class="st0" d="M88.5,46.79c-0.06-0.05-0.11-0.11-0.17-0.16c0.05-0.01,0.1-0.01,0.14-0.02c0.02,0.02,0.05,0.04,0.07,0.06
			C88.53,46.72,88.51,46.75,88.5,46.79z"/>
		<path d="M38.5,26.98c-0.77-0.09-1.58-0.37-2.41-0.6c-2.99-0.83-5.89-1.92-8.77-3.08c-3.23-1.3-6.36-2.79-9.46-4.36
			c-2.27-1.15-4.46-2.42-6.64-3.73c-2.27-1.36-4.45-2.87-6.57-4.46c-0.25-0.19-0.5-0.45-0.24-0.77c0.24-0.3,0.52-0.15,0.8,0.04
			c1.54,1.1,3.09,2.18,4.67,3.23c3.25,2.15,6.67,3.99,10.14,5.74c3.94,1.99,7.99,3.71,12.15,5.18c2.11,0.75,4.26,1.38,6.43,1.93
			c0.33,0.08,0.45,0.28,0.42,0.58C39,26.93,38.82,27.03,38.5,26.98z"/>
		<path d="M37.18,33.59c-1.87-0.15-3.73-0.41-5.59-0.71c-2.9-0.47-5.75-1.17-8.58-1.92c-1.76-0.47-3.51-1.02-5.25-1.58
			c-1.53-0.5-3.05-1.06-4.55-1.63c-2.36-0.9-4.7-1.84-6.95-3.01c-0.57-0.29-1.15-0.58-1.72-0.87c-0.3-0.15-0.47-0.39-0.29-0.7
			c0.18-0.3,0.48-0.18,0.72-0.05c1.6,0.84,3.23,1.61,4.89,2.34c1.82,0.8,3.68,1.51,5.56,2.19c3.76,1.35,7.59,2.49,11.48,3.4
			c2.66,0.62,5.35,1.13,8.07,1.46c0.9,0.11,1.81,0.21,2.72,0.3c0.29,0.03,0.51,0.1,0.49,0.43c-0.02,0.33-0.28,0.37-0.55,0.35
			C37.47,33.58,37.32,33.59,37.18,33.59z"/>
		<path d="M25.41,39.85c-1.21,0.07-2.93-0.06-4.65-0.15c-3.11-0.15-6.21-0.39-9.29-0.93c-0.69-0.12-1.38-0.22-2.06-0.33
			c-0.05-0.01-0.11-0.01-0.16-0.03c-0.31-0.09-0.55-0.29-0.47-0.62c0.07-0.31,0.39-0.35,0.66-0.31c0.9,0.14,1.8,0.31,2.7,0.45
			c1.11,0.17,2.23,0.32,3.35,0.41c1.46,0.11,2.92,0.27,4.38,0.4c0.07,0.01,0.14,0.01,0.21,0.01c2.77,0.11,5.53,0.19,8.3,0.09
			c2.04-0.08,4.07-0.16,6.1-0.47c1.22-0.19,2.44-0.35,3.64-0.65c0.38-0.09,0.69,0.02,0.78,0.37c0.09,0.37-0.27,0.48-0.54,0.54
			c-1.61,0.35-3.22,0.63-4.87,0.79C30.97,39.67,28.45,39.82,25.41,39.85z"/>
		<path d="M49.1,55.31c-0.2,0.83-0.47,1.66-0.73,2.5c-0.82,2.62-1.89,5.14-3.1,7.58c-0.95,1.93-1.95,3.84-3.05,5.7
			c-1.3,2.2-2.64,4.38-4.14,6.45c-0.3,0.42-0.6,0.84-0.88,1.28c-0.19,0.29-0.48,0.41-0.73,0.25c-0.29-0.18-0.21-0.49-0.01-0.75
			c1.19-1.57,2.23-3.24,3.34-4.87c0.43-0.63,0.81-1.31,1.19-1.98c1.63-2.86,3.19-5.76,4.52-8.78c0.62-1.4,1.22-2.82,1.75-4.25
			c0.39-1.05,0.73-2.13,0.96-3.23c0.06-0.29,0.22-0.51,0.55-0.47C49.08,54.78,49.07,55.05,49.1,55.31z"/>
		<path d="M14.98,51.42c-0.36-0.09-0.83,0.15-0.84-0.37c-0.01-0.43,0.39-0.5,0.75-0.53c1.77-0.14,3.51-0.48,5.25-0.8
			c3.43-0.64,6.81-1.53,10.14-2.59c2.93-0.94,5.81-2,8.55-3.42c0.33-0.17,0.64-0.39,0.97-0.55c0.24-0.12,0.53-0.21,0.7,0.12
			c0.17,0.34-0.03,0.5-0.32,0.67c-2.38,1.33-4.91,2.32-7.46,3.26c-4.19,1.54-8.52,2.58-12.88,3.49
			C18.22,51.04,16.55,51.19,14.98,51.42z"/>
		<path d="M45.52,51.31c-0.17,0.36-0.34,0.81-0.59,1.22c-1.13,1.93-2.38,3.78-3.7,5.59c-1.52,2.09-3.21,4.02-4.89,5.97
			c-1.76,2.04-3.72,3.87-5.66,5.73c-0.3,0.28-0.62,0.54-0.95,0.78c-0.21,0.15-0.46,0.15-0.63-0.05c-0.18-0.21-0.03-0.41,0.13-0.56
			c0.88-0.82,1.78-1.61,2.65-2.44c2.11-2.03,4.1-4.17,5.96-6.43c1.24-1.5,2.43-3.05,3.56-4.64c1.23-1.73,2.34-3.51,3.31-5.39
			c0.11-0.22,0.23-0.44,0.52-0.34C45.43,50.83,45.54,51,45.52,51.31z"/>
		<path d="M21.4,60.12c-0.25,0.01-0.39-0.04-0.45-0.19c-0.05-0.12-0.04-0.25,0.05-0.36c0.1-0.13,0.21-0.24,0.38-0.29
			c2.65-0.91,5.17-2.11,7.67-3.35c2.97-1.48,5.82-3.15,8.58-4.97c1.62-1.08,3.22-2.2,4.62-3.57c0.08-0.07,0.17-0.14,0.25-0.2
			c0.17-0.12,0.34-0.31,0.55-0.05c0.18,0.24,0.1,0.43-0.09,0.61c-0.36,0.35-0.69,0.74-1.08,1.05c-1.11,0.87-2.2,1.76-3.37,2.56
			c-2.48,1.68-5.05,3.19-7.69,4.61c-1.57,0.85-3.2,1.61-4.83,2.34c-1.28,0.57-2.56,1.12-3.87,1.59
			C21.86,59.99,21.58,60.06,21.4,60.12z"/>
		<path d="M111.84,27.03c-0.29,0-0.48-0.12-0.52-0.39c-0.04-0.29,0.12-0.44,0.42-0.51c2.63-0.64,5.21-1.46,7.75-2.38
			c2.7-0.98,5.33-2.11,7.93-3.31c3.57-1.65,7.04-3.48,10.42-5.48c2.54-1.51,4.97-3.19,7.36-4.91c0.26-0.19,0.53-0.34,0.74-0.05
			c0.2,0.27,0.09,0.57-0.2,0.79c-1.88,1.4-3.81,2.74-5.81,3.96c-2.78,1.7-5.61,3.3-8.53,4.77c-1.94,0.97-3.91,1.88-5.87,2.8
			c-1.65,0.77-3.38,1.39-5.09,2.04c-2.21,0.85-4.46,1.58-6.74,2.21C113.09,26.73,112.47,26.87,111.84,27.03z"/>
		<path d="M113.21,33.59c-0.16,0-0.32-0.01-0.49,0c-0.25,0.02-0.44-0.07-0.47-0.33c-0.03-0.29,0.17-0.41,0.43-0.44
			c0.57-0.07,1.13-0.14,1.7-0.21c1.83-0.19,3.65-0.46,5.46-0.82c1.58-0.31,3.16-0.61,4.72-1c3.12-0.79,6.21-1.69,9.25-2.75
			c2.12-0.74,4.22-1.5,6.28-2.38c1.76-0.75,3.51-1.56,5.2-2.46c0.29-0.15,0.66-0.42,0.88,0.01c0.22,0.43-0.21,0.6-0.5,0.75
			c-1.67,0.86-3.36,1.67-5.09,2.42c-1.79,0.78-3.62,1.46-5.45,2.13c-2.06,0.76-4.17,1.41-6.28,2.02c-2.22,0.64-4.45,1.21-6.71,1.69
			c-2.31,0.49-4.63,0.92-6.98,1.15C114.53,33.44,113.88,33.59,113.21,33.59z"/>
		<path d="M124.38,39.82c-1.82,0.12-3.86-0.11-5.9-0.24c-1.94-0.12-3.89-0.32-5.78-0.8c-0.27-0.07-0.57,0.01-0.83-0.19
			c-0.23-0.17-0.48-0.31-0.35-0.63c0.13-0.31,0.4-0.31,0.69-0.23c0.83,0.22,1.68,0.35,2.52,0.5c1.18,0.21,2.38,0.3,3.57,0.41
			c2.99,0.28,5.99,0.3,8.98,0.2c2.41-0.08,4.82-0.19,7.23-0.47c1.83-0.21,3.65-0.44,5.48-0.7c0.32-0.04,0.63-0.14,0.95-0.2
			c0.29-0.05,0.55,0.01,0.64,0.34c0.08,0.34-0.11,0.49-0.41,0.56c-1.13,0.28-2.28,0.44-3.43,0.57c-2.49,0.3-4.97,0.61-7.48,0.69
			C128.37,39.71,126.49,39.85,124.38,39.82z"/>
		<path d="M101.32,55.41c0.03-0.31-0.08-0.64,0.33-0.67c0.38-0.02,0.46,0.27,0.53,0.55c0.52,2.05,1.18,4.05,2.03,5.98
			c1.28,2.89,2.64,5.75,4.2,8.5c0.92,1.61,1.85,3.21,2.86,4.76c0.76,1.16,1.52,2.33,2.4,3.41c0.09,0.11,0.17,0.23,0.25,0.35
			c0.18,0.26,0.25,0.56-0.04,0.76c-0.26,0.18-0.52,0.02-0.69-0.22c-0.23-0.3-0.45-0.6-0.67-0.91c-2.02-2.85-3.88-5.8-5.53-8.87
			c-0.88-1.64-1.7-3.3-2.49-4.98c-1.25-2.67-2.34-5.4-3.12-8.25C101.36,55.67,101.34,55.51,101.32,55.41z"/>
		<path d="M135.55,51.4c-1.54-0.14-3.02-0.37-4.5-0.64c-2.5-0.45-4.98-1.01-7.43-1.69c-2.29-0.64-4.57-1.32-6.8-2.17
			c-2.22-0.85-4.43-1.71-6.5-2.9c-0.08-0.04-0.17-0.07-0.23-0.14c-0.16-0.16-0.4-0.32-0.25-0.58c0.15-0.26,0.41-0.28,0.66-0.15
			c0.67,0.34,1.32,0.72,2,1.04c2.54,1.2,5.18,2.17,7.86,3.02c1.9,0.6,3.81,1.14,5.73,1.61c2.06,0.51,4.14,0.97,6.25,1.28
			c1.08,0.16,2.16,0.29,3.24,0.47c0.29,0.05,0.73,0.05,0.69,0.51C136.24,51.59,135.77,51.29,135.55,51.4z"/>
		<path d="M120.94,70.7c-0.4-0.02-0.63-0.34-0.87-0.57c-1.63-1.51-3.26-3.01-4.76-4.64c-1.6-1.73-3.16-3.51-4.63-5.36
			c-1.6-2.02-3.11-4.1-4.43-6.32c-0.43-0.72-0.82-1.46-1.23-2.19c-0.06-0.11-0.1-0.23-0.12-0.35c-0.02-0.19-0.05-0.41,0.2-0.5
			c0.22-0.08,0.4,0.03,0.5,0.22c0.33,0.59,0.62,1.2,0.96,1.79c1.55,2.65,3.35,5.11,5.29,7.48c1.62,1.99,3.29,3.92,5.1,5.74
			c0.9,0.9,1.75,1.84,2.74,2.65c0.48,0.4,0.89,0.87,1.38,1.27c0.15,0.12,0.37,0.32,0.27,0.59C121.27,70.68,121.12,70.72,120.94,70.7
			z"/>
		<path d="M128.88,60.12c-0.56-0.21-1.22-0.44-1.86-0.7c-3.81-1.56-7.5-3.38-11.05-5.48c-1.89-1.11-3.7-2.33-5.49-3.57
			c-1.1-0.76-2.12-1.65-3.09-2.58c-0.2-0.19-0.33-0.39-0.1-0.65c0.22-0.26,0.42-0.11,0.6,0.04c0.46,0.4,0.92,0.8,1.38,1.2
			c1.24,1.08,2.62,1.98,3.98,2.9c1.42,0.97,2.9,1.83,4.38,2.7c1.71,1.01,3.5,1.9,5.29,2.76c1.97,0.95,3.98,1.81,6.03,2.55
			c0.25,0.09,0.56,0.17,0.52,0.52C129.45,60.03,129.23,60.14,128.88,60.12z"/>
		<path d="M82.64,69.15c0.3,0.13,0.68-0.07,0.71,0.29c0.03,0.32-0.31,0.39-0.56,0.49c-0.27,0.11-0.54,0.1-0.77-0.07
			c-0.33-0.25-0.49-0.1-0.66,0.2c-0.31,0.57-0.62,1.13-1.29,1.38c-0.62,0.23-0.85,0.11-0.84-0.55c0-1.17,0.02-2.34,0.03-3.5
			c0.01-0.78,0.28-1.17,0.88-1.28c0.55-0.1,1.11,0.29,1.33,0.93c0.05,0.15,0.07,0.31,0.1,0.47c0.21,1.07,0.04,0.47,0.49,0.21
			c0.42-0.25,0.59-0.7,1.01-0.91c0.24-0.12,0.17-0.39,0.12-0.59c-0.12-0.49-0.02-0.97,0.08-1.44c0.12-0.6,0.67-0.89,1.06-0.61
			c0.19,0.14,0.3,0.31,0.24,0.56c-0.07,0.27-0.26,0.26-0.47,0.18c-0.25-0.09-0.28,0.09-0.28,0.25c-0.01,0.39,0,0.79,0,1.18
			c0,0.25,0.17,0.31,0.37,0.39c0.24,0.09,0.31,0.34,0.07,0.44c-0.45,0.18-0.31,0.51-0.28,0.8c0.03,0.27,0.13,0.53,0.14,0.79
			c0.01,0.16-0.01,0.39-0.25,0.41c-0.24,0.03-0.29-0.15-0.32-0.35c-0.04-0.34-0.09-0.67-0.14-1.01c-0.02-0.14-0.03-0.3-0.19-0.35
			c-0.06-0.02-0.38-0.14-0.41-0.1c-0.1,0.13,0.25,0.38,0.29,0.48C83.35,68.4,82.99,68.76,82.64,69.15z M81.08,68.59
			c-0.04-0.53-0.03-1.08-0.29-1.56c-0.11-0.2-0.27-0.4-0.56-0.33c-0.25,0.06-0.31,0.25-0.33,0.49c-0.12,1.07-0.07,2.15-0.08,3.22
			c0,0.1-0.01,0.23,0.11,0.28c0.15,0.07,0.23-0.04,0.31-0.13C80.76,70.01,81.14,69.39,81.08,68.59z"/>
		<path d="M91.17,62.62c-0.13,0.39-0.01,1.83-0.04,2.13c-0.03,0.21-0.05,0.48-0.33,0.47c-0.26-0.01-0.33-0.24-0.32-0.48
			c0.02-0.45-0.02-0.9,0.06-1.34c0.03-0.17,0.17-0.5-0.19-0.48c-0.23,0.02-0.62-0.02-0.6,0.44c0.02,0.61,0.02,1.22,0.05,1.83
			c0.01,0.14,0.04,0.28-0.01,0.42c-0.04,0.12-0.07,0.26-0.23,0.25c-0.16-0.01-0.27-0.09-0.28-0.27c-0.03-0.68-0.07-1.36-0.06-2.04
			c0-0.3,0.08-0.54-0.31-0.68c-0.28-0.1-0.25-0.37,0.03-0.45c0.27-0.07,0.34-0.2,0.36-0.44c0.01-0.16,0.06-0.34,0.27-0.34
			c0.19,0,0.25,0.14,0.29,0.32c0.1,0.44,0.56,0.59,1,0.63c0.46,0.04,0.56-0.18,0.71-0.49c0.19-0.4,0.53-0.48,0.95-0.44
			c0.41,0.03,0.47,0.34,0.55,0.63c0.16,0.63-0.04,1.21-0.3,1.76c-0.14,0.3-0.4,0.47-0.74,0.44c-0.3-0.03-0.55-0.16-0.61-0.51
			C91.37,63.93,91.19,62.78,91.17,62.62z M92.47,62.91c0.04-0.33,0-0.48-0.2-0.52c-0.2-0.04-0.29,0.09-0.33,0.26
			c-0.07,0.28-0.06,0.56-0.02,0.85c0.01,0.1-0.01,0.24,0.13,0.26c0.16,0.03,0.21-0.12,0.25-0.23
			C92.38,63.29,92.44,63.03,92.47,62.91z"/>
		<path d="M83.29,59.34c-0.07,0.01-0.25,0.07-0.42,0.06c-0.33-0.02-0.73,0.03-0.89-0.34c-0.16-0.37,0.01-0.71,0.28-0.98
			c0.21-0.21,0.47-0.39,0.72-0.56c0.34-0.24,0.7-0.44,1.03-0.68c0.24-0.17,0.44-0.17,0.6,0.06c0.18,0.26-0.04,0.41-0.24,0.49
			c-0.55,0.23-1.02,0.58-1.47,0.97c-0.08,0.07-0.18,0.14-0.15,0.26c0.04,0.16,0.19,0.14,0.31,0.14c0.09,0,0.18,0.01,0.27-0.02
			c0.46-0.15,0.87-0.07,1.16,0.32c0.34,0.46,0.45,0.99,0.22,1.52c-0.39,0.91-1.16,1.42-2.01,1.85c-0.21,0.1-0.42,0.19-0.64,0.26
			c-0.21,0.07-0.48,0.21-0.61-0.09c-0.12-0.3,0.16-0.39,0.37-0.49c0.4-0.2,0.81-0.39,1.2-0.61c0.48-0.27,0.87-0.64,1.07-1.17
			C84.29,59.72,84.02,59.32,83.29,59.34z"/>
		<path d="M94.46,68.74c-0.02-0.2-0.05-0.39-0.06-0.59c-0.01-0.18,0.06-0.32,0.26-0.34c0.18-0.02,0.35,0.05,0.36,0.24
			c0.04,1.48,0.45,2.95,0.04,4.43c-0.11,0.42-0.35,0.77-0.79,0.76c-0.48-0.01-0.8-0.37-0.99-0.8c-0.07-0.16-0.1-0.37,0.11-0.47
			c0.18-0.09,0.31,0.03,0.4,0.18c0.11,0.17,0.22,0.36,0.45,0.29c0.24-0.08,0.3-0.29,0.31-0.52c0.01-0.2,0-0.4,0.02-0.59
			c0.04-0.38-0.14-0.5-0.48-0.41c-0.34,0.1-0.54-0.07-0.73-0.32c-0.34-0.45-0.41-0.98-0.43-1.53c-0.01-0.24,0.08-0.46,0.34-0.46
			c0.28,0,0.26,0.25,0.24,0.45c-0.02,0.35,0.08,0.68,0.25,0.98c0.14,0.23,0.32,0.28,0.47-0.02C94.46,69.6,94.47,69.17,94.46,68.74z"
			/>
		<path d="M83.44,75.1c0-0.25,0-0.5,0-0.75c0-0.17,0.08-0.29,0.24-0.31c0.21-0.04,0.32,0.13,0.32,0.28
			c0.03,0.68,0.17,1.36,0.12,2.04c-0.01,0.16-0.13,0.34-0.25,0.31c-0.81-0.18-1.08,0.64-1.67,0.87c-0.24,0.1-0.43,0.32-0.65,0.46
			c-0.33,0.21-0.55,0.11-0.59-0.28c-0.02-0.16-0.02-0.32,0-0.48c0.11-1.11,0.12-2.22,0.03-3.33c-0.01-0.14-0.01-0.29,0.01-0.43
			c0.02-0.21,0.06-0.4,0.34-0.39c0.24,0.01,0.32,0.21,0.29,0.38c-0.17,1.02,0.17,2.04-0.02,3.06c-0.03,0.15-0.1,0.33,0.07,0.44
			c0.15,0.09,0.27-0.04,0.39-0.11c0.4-0.24,0.71-0.67,1.26-0.63c0.15,0.01,0.14-0.18,0.15-0.3c0.01-0.27,0-0.54,0-0.81
			C83.46,75.1,83.45,75.1,83.44,75.1z"/>
		<path d="M85.12,71.94c0,0.16,0.01,0.32,0,0.49c-0.02,0.35,0.07,0.55,0.48,0.48c0.37-0.06,0.61,0.14,0.78,0.45
			c0.66,1.21,0.19,2.24-1.16,2.56c-0.27,0.06-0.43-0.02-0.46-0.29c-0.17-1.39-0.25-2.79-0.2-4.19c0.01-0.21,0.06-0.48,0.35-0.46
			c0.28,0.02,0.22,0.28,0.22,0.47C85.13,71.61,85.12,71.77,85.12,71.94C85.12,71.94,85.12,71.94,85.12,71.94z M85.24,74.43
			c0,0.03-0.01,0.13,0,0.21c0.02,0.21-0.03,0.51,0.22,0.54c0.26,0.04,0.44-0.21,0.54-0.45c0.04-0.08,0.06-0.17,0.07-0.26
			c0.04-0.34-0.1-0.63-0.29-0.9c-0.07-0.1-0.19-0.1-0.29-0.03C85.21,73.76,85.2,74.06,85.24,74.43z"/>
		<path d="M85.93,58.36c0.21-0.26,0.36-0.45,0.5-0.65c0.1-0.14,0.22-0.19,0.37-0.1c0.15,0.09,0.16,0.23,0.11,0.38
			c-0.03,0.08-0.06,0.17-0.12,0.24c-0.43,0.5-0.63,0.99-0.06,1.53c0.13,0.13,0.1,0.3-0.04,0.43c-0.18,0.16-0.28,0-0.41-0.09
			c-0.2-0.14-0.28-0.56-0.51-0.46c-0.26,0.11-0.07,0.49-0.11,0.74c-0.03,0.23-0.01,0.52-0.33,0.52c-0.29,0-0.28-0.29-0.29-0.5
			c-0.04-1.24,0.18-2.46,0.39-3.67c0.05-0.26,0.1-0.53,0.14-0.79c0.03-0.2,0.1-0.36,0.34-0.31c0.22,0.05,0.24,0.23,0.21,0.42
			c-0.08,0.49-0.14,0.99-0.22,1.49C85.87,57.77,85.81,58,85.93,58.36z"/>
		<path d="M88.57,72.13c-0.02-0.91,0.35-1.34,1.2-1.54c0.34-0.08,0.49,0.07,0.55,0.33c0.14,0.56,0.26,1.12,0.37,1.68
			c0.05,0.24,0,0.43-0.3,0.46c-0.07,0.01-0.14,0.03-0.2,0.07C89.28,73.66,88.59,73.24,88.57,72.13z M89.21,71.93
			c0,0.21-0.01,0.3,0,0.39c0.03,0.2,0.08,0.44,0.28,0.48c0.21,0.05,0.33-0.19,0.43-0.34c0.16-0.23-0.03-0.48-0.03-0.72
			c0-0.23-0.16-0.37-0.38-0.38c-0.24-0.01-0.25,0.21-0.29,0.38C89.2,71.84,89.21,71.95,89.21,71.93z"/>
		<path d="M85.73,66.32c0-0.58,0.7-1.66,1.12-1.81c0.26-0.09,0.49-0.02,0.64,0.23c0.39,0.61,0.34,1.3,0.37,1.97
			c0.01,0.16-0.07,0.38-0.3,0.38c-0.25,0-0.24-0.22-0.26-0.4c-0.05-0.37-0.09-0.74-0.15-1.11c-0.02-0.11-0.03-0.27-0.19-0.29
			c-0.15-0.01-0.22,0.12-0.27,0.23c-0.2,0.42-0.44,0.82-0.32,1.32c0.05,0.22,0.03,0.46,0.02,0.7c0,0.18-0.09,0.31-0.29,0.32
			c-0.21,0-0.27-0.14-0.29-0.32C85.79,67.1,85.76,66.65,85.73,66.32z"/>
		<path d="M95.39,61.52c-0.04,0.34-0.09,0.68-0.14,1.01c-0.03,0.17-0.12,0.33-0.31,0.31c-0.17-0.02-0.29-0.16-0.27-0.34
			c0.02-0.36,0.08-0.71,0.1-1.07c0.01-0.17,0.03-0.4-0.2-0.44c-0.22-0.05-0.3,0.16-0.37,0.32c-0.13,0.31-0.24,0.63-0.23,0.99
			c0.01,0.29,0,0.58-0.02,0.86c-0.01,0.17-0.1,0.33-0.29,0.33c-0.17,0-0.24-0.18-0.24-0.31c-0.03-0.69-0.05-1.39-0.04-2.08
			c0-0.24,1-0.88,1.27-0.83c0.51,0.1,0.7,0.45,0.72,0.94c0,0.11,0,0.22,0,0.32C95.38,61.52,95.38,61.52,95.39,61.52z"/>
		<path d="M90.05,54.32c-0.11,1.28-0.21,2.57-0.32,3.85c-0.02,0.25-0.11,0.51-0.41,0.46c-0.25-0.04-0.27-0.3-0.25-0.53
			c0.11-1.32,0.22-2.64,0.33-3.96c0.01-0.12,0.05-0.25,0.07-0.37c0.04-0.17,0.13-0.31,0.32-0.29c0.21,0.02,0.25,0.19,0.27,0.35
			c0.02,0.16,0,0.32,0,0.48C90.06,54.32,90.06,54.32,90.05,54.32z"/>
		<path d="M91.91,53.14c-0.13,1.3-0.27,2.67-0.4,4.04c-0.02,0.22-0.06,0.49-0.33,0.47c-0.3-0.01-0.31-0.3-0.29-0.54
			c0.12-1.35,0.25-2.7,0.37-4.06c0-0.02,0.01-0.04,0.01-0.05c0.07-0.22,0.04-0.59,0.38-0.55C91.98,52.5,91.92,52.83,91.91,53.14z"/>
		<path d="M92.17,68.8c0.19-0.02,0.32,0.07,0.37,0.24c0.06,0.17-0.05,0.26-0.19,0.33c-0.71,0.39-0.82,1.04-0.8,1.77
			c0.01,0.27,0.25,0.71-0.15,0.79c-0.5,0.11-0.35-0.42-0.44-0.68c-0.25-0.79-0.12-1.49,0.52-2.06
			C91.69,69.01,91.89,68.84,92.17,68.8z"/>
		<path d="M86.7,72.56c-0.01-0.45,0.88-1.09,1.3-0.94c0.14,0.05,0.21,0.15,0.22,0.28c0.02,0.17-0.11,0.24-0.24,0.31
			c-0.55,0.27-0.7,0.59-0.59,1.2c0.06,0.33,0.13,0.67,0.16,1.01c0.02,0.15-0.03,0.34-0.25,0.36c-0.21,0.02-0.27-0.12-0.32-0.29
			C86.81,73.85,86.81,73.2,86.7,72.56z"/>
		<path d="M87.45,58.71c0.04-0.5,0.07-1,0.13-1.49c0.03-0.22,0.07-0.52,0.39-0.47c0.26,0.04,0.3,0.3,0.26,0.51
			c-0.12,0.58-0.08,1.17-0.12,1.76c-0.02,0.27-0.01,0.61-0.36,0.62c-0.41,0.01-0.28-0.36-0.3-0.61
			C87.44,58.93,87.45,58.82,87.45,58.71z"/>
		<path d="M88.08,64.43c0-0.13,0-0.25,0-0.38c0-0.17,0.11-0.26,0.27-0.29c0.15-0.02,0.25,0.08,0.28,0.2
			c0.2,0.76,0.22,1.55,0.22,2.34c0,0.11-0.08,0.24-0.24,0.25c-0.19,0.01-0.27-0.13-0.29-0.26c-0.1-0.62-0.18-1.23-0.27-1.85
			C88.06,64.43,88.07,64.43,88.08,64.43z"/>
		<path d="M85.35,67.94c-0.03,0.22,0.05,0.47-0.25,0.48c-0.27,0.01-0.29-0.22-0.29-0.42c0-0.57,0-1.15,0.01-1.72
			c0-0.17-0.03-0.41,0.23-0.4c0.21,0.01,0.2,0.21,0.21,0.37C85.28,66.83,85.21,67.41,85.35,67.94z"/>
		<path d="M88.46,55.23c-0.01,0.33-0.11,0.52-0.41,0.53c-0.27,0.01-0.31-0.23-0.33-0.42c-0.03-0.26,0.11-0.42,0.37-0.42
			C88.3,54.93,88.49,55.01,88.46,55.23z"/>
		<path class="st3" d="M83.84,72.98c0.03-0.21-0.16-0.3-0.37-0.3c-0.26-0.01-0.41,0.16-0.37,0.42c0.02,0.19,0.06,0.42,0.33,0.42
			C83.73,73.5,83.83,73.3,83.84,72.98z"/>
		<path d="M83.84,72.98c-0.01,0.33-0.11,0.52-0.41,0.53c-0.27,0.01-0.31-0.23-0.33-0.42c-0.03-0.26,0.11-0.42,0.37-0.42
			C83.68,72.68,83.87,72.77,83.84,72.98z"/>
		<path d="M88.64,62.94c-0.01,0.22-0.08,0.35-0.27,0.35c-0.18,0-0.21-0.15-0.22-0.28c-0.02-0.17,0.08-0.28,0.25-0.28
			C88.53,62.74,88.66,62.8,88.64,62.94z"/>
		<path d="M91.14,61.77c-0.01,0.22-0.08,0.35-0.27,0.35c-0.18,0-0.21-0.15-0.22-0.28c-0.02-0.17,0.08-0.28,0.25-0.28
			C91.03,61.57,91.16,61.62,91.14,61.77z"/>
		<path d="M85.32,65.18c0,0.14-0.06,0.28-0.27,0.28c-0.2,0-0.28-0.15-0.3-0.32c-0.03-0.19,0.06-0.33,0.27-0.31
			C85.19,64.84,85.32,64.94,85.32,65.18z"/>
		<path class="st3" d="M81.08,68.59c0.05,0.8-0.32,1.42-0.84,1.97c-0.09,0.09-0.17,0.2-0.31,0.13c-0.12-0.06-0.11-0.18-0.11-0.28
			c0.01-1.07-0.04-2.15,0.08-3.22c0.03-0.23,0.08-0.43,0.33-0.49c0.29-0.07,0.45,0.13,0.56,0.33
			C81.06,67.52,81.05,68.06,81.08,68.59z"/>
		<path class="st3" d="M92.47,62.91c-0.03,0.11-0.09,0.37-0.17,0.63c-0.04,0.11-0.09,0.25-0.25,0.23c-0.14-0.02-0.12-0.16-0.13-0.26
			c-0.04-0.28-0.05-0.57,0.02-0.85c0.04-0.17,0.13-0.3,0.33-0.26C92.47,62.44,92.51,62.59,92.47,62.91z"/>
		<path class="st3" d="M85.24,74.43c-0.05-0.37-0.03-0.67,0.26-0.88c0.1-0.07,0.22-0.07,0.29,0.03c0.19,0.27,0.33,0.56,0.29,0.9
			c-0.01,0.09-0.03,0.18-0.07,0.26c-0.11,0.24-0.28,0.48-0.54,0.45c-0.26-0.04-0.21-0.33-0.22-0.54
			C85.23,74.55,85.24,74.46,85.24,74.43z"/>
		<path class="st3" d="M89.21,71.93c0,0.01-0.01-0.1,0.02-0.2c0.04-0.17,0.05-0.39,0.29-0.38c0.22,0.01,0.38,0.16,0.38,0.38
			c0,0.25,0.19,0.49,0.03,0.72c-0.1,0.15-0.22,0.39-0.43,0.34c-0.2-0.04-0.25-0.28-0.28-0.48C89.2,72.23,89.21,72.14,89.21,71.93z"
			/>
		<path class="st3" d="M82.25,68.47c0,0-0.01-0.02-0.01-0.04c0-0.04-0.02-0.09,0.1-0.15c0.11-0.05,0.2-0.06,0.22-0.01
			c0.02,0.05,0.14,0.06,0.09,0.14c-0.03,0.06-0.07,0.13-0.17,0.17c-0.1,0.04-0.15,0-0.18-0.03C82.27,68.54,82.27,68.52,82.25,68.47z
			"/>
	</g>
	<circle class="st6" cx="61.27" cy="33.91" r="5.15"/>
	<circle class="st6" cx="89.07" cy="33.91" r="5.15"/>
	<path class="st7" d="M54.32,15.85c0,0,6.69,12.2,20.84,12.2s20.99-12.34,20.99-12.34s0.3-0.53,0.38-0.7
		c0.08-0.16,0.25-0.37,0.4-0.33c0.14,0.04,1.41,0.58,1.54,0.68c0.14,0.1,0.39,0.45,0.14,1.11c-0.25,0.67-0.82,1.64-1.04,1.99
		c-0.22,0.35-6.03,11.91-22.41,11.91s-22.6-12.43-22.88-12.88c-0.29-0.46-0.88-1.49-0.48-1.79c0.4-0.29,0.99-0.65,1.28-0.85
		S53.64,14.5,54.32,15.85z"/>
	<path class="st0" d="M60.23,32.61c0,0.88-0.72,1.61-1.56,1.59c-0.83-0.01-1.46-0.65-1.46-1.48c-0.01-0.87,0.75-1.67,1.57-1.66
		C59.6,31.06,60.23,31.74,60.23,32.61z"/>
	<path class="st0" d="M62.07,36.34c0,0.56-0.46,1.03-1.02,1.04c-0.59,0.01-1.07-0.46-1.06-1.05c0.01-0.56,0.48-1.01,1.05-1.01
		C61.6,35.31,62.07,35.77,62.07,36.34z"/>
	<path d="M84.37,32.66c-0.03,0.82,0.59,1.5,1.4,1.54c0.85,0.04,1.59-0.69,1.63-1.6c0.03-0.8-0.62-1.52-1.4-1.55
		C85.15,31.02,84.4,31.77,84.37,32.66z"/>
	<path d="M88.16,37.38c0.57,0.01,1.02-0.42,1.05-1c0.02-0.56-0.43-1.05-0.99-1.06c-0.6-0.02-1.07,0.44-1.07,1.04
		C87.15,36.93,87.58,37.37,88.16,37.38z"/>
	<path class="st0" d="M84.37,32.66c0.03-0.89,0.79-1.65,1.62-1.61c0.78,0.03,1.43,0.76,1.4,1.55c-0.03,0.91-0.78,1.64-1.63,1.6
		C84.96,34.16,84.34,33.48,84.37,32.66z"/>
	<path class="st0" d="M88.16,37.38c-0.58-0.01-1.01-0.45-1.01-1.03c0-0.6,0.47-1.05,1.07-1.04c0.56,0.01,1.01,0.5,0.99,1.06
		C89.19,36.96,88.74,37.39,88.16,37.38z"/>
</g>
<g>
	<path d="M65.54,72.94v1.87v0.45c0,0.08,0,0.17-0.05,0.21c-0.08,0.04-0.19-0.03-0.29-0.09l-0.68-0.37c-0.1-0.05-0.21-0.1-0.29-0.22
		c-0.06-0.1-0.06-0.18-0.06-0.26v-0.3v-0.28c0-0.1,0-0.21,0.11-0.21c0.09,0,0.22,0.1,0.32,0.15l0.72,0.39v-0.52l-0.7-0.38
		c-0.12-0.07-0.26-0.16-0.39-0.19c-0.1-0.03-0.18-0.04-0.27-0.04c-0.07,0-0.13,0.04-0.18,0.09c-0.04,0.04-0.07,0.08-0.09,0.14
		c-0.03,0.08-0.02,0.19-0.02,0.29v0.41c0,0.12-0.01,0.23,0,0.36c0.02,0.18,0.09,0.39,0.21,0.58c0.11,0.17,0.26,0.32,0.42,0.42
		c0.08,0.05,0.17,0.09,0.25,0.14l0.52,0.28c0.13,0.07,0.26,0.15,0.39,0.21c0.22,0.09,0.43,0.06,0.52-0.09
		c0.07-0.11,0.07-0.26,0.07-0.42v-0.45v-1.87L65.54,72.94z"/>
	<path d="M66.55,73.5v0.47l0.51,0.28v-0.47L66.55,73.5z"/>
	<path d="M57.39,71.64v-0.52l-0.7-0.38c-0.1-0.05-0.23-0.1-0.32-0.2c-0.06-0.07-0.09-0.14-0.11-0.22c-0.03-0.14-0.01-0.27-0.01-0.4
		v-0.27c0-0.09,0-0.19,0.07-0.22c0.08-0.04,0.19,0.04,0.3,0.09l0.67,0.37c0.1,0.06,0.21,0.11,0.28,0.23
		c0.05,0.09,0.05,0.17,0.05,0.25v0.41v1.68l0.51,0.28v-1.64v-0.44c0-0.13,0-0.25-0.04-0.4c-0.08-0.27-0.27-0.53-0.5-0.71
		c-0.14-0.11-0.28-0.17-0.42-0.25l-0.52-0.28c-0.11-0.06-0.22-0.13-0.33-0.17c-0.14-0.05-0.28-0.05-0.37,0
		c-0.08,0.05-0.15,0.13-0.17,0.24c-0.03,0.13-0.02,0.3-0.02,0.45v0.39c0,0.1,0,0.2,0.02,0.3c0.03,0.14,0.1,0.29,0.19,0.43
		c0.04,0.06,0.08,0.11,0.13,0.17c0.07,0.08,0.14,0.14,0.22,0.2c0.13,0.1,0.27,0.16,0.4,0.23L57.39,71.64L57.39,71.64z"/>
	<path d="M61.39,71.61v0.5l0.89,0.49c0.12,0.06,0.28,0.12,0.38,0.25c0.08,0.1,0.09,0.21,0.09,0.3v0.48c0,0.08,0.01,0.18,0,0.24
		c-0.02,0.08-0.07,0.12-0.15,0.11c-0.08-0.02-0.17-0.08-0.25-0.13l-0.5-0.27l-0.2-0.11c-0.03-0.02-0.07-0.04-0.11-0.06
		c-0.17-0.15-0.23-0.39-0.11-0.45c0.09-0.04,0.22,0.05,0.33,0.11l0.75,0.41v-0.49l-0.78-0.43c-0.15-0.08-0.31-0.19-0.45-0.19
		c-0.09,0-0.17,0-0.23,0.04c-0.19,0.12-0.23,0.48-0.1,0.82c0.06,0.15,0.15,0.29,0.26,0.42c0.18,0.21,0.4,0.31,0.6,0.42l0.53,0.29
		c0.11,0.06,0.22,0.13,0.33,0.17c0.06,0.02,0.11,0.03,0.16,0.03c0.05,0.01,0.1,0,0.14-0.01c0.13-0.04,0.21-0.15,0.24-0.31
		c0.01-0.09,0.01-0.2,0.01-0.3v-0.38c0-0.11,0.01-0.23,0-0.35c-0.02-0.13-0.07-0.29-0.16-0.43c-0.05-0.09-0.11-0.17-0.17-0.25
		c-0.21-0.23-0.45-0.35-0.69-0.47L61.39,71.61L61.39,71.61z"/>
	<path d="M66.55,74.44v2.22l0.51,0.28v-2.22L66.55,74.44z"/>
	<path d="M67.58,77.22l0.5,0.27v-1.22v-0.32c0-0.03-0.01-0.11,0.01-0.12c0.01-0.01,0.04,0,0.06,0.02l0.15,0.08l0.41,0.22
		c0.1,0.05,0.19,0.12,0.24,0.24c0.04,0.09,0.03,0.16,0.03,0.23v0.27v1.1l0.5,0.27c0-0.5,0.01-1,0-1.51c0-0.06-0.02-0.13-0.02-0.19
		l0.4,0.22c0.06,0.03,0.15,0.08,0.2,0.15c0.12,0.17,0.08,0.35,0.08,0.49v1.21l0.5,0.27v-1.29c0-0.13,0.01-0.25-0.01-0.39
		c-0.04-0.22-0.17-0.46-0.34-0.65c-0.17-0.18-0.34-0.27-0.52-0.37l-0.53-0.29v0.15c-0.04-0.04-0.08-0.09-0.12-0.13
		c-0.07-0.07-0.15-0.14-0.22-0.2c-0.1-0.08-0.21-0.13-0.32-0.19l-0.5-0.27c-0.15-0.08-0.35-0.23-0.46-0.16
		c-0.06,0.04-0.05,0.12-0.05,0.21v0.35V77.22z"/>
	<path d="M58.37,69.98v0.42l0.25,0.13c-0.15,0.09-0.21,0.28-0.23,0.49c-0.02,0.18,0.02,0.39,0.09,0.61c0.07,0.2,0.18,0.41,0.32,0.59
		c0.4,0.55,0.99,0.89,1.41,0.81c0.5-0.08,0.64-0.8,0.23-1.5l0.25,0.14v-0.42l-0.91-0.5v0.37c0,0.04-0.02,0.11,0,0.16
		c0.01,0.04,0.06,0.08,0.09,0.11c0.05,0.06,0.1,0.13,0.14,0.2c0.17,0.27,0.2,0.56,0.11,0.73c-0.03,0.06-0.08,0.1-0.14,0.13
		c-0.06,0.03-0.12,0.04-0.2,0.03c-0.31-0.03-0.67-0.36-0.83-0.75c-0.04-0.1-0.07-0.2-0.08-0.29c-0.01-0.22,0.07-0.36,0.22-0.42
		c0.03-0.01,0.07-0.02,0.11-0.02c0.02,0,0.05,0.01,0.06-0.01c0.02-0.02,0.01-0.11,0.01-0.15v-0.38L58.37,69.98L58.37,69.98z"/>
</g>
<g>
	<path d="M56.76,57.9l1.82,1.02l0.47-1.99l0.68,0.39l-0.47,1.99l1.93,1.09l0.49-1.98l0.68,0.39l-0.48,1.99l1.09,0.62v0.7l-1.23-0.69
		l-0.43,1.82l1.66,0.93v0.7l-1.79-1.01l-0.48,1.98l-0.69-0.39l0.47-1.99l-1.96-1.11l-0.46,1.99l-0.7-0.39l0.47-1.99l-1.09-0.62v-0.7
		l1.24,0.7l0.43-1.82l-1.67-0.94V57.9z M59.11,59.92l-0.43,1.82l1.96,1.11l0.43-1.82L59.11,59.92z"/>
</g>
<g>
	<path d="M67.7,57.04v12.95c0,0.19,0.07,0.38,0.21,0.56c0.2,0.26,0.45,0.47,0.74,0.63l2.01,1.13v0.78l-7.47-4.21v-0.78l1.72,0.97
		c0.36,0.2,0.63,0.27,0.8,0.2c0.17-0.07,0.26-0.25,0.26-0.53v-9.78c0-0.2-0.08-0.41-0.24-0.64c-0.16-0.23-0.36-0.41-0.61-0.55
		l-2.3-1.3v-0.72c1.08,0.47,1.96,0.78,2.63,0.93c0.67,0.15,1.26,0.18,1.78,0.09L67.7,57.04z"/>
</g>
</svg>
