<svg height="500" viewBox="0 0 1936.8652 500" width="1936.8652" xmlns="http://www.w3.org/2000/svg"><path d="m1272.4471 0v243 59c0 10.31.61 22.1-6.71 30.41-9.83 11.15-24.85 9.59-38.29 9.59h-88c-13 0-27.71 2-37.3-8.62-7.7-8.31-7.7-18.83-7.7-29.38v-39-36c0-13.62.32-27.95 14-35.44 11.69-6.4 29.18-3.56 42-3.56h93v-68h-91c-16.13 0-34.26-2-50 2.09-12.54 3.27-24 7.48-35 14.19-9.39 5.72-17.08 14.47-22.74 23.72-5.01 8.18-9.65 15.65-12.26 25-3.48 12.6-3 26.05-3 39v53c0 15.14-1.29 31 .17 46 2.12 22 11.7 44.04 26.83 60 13.84 14.39 34.36 23 54 24.83 10.5 1.17 21.45.17 32 .17h67c16.89 0 34.26 1.19 51-1.3 28.82-4.29 55.31-22.37 68-48.7 9-18.8 9-38.62 9-59v-58-243z" fill="#525252"/><path d="m1404.4471 0v61h66v-61z" fill="#07bb7e"/><path d="m214.4471 410v-68h-91c-12.71 0-30.279995 3.03-41.999995-2.85-8.4-4.15-12.1-11.56-14.41-20.15-4.24-15.75-1.59-34.72-1.59-51v-35c0-12.27-.11-24.51 9-33.96 10.6-10.94 24.969998-9.04 38.999995-9.04h87c13.21 0 27.51-1.31 36.73 10 6.83 8.38 6.27 18.83 6.27 29v53 218h66v-213-57c0-16.64.28-33-5.75-49-10.94-28.74-35.25-49.78-65.25-56.54-18-4.02-36.79-2.46-55-2.46h-67c-14.19 0-28.999995-.92-42.999995 1.3-17.65 2.8-36.08 12.92-48 26.27-10.65 12.01-19.0000003 27.7-22.5400003 43.42-4.46 19.37-2.45999998 40.28-2.45999998 60v51c0 12.64-.51 25.65 2.69999998 38 4.2399999 16.29 13.0000003 30.36 24.8600003 42.08 5.04 4.99 10.14 9.26 16.27 12.92 8.7 5.04 18.33 8.63 28.17 11 16.68 4 34.959995 2 51.999995 2h90z" fill="#c65b7c"/><path d="m733.4471 122v65h116c15.23 0 35.72-3.69 48.83 5.82 10.55 7.65 12.17 20.27 12.17 32.18v62c0 10.25 1.55 22-.52 32-2.26 11.04-8.48 20.8-19.48 24.59-10 3.41-22.64 1.41-33 1.41h-65-26c-4.51 0-9.64.66-14-.69-22.62-6.99-30.12-34.16-13.71-51.14 11.3-11.69 27.92-9.17 42.71-9.17h98v-64h-101c-19.63 0-40.83-1.81-59 7.1-11.07 5.42-21.68 12.43-29.7 21.9-24.78 29.3-30.42 78.8-12.67 113 7.88 15.19 19.8 27 34.37 35.79 23.55 14.24 51.67 12.21 78 12.21h69c14.2 0 28.95 1 42.98-1.44 7.25-1.25 14.34-4.37 21.02-7.22 6.65-2.8 12.54-6.96 18-11.61 16.71-14.27 27.61-35.01 30.7-56.73 1.87-13 1.3-26.74 1.3-40v-49c0-14.61 1.81-30.54-.21-45-2.25-16-9.18-32.54-20.3-44.58-6.87-7.42-13.67-14.69-22.49-19.83-27-15.6-59.03-12.6-89-12.6h-107z" fill="#4280f8"/><path d="m1404.4471 122v288h66v-288z" fill="#07bb7e"/><path d="m1537.4471 410h65v-159-42c0-4.5-1.57-12.79 1-16.68 1.76-2.59 5.28-2.3 8-2.32h20 53c12.53.01 25 2 31.61 14 4.87 9 4.39 18.15 4.39 28v35 143h65c0-65.27 1.58-130.76-.02-196-.2-8-1.98-15.98-1.98-24h52c8 0 18.91-.27 25.54 5.02 16.06 12.98 10.46 39.98 10.46 57.98v157h65v-167c0-16.44 1.6-33.79-1.46-50-4.8-25.43-21.84-47.55-44.54-59.6-21.61-11.4-44.23-11.4-68-11.4h-69v20c-5.44-2-9.82-5.9-15-8.48-9.08-4.52-19.04-7.88-29-9.89-13.37-2.63-27.44-1.63-41-1.63h-65c-19 0-46-5-59.39 12-7.61 9.43-6.61 19.58-6.61 31v46z" fill="#525252"/><path d="m342.4471 124v55h32c-19.08 22.38-27.44 51.38-30.17 80-2.32 24.38 2.12 49.57 12.03 72 9.14 20.8 23.43 40 41.14 54.2 52.36 42.35 128.25 44.8 183 5.38 64.66-46.41 83.24-149.11 30-211.57h33v-55h-118v48c0 5.72-2 15.37.6 20.61 1.73 3.68 8.12 5.74 11.4 7.83 6.72 4.28 12.51 9.73 17.91 15.56 21.69 23.41 26.44 58 14.64 87-3.94 9.73-10.2 18.58-17.55 26-7.61 7.69-16.09 14.19-26 18.69-40.29 18.31-87 .37-108.14-37.69-5.27-9.47-9.01-21-9.86-32-1.81-27 9.3-51.66 29-69.91 4.25-3.94 9-7.09 14-10.08 2.57-1.51 6.31-2.79 7.97-5.4 2.9-4.55 1.03-14.37 1.03-19.61v-49h-118z" fill="#525252"/><path d="m972.4471 209-1 120c3.67-8.5 2-19.92 2-29v-60c0-9 2.51-22.64-1-31z" fill="#678cb4"/></svg>