<?xml version="1.0" encoding="utf-8"?>
<!-- Generator: Adobe Illustrator 26.3.1, SVG Export Plug-In . SVG Version: 6.00 Build 0)  -->
<svg version="1.1" id="Layer_1" xmlns="http://www.w3.org/2000/svg" xmlns:xlink="http://www.w3.org/1999/xlink" x="0px" y="0px"
	 viewBox="0 0 1936.9 500" style="enable-background:new 0 0 1936.9 500;" xml:space="preserve">
<style type="text/css">
	.st0{fill:#525252;}
	.st1{fill:#07BB7E;}
	.st2{fill:#C65B7C;}
	.st3{fill:#4280F8;}
</style>
<path class="st0" d="M1272.4,0v243v59c0,10.3,0.6,22.1-6.7,30.4c-9.8,11.1-24.8,9.6-38.3,9.6h-88c-13,0-27.7,2-37.3-8.6
	c-7.7-8.3-7.7-18.8-7.7-29.4v-39v-36c0-13.6,0.3-27.9,14-35.4c11.7-6.4,29.2-3.6,42-3.6h93v-68h-91c-16.1,0-34.3-2-50,2.1
	c-12.5,3.3-24,7.5-35,14.2c-9.4,5.7-17.1,14.5-22.7,23.7c-5,8.2-9.7,15.6-12.3,25c-3.5,12.6-3,26.1-3,39v53c0,15.1-1.3,31,0.2,46
	c2.1,22,11.7,44,26.8,60c13.8,14.4,34.4,23,54,24.8c10.5,1.2,21.4,0.2,32,0.2h67c16.9,0,34.3,1.2,51-1.3c28.8-4.3,55.3-22.4,68-48.7
	c9-18.8,9-38.6,9-59v-58V0H1272.4z"/>
<path class="st1" d="M1404.4,0v61h66V0H1404.4z"/>
<path class="st2" d="M214.4,410v-68h-91c-12.7,0-30.3,3-42-2.9C73,335,69.3,327.6,67,319c-4.2-15.8-1.6-34.7-1.6-51v-35
	c0-12.3-0.1-24.5,9-34c10.6-10.9,25-9,39-9h87c13.2,0,27.5-1.3,36.7,10c6.8,8.4,6.3,18.8,6.3,29v53v218h66V287v-57
	c0-16.6,0.3-33-5.8-49c-10.9-28.7-35.2-49.8-65.2-56.5c-18-4-36.8-2.5-55-2.5h-67c-14.2,0-29-0.9-43,1.3
	c-17.7,2.8-36.1,12.9-48,26.3c-10.6,12-19,27.7-22.5,43.4c-4.5,19.4-2.5,40.3-2.5,60v51c0,12.6-0.5,25.6,2.7,38
	c4.2,16.3,13,30.4,24.9,42.1c5,5,10.1,9.3,16.3,12.9c8.7,5,18.3,8.6,28.2,11c16.7,4,35,2,52,2L214.4,410L214.4,410z"/>
<path class="st3" d="M733.4,122v65h116c15.2,0,35.7-3.7,48.8,5.8c10.5,7.6,12.2,20.3,12.2,32.2v62c0,10.2,1.5,22-0.5,32
	c-2.3,11-8.5,20.8-19.5,24.6c-10,3.4-22.6,1.4-33,1.4h-65h-26c-4.5,0-9.6,0.7-14-0.7c-22.6-7-30.1-34.2-13.7-51.1
	c11.3-11.7,27.9-9.2,42.7-9.2h98v-64h-101c-19.6,0-40.8-1.8-59,7.1c-11.1,5.4-21.7,12.4-29.7,21.9c-24.8,29.3-30.4,78.8-12.7,113
	c7.9,15.2,19.8,27,34.4,35.8c23.5,14.2,51.7,12.2,78,12.2h69c14.2,0,29,1,43-1.4c7.2-1.2,14.3-4.4,21-7.2c6.7-2.8,12.5-7,18-11.6
	c16.7-14.3,27.6-35,30.7-56.7c1.9-13,1.3-26.7,1.3-40v-49c0-14.6,1.8-30.5-0.2-45c-2.2-16-9.2-32.5-20.3-44.6
	c-6.9-7.4-13.7-14.7-22.5-19.8c-27-15.6-59-12.6-89-12.6L733.4,122L733.4,122z"/>
<path class="st1" d="M1404.4,122v288h66V122H1404.4z"/>
<path class="st0" d="M1537.4,410h65V251v-42c0-4.5-1.6-12.8,1-16.7c1.8-2.6,5.3-2.3,8-2.3h20h53c12.5,0,25,2,31.6,14
	c4.9,9,4.4,18.1,4.4,28v35v143h65c0-65.3,1.6-130.8,0-196c-0.2-8-2-16-2-24h52c8,0,18.9-0.3,25.5,5c16.1,13,10.5,40,10.5,58v157h65
	V243c0-16.4,1.6-33.8-1.5-50c-4.8-25.4-21.8-47.6-44.5-59.6c-21.6-11.4-44.2-11.4-68-11.4h-69v20c-5.4-2-9.8-5.9-15-8.5
	c-9.1-4.5-19-7.9-29-9.9c-13.4-2.6-27.4-1.6-41-1.6h-65c-19,0-46-5-59.4,12c-7.6,9.4-6.6,19.6-6.6,31v46V410z"/>
<path class="st0" d="M342.4,124v55h32c-19.1,22.4-27.4,51.4-30.2,80c-2.3,24.4,2.1,49.6,12,72c9.1,20.8,23.4,40,41.1,54.2
	c52.4,42.4,128.2,44.8,183,5.4c64.7-46.4,83.2-149.1,30-211.6h33v-55h-118v48c0,5.7-2,15.4,0.6,20.6c1.7,3.7,8.1,5.7,11.4,7.8
	c6.7,4.3,12.5,9.7,17.9,15.6c21.7,23.4,26.4,58,14.6,87c-3.9,9.7-10.2,18.6-17.5,26c-7.6,7.7-16.1,14.2-26,18.7
	c-40.3,18.3-87,0.4-108.1-37.7c-5.3-9.5-9-21-9.9-32c-1.8-27,9.3-51.7,29-69.9c4.2-3.9,9-7.1,14-10.1c2.6-1.5,6.3-2.8,8-5.4
	c2.9-4.6,1-14.4,1-19.6v-49L342.4,124L342.4,124z"/>
</svg>
