<svg height="77.952599mm" viewBox="0 0 79.63958 77.952599" width="79.63958mm" xmlns="http://www.w3.org/2000/svg"><path d="m63.835609 46.784904v14.552083h8.466667c-5.04825 5.921375-7.260167 13.594292-7.982479 21.166666-.613834 6.450542.560916 13.115396 3.182937 19.049997 2.418292 5.50334 6.199187 10.58334 10.884958 14.34042 13.853583 11.2051 33.932808 11.85333 48.418748 1.42346 17.10796-12.27931 22.02392-39.452022 7.9375-55.977897h8.73125v-14.552083h-31.22083v12.7c0 1.513416-.52917 4.066645.15875 5.453062.45773.973667 2.14842 1.518708 3.01625 2.071687 1.778 1.132417 3.30994 2.574396 4.73869 4.116917 5.73881 6.193896 6.99558 15.345833 3.8735 23.01875-1.04246 2.574396-2.69875 4.915958-4.64344 6.879164-2.01348 2.03465-4.25715 3.75444-6.87917 4.94506-10.66006 4.84453-23.018748.0979-28.61204-9.972141-1.394354-2.505604-2.383895-5.55625-2.608791-8.466666-.478896-7.14375 2.460625-13.668375 7.672916-18.497021 1.12448-1.042458 2.38125-1.875896 3.704167-2.667.679979-.399521 1.669521-.738187 2.108729-1.42875.767292-1.203854.272521-3.802062.272521-5.188479v-12.964583h-31.220833z" stroke-width=".264583" transform="translate(-63.835609 -46.784904)"/></svg>