<svg enable-background="new 0 0 1391.66 1052.03" viewBox="0 0 1391.66 1052.03" xmlns="http://www.w3.org/2000/svg"><path d="m634.07 103.11c-10.36.79-20.54 2.65-30.27 5.23-19.04 5.04-38.72 7.51-57.16 15.26-10.76 4.53-21.66 8.69-31.97 14.18-5.68 3.03-6.43 3.05-8.89-2.9-1.77-4.27-4.95-5.73-9.29-6.09-7.67-.63-12.53 4.39-18.08 8.29-5.28 3.71-7.05 8.67-6.11 14.75.39 2.51 1.03 5.1 2.17 7.33 1.09 2.12.33 2.67-1.32 3.7-10.76 6.68-19.02 15.96-27.18 25.52-9.14 10.71-16.27 22.56-22.93 34.83-2.51 4.62-3.7 10.65-10.91 11.35-4.38.42-4.67 5.41-6.87 8.3-5.46 7.14-5.43 9.83.71 15.95 1.6 1.59 2.67 3.02 2.2 5.55-1.81 9.92-3.87 19.82-3.87 29.98.01 12.42-.14 24.83.89 37.24.54 6.52 1.84 12.88 2.82 19.31 1.17 7.64 3.17 15.09 5.1 22.58 2.59 9.98 5.56 19.81 9.83 29.13 5.61 12.25 11.26 24.46 18.56 35.94 7.47 11.75 16.09 22.48 25.81 32.23 8.02 8.04 17.11 15.05 26.08 22.06 1.69 1.32 1.54 2.99 2.68 4.24.52.57.3 1.86-.61 2.66-1.3 1.13-1.57-.38-2.26-.78-10.48-5.99-20.27-12.75-28.96-21.32-11.47-11.31-21.9-23.26-31.37-36.39-10.85-15.04-20.02-30.85-27.89-47.5-5.32-11.26-10.66-22.56-14.34-34.49-3.25-10.56-6.52-21.16-8.88-31.94-2.28-10.41-5-20.89-5.27-31.57-.26-9.98-2.04-19.88-.37-30.02 1.47-8.94 2.04-18.02 4.53-26.8 1.62-5.7 3.91-11.22 1.95-17.53-2.5-8.04-8.11-12.36-15.17-16.27-9.49-5.25-19.18-10.13-29.02-14.53-13.63-6.1-26.62-13.43-40.18-19.67-11.63-5.35-22.65-12.02-33.93-18.12-11.83-6.39-23.71-12.67-35.46-19.22-11.88-6.62-23.46-13.81-35.46-20.2-20-10.65-39.33-22.44-58.78-34.02-12.57-7.48-24.99-15.24-37.48-22.82-10.42-6.32-20.76-12.86-31.2-19.17-18.45-11.14-36.05-23.71-54.02-35.66-4.1-2.73-8.07-1.21-8.14 3.7-.17 13-3.2 25.79-2.99 38.73.22 13.51-1.64 26.97-.24 40.5.92 8.86-.14 17.79.92 26.75 1.39 11.75 1.27 23.66 2.28 35.47.52 6.15 1.64 12.26 2.24 18.43.76 7.88 2.37 15.69 3.66 23.51 1.82 11.02 3.18 22.16 5.69 33.02 2.5 10.81 4.59 21.73 6.94 32.56 2.84 13.07 6.07 26.08 9.92 38.76 5.93 19.56 11.94 39.16 19.27 58.31 4.51 11.78 9.05 23.54 13.76 35.24 2.93 7.27 7.02 14.06 9.95 21.27 8.41 20.72 19.62 39.91 30.53 59.33 6.99 12.43 15.08 24.09 23.11 35.8 7.47 10.89 15.47 21.4 24.19 31.36 9.43 10.78 19.07 21.32 29.67 30.97 6.56 5.97 13.24 11.68 20.57 16.8 4.9 3.43 9.61 7.18 14.74 10.4 3.74 2.35 8.79 3.73 9.33 9.33.56 5.86 3.03 11.18 4.93 16.59 6.22 17.7 13.06 35.06 22.75 51.35 5.62 9.46 10.53 19.4 16.49 28.72 8.02 12.56 16.91 24.51 26.23 36.11 4.27 5.32 9.08 10.25 13.51 15.44 5.66 6.62 11.64 12.9 17.69 19.12 8.14 8.37 16.6 16.45 25.87 23.52 4.72 3.6 8.76 8 13.68 11.27 9.21 6.13 18.33 12.39 28.04 17.75 10.55 5.83 21.25 11.25 33 14.22 3.86.98 5.61 3.35 5.78 7.14.04 1-.22 2.08.08 2.98 6.41 19.93 13.86 39.04 28.89 54.74 11.07 11.58 22.17 22.88 35.3 32.08 1.35.94 2.08 1.63.87 3.52-3.97 6.19-7.76 12.48-11.35 18.92-3.6 6.45-6.98 13.1-9.5 19.88-2.91 7.86-3.25 16.48-3.49 25.06-.49 17.04 15.76 30.05 29.88 31.26 9.04.78 18.27 3.09 27.43.3.52-.16 1.35.12 1.82.47 6.59 4.91 14.2 7.25 22.08 9.04 10.24 2.33 20.4 5.11 31.08 3.44 1.29-.2 2.89-.43 3.94.12 7.58 3.98 15.98 4.92 24.16 6.41 8.7 1.59 17.3-.11 24.89-4.5 13.23-7.65 15.04-21.91 17.22-34.83 1.12-6.65-.22-14.58-2.57-21.55-1.37-4.09.07-4.72 3.71-4.68 13.99.13 27.98.24 41.96 0 9.91-.17 19.84.95 29.73-.85 4.21-.76 5.71 1.57 4.26 5.7-.53 1.51-1.69 2.73-1.63 4.52.41 11.74.33 23.23 3.54 35.01 4.66 17.09 26.26 23.73 39.39 21.08 12-2.43 23.71-6.51 36.13-6.42 10.9.08 21.08-2.86 31.07-6.76 1.55-.61 3.15.18 4.73-.84 4.36-2.84 8.32-6.23 14.51-4.59 5.76 1.52 11.84-1.44 17.69-.68 6.12.79 11.93-1.37 16.37-3.82 10.66-5.87 18.4-14.9 18.41-28.28.01-5.19-.5-10.21-1.65-15.39-1.23-5.57-2.67-10.87-5.1-15.98-4.22-8.88-8.51-17.68-13.88-26-4.85-7.52-4.46-7.91 3.08-13.65 12.34-9.41 23.29-20.34 33.42-31.97 8.61-9.88 14.46-21.67 19.1-33.96 2.72-7.2 5.66-14.35 6.04-22.2.14-2.88 2.61-4.05 4.62-4.4 3.69-.65 7.07-1.96 10.46-3.34 11.61-4.73 22.7-10.4 33.41-16.97 12.12-7.44 23.41-15.99 34.05-25.28 12.83-11.21 25.35-22.78 36.91-35.43 12.25-13.41 23.01-27.97 34.24-42.15 5.9-7.46 10.79-15.78 15.59-24.03 5.8-9.96 11.96-19.73 16.73-30.29 3.55-7.86 7.01-15.76 10.56-23.61 4.84-10.7 8.16-21.82 11.1-33.08.81-3.09 2.11-5.36 4.68-6.71 4.87-2.55 9.65-5.47 13.99-8.61 10.93-7.89 21.55-16.36 31.09-25.91 10.55-10.55 20.53-21.6 29.97-33.25 9.98-12.32 19.42-25 28.14-38.14 12.87-19.4 24.72-39.51 34.76-60.53 5.22-10.92 9.98-22.15 15.03-33.15 6.61-14.4 12.23-29.14 18.03-43.82 4.88-12.34 8.9-25.03 12.88-37.7 2.4-7.62 5.45-15.19 7.01-22.88 1.83-9.02 5.02-17.6 6.95-26.57 3.09-14.32 6.67-28.56 9.33-42.96 2.71-14.65 5.23-29.34 7.4-44.11 2.27-15.48 3.26-31.08 5.42-46.57 1.88-13.48 2.04-27.26 2.13-40.91.12-17.37.94-34.78-.85-52.14-1.11-10.73-1.96-21.48-3.03-32.22-.66-6.64-2.38-7.44-8.43-4.14-1.4.77-2.86 1.47-4.16 2.39-7.87 5.54-15.52 11.39-23.58 16.64-13.63 8.88-27.65 17.18-41.25 26.11-11.18 7.35-22.5 14.58-33.99 21.3-15.05 8.81-29.9 18.03-45.36 26.21-13.24 7.01-25.6 15.67-38.64 23.09-14.06 8-28.7 15.01-42.67 23.16-16.94 9.88-34.4 18.76-51.74 27.85-14.66 7.68-29.43 15.19-44.67 21.82-10.46 4.55-20.79 9.81-30.7 15.61-4.68 2.74-9.02 6.11-11.65 11.27-3.6 7.05-1.88 13.97.07 20.87 3.12 10.99 5.02 22.14 5.07 33.57.03 8.09-.12 16.16-.83 24.25-.9 10.24-2.35 20.42-4.65 30.35-3.58 15.43-8.06 30.62-13.92 45.44-6.07 15.36-12.66 30.48-21.16 44.54-8.33 13.78-17.02 27.41-27.46 39.89-10.4 12.42-21.49 23.94-34.61 33.45-5.02 3.64-9.65 7.99-15.92 9.76-.5-5.44-.38-6.58 2.73-8.4 2.33-1.36 4.25-3.14 6.33-4.73 20.01-15.29 35.98-34.06 48.66-55.8 3.81-6.52 6.8-13.41 10.41-20.01 3.94-7.18 6.41-15.08 9.13-22.67 3.98-11.13 7-22.7 8.63-34.6 1.86-13.56 4.54-26.99 4.76-40.76.26-16.13-1.25-32.07-4-47.94-.31-1.79-.03-3.38 1.44-4.95 6.68-7.18 4-18.97-4.63-24.08-2.62-1.55-6.07-1.83-7.94-4.97-6.55-10.96-12.01-22.51-19.74-32.83-9.53-12.72-19.64-24.75-32.77-33.84-3.19-2.21-3.83-3.95-2.36-7.51 2.05-4.97 1.87-10.41-.11-15.3-2.54-6.27-18.98-13.78-25.7-12.13-2.42.59-4.15 2.28-5.19 4.78-2.6 6.27-5 7.08-10.96 3.6-11.96-6.99-24.85-11.89-37.86-16.37-9.55-3.29-19.38-5.71-29.3-7.86-13.88-3-27.7-6.24-41.76-8.39-3.19-.49-6.87.2-10.37-2.34 5.25-.56 8.94-3.89 13.91-3.88 2.1 0 5.61-.86 5.41-4.45-.17-3.1-1.19-5.44-4.83-6.8-3.82-1.44-7.76-2.07-11.62-3.07-13.77-3.57-27.74-4.5-41.87-2.29-2.04.32-4.08.38-3.61-2.87.59-4.1-2.47-7.23-3.67-10.82-.51-1.51-3.51-4.79-6.57-4.1-6.73 1.51-12.62 4.25-17.05 10.27-2.74 3.73-5.77 8.6-12.02 7.55-10.48-1.75-20.99-1.6-31.45.04-8.1 1.27-16.21 2.62-23.79 5.98-2.6 1.15-4.34 3.47-4.05 5.95.24 2.03 2.16 3.99 4.93 4.03 5.11.1 9.22 3.02 13.72 5.24z" fill="#fff"/><path d="m634.07 103.11c-4.5-2.22-8.61-5.14-13.74-5.21-2.78-.04-4.7-2-4.93-4.03-.29-2.48 1.45-4.8 4.05-5.95 7.59-3.36 15.7-4.71 23.79-5.98 10.46-1.64 20.97-1.79 31.45-.04 6.25 1.04 9.28-3.83 12.02-7.55 4.42-6.02 10.31-8.76 17.05-10.27 3.07-.69 6.07 2.59 6.57 4.1 1.2 3.59 4.26 6.71 3.67 10.82-.47 3.25 1.57 3.19 3.61 2.87 14.13-2.21 28.1-1.27 41.87 2.29 3.86 1 7.8 1.64 11.62 3.07 3.63 1.37 4.66 3.7 4.83 6.8.19 3.59-3.32 4.45-5.41 4.45-4.97-.01-8.67 3.32-13.91 3.88 3.5 2.54 7.18 1.85 10.37 2.34 14.06 2.16 27.88 5.39 41.76 8.39 9.92 2.14 19.75 4.57 29.3 7.86 13.01 4.48 25.9 9.38 37.86 16.37 5.95 3.48 8.36 2.67 10.96-3.6 1.04-2.5 2.77-4.19 5.19-4.78 6.72-1.65 23.16 5.87 25.7 12.13 1.98 4.89 2.17 10.33.11 15.3-1.47 3.56-.83 5.3 2.36 7.51 13.14 9.08 23.24 21.12 32.77 33.84 7.73 10.32 13.2 21.87 19.74 32.83 1.88 3.14 5.33 3.42 7.94 4.97 8.63 5.1 11.31 16.9 4.63 24.08-1.46 1.57-1.75 3.16-1.44 4.95 2.75 15.86 4.26 31.8 4 47.94-.23 13.78-2.9 27.2-4.76 40.76-1.63 11.9-4.65 23.48-8.63 34.6-2.71 7.59-5.19 15.49-9.13 22.67-3.61 6.59-6.61 13.48-10.41 20.01-12.68 21.73-28.65 40.51-48.66 55.8-2.09 1.59-4.01 3.37-6.33 4.73-3.11 1.82-3.23 2.96-2.73 8.4 6.28-1.77 10.9-6.11 15.92-9.76 13.12-9.51 24.21-21.03 34.61-33.45 10.44-12.47 19.13-26.11 27.46-39.89 8.5-14.05 15.09-29.18 21.16-44.54 5.86-14.83 10.34-30.01 13.92-45.44 2.3-9.93 3.75-20.1 4.65-30.35.71-8.1.87-16.16.83-24.25-.05-11.43-1.95-22.58-5.07-33.57-1.96-6.89-3.67-13.81-.07-20.87 2.63-5.16 6.98-8.53 11.65-11.27 9.91-5.8 20.24-11.06 30.7-15.61 15.24-6.63 30.01-14.14 44.67-21.82 17.34-9.09 34.81-17.97 51.74-27.85 13.97-8.15 28.6-15.16 42.67-23.16 13.04-7.42 25.4-16.08 38.64-23.09 15.46-8.18 30.31-17.4 45.36-26.21 11.49-6.72 22.81-13.95 33.99-21.3 13.6-8.93 27.61-17.23 41.25-26.11 8.05-5.25 15.71-11.1 23.58-16.64 1.3-.92 2.75-1.62 4.16-2.39 6.05-3.3 7.77-2.5 8.43 4.14 1.07 10.73 1.93 21.49 3.03 32.22 1.79 17.36.97 34.76.85 52.14-.09 13.65-.25 27.43-2.13 40.91-2.16 15.49-3.15 31.08-5.42 46.57-2.17 14.77-4.68 29.45-7.4 44.11-2.67 14.41-6.25 28.64-9.33 42.96-1.93 8.97-5.12 17.55-6.95 26.57-1.56 7.69-4.61 15.25-7.01 22.88-3.98 12.67-8 25.36-12.88 37.7-5.81 14.68-11.42 29.42-18.03 43.82-5.05 10.99-9.81 22.23-15.03 33.15-10.05 21.01-21.89 41.13-34.76 60.53-8.72 13.14-18.16 25.82-28.14 38.14-9.44 11.65-19.43 22.7-29.97 33.25-9.55 9.55-20.16 18.02-31.09 25.91-4.34 3.14-9.12 6.05-13.99 8.61-2.57 1.35-3.87 3.62-4.68 6.71-2.94 11.26-6.26 22.39-11.1 33.08-3.55 7.85-7.01 15.75-10.56 23.61-4.77 10.56-10.93 20.33-16.73 30.29-4.8 8.25-9.69 16.58-15.59 24.03-11.23 14.19-21.99 28.74-34.24 42.15-11.55 12.65-24.07 24.22-36.91 35.43-10.64 9.29-21.93 17.85-34.05 25.28-10.71 6.57-21.8 12.24-33.41 16.97-3.39 1.38-6.77 2.69-10.46 3.34-2.01.35-4.48 1.53-4.62 4.4-.38 7.85-3.32 15-6.04 22.2-4.64 12.29-10.5 24.07-19.1 33.96-10.12 11.63-21.07 22.56-33.42 31.97-7.53 5.74-7.93 6.13-3.08 13.65 5.37 8.32 9.66 17.12 13.88 26 2.43 5.11 3.87 10.41 5.1 15.98 1.15 5.18 1.66 10.21 1.65 15.39-.01 13.38-7.75 22.41-18.41 28.28-4.44 2.45-10.25 4.62-16.37 3.82-5.85-.76-11.92 2.2-17.69.68-6.19-1.63-10.15 1.76-14.51 4.59-1.58 1.03-3.17.24-4.73.84-9.99 3.9-20.17 6.84-31.07 6.76-12.42-.09-24.13 4-36.13 6.42-13.13 2.65-34.73-3.99-39.39-21.08-3.21-11.78-3.13-23.27-3.54-35.01-.06-1.78 1.1-3.01 1.63-4.52 1.46-4.13-.04-6.46-4.26-5.7-9.9 1.8-19.83.68-29.73.85-13.98.24-27.98.13-41.96 0-3.63-.03-5.08.6-3.71 4.68 2.34 6.97 3.69 14.9 2.57 21.55-2.18 12.92-3.99 27.18-17.22 34.83-7.59 4.39-16.19 6.09-24.89 4.5-8.18-1.49-16.58-2.43-24.16-6.41-1.05-.55-2.65-.33-3.94-.12-10.68 1.67-20.84-1.11-31.08-3.44-7.88-1.8-15.49-4.13-22.08-9.04-.47-.35-1.3-.63-1.82-.47-9.17 2.79-18.39.47-27.43-.3-14.12-1.21-30.37-14.22-29.88-31.26.25-8.58.58-17.2 3.49-25.06 2.51-6.79 5.9-13.43 9.5-19.88 3.59-6.43 7.38-12.73 11.35-18.92 1.21-1.89.48-2.57-.87-3.52-13.13-9.2-24.23-20.5-35.3-32.08-15.02-15.7-22.47-34.82-28.89-54.74-.29-.91-.03-1.99-.08-2.98-.17-3.79-1.91-6.16-5.78-7.14-11.75-2.98-22.45-8.4-33-14.22-9.71-5.36-18.83-11.62-28.04-17.75-4.92-3.28-8.96-7.67-13.68-11.27-9.27-7.07-17.74-15.15-25.87-23.52-6.05-6.23-12.03-12.5-17.69-19.12-4.43-5.18-9.24-10.12-13.51-15.44-9.32-11.6-18.21-23.55-26.23-36.11-5.95-9.32-10.86-19.26-16.49-28.72-9.68-16.29-16.52-33.66-22.75-51.35-1.9-5.41-4.37-10.73-4.93-16.59-.54-5.6-5.59-6.98-9.33-9.33-5.13-3.21-9.84-6.97-14.74-10.4-7.33-5.12-14.01-10.83-20.57-16.8-10.6-9.65-20.24-20.19-29.67-30.97-8.72-9.96-16.72-20.47-24.19-31.36-8.03-11.71-16.12-23.36-23.11-35.8-10.91-19.41-22.11-38.61-30.53-59.33-2.93-7.21-7.02-14-9.95-21.27-4.71-11.7-9.25-23.46-13.76-35.24-7.33-19.16-13.34-38.75-19.27-58.31-3.85-12.68-7.08-25.7-9.92-38.76-2.35-10.83-4.44-21.75-6.94-32.56-2.52-10.87-3.87-22-5.69-33.02-1.3-7.83-2.9-15.63-3.66-23.51-.6-6.18-1.71-12.28-2.24-18.43-1.01-11.8-.89-23.72-2.28-35.47-1.06-8.96 0-17.89-.92-26.75-1.41-13.54.46-27 .24-40.5-.19-12.98 2.84-25.76 3.01-38.76.07-4.91 4.04-6.43 8.14-3.7 17.97 11.95 35.57 24.52 54.02 35.67 10.43 6.31 20.78 12.85 31.2 19.17 12.49 7.58 24.92 15.34 37.48 22.82 19.45 11.58 38.78 23.37 58.78 34.02 12 6.39 23.58 13.58 35.46 20.2 11.74 6.54 23.63 12.83 35.46 19.22 11.28 6.1 22.3 12.77 33.93 18.12 13.56 6.23 26.55 13.56 40.18 19.67 9.84 4.4 19.52 9.28 29.02 14.53 7.06 3.91 12.67 8.23 15.17 16.27 1.96 6.31-.33 11.83-1.95 17.53-2.49 8.79-3.06 17.86-4.53 26.8-1.67 10.14.12 20.05.37 30.02.27 10.67 2.99 21.15 5.27 31.57 2.36 10.78 5.63 21.38 8.88 31.94 3.68 11.93 9.01 23.23 14.34 34.49 7.87 16.65 17.04 32.46 27.89 47.5 9.47 13.12 19.9 25.07 31.37 36.39 8.69 8.57 18.48 15.33 28.96 21.32.7.4.96 1.91 2.26.78.91-.8 1.13-2.09.61-2.66-1.14-1.25-.99-2.92-2.68-4.24-8.97-7.01-18.07-14.02-26.08-22.06-9.72-9.74-18.33-20.48-25.81-32.23-7.3-11.48-12.95-23.69-18.56-35.94-4.27-9.32-7.25-19.15-9.83-29.13-1.94-7.49-3.94-14.94-5.1-22.58-.98-6.43-2.29-12.78-2.82-19.31-1.02-12.41-.88-24.82-.89-37.24-.01-10.15 2.06-20.06 3.87-29.98.46-2.53-.61-3.96-2.2-5.55-6.14-6.12-6.17-8.82-.71-15.95 2.21-2.88 2.49-7.87 6.87-8.3 7.2-.7 8.4-6.72 10.91-11.35 6.66-12.28 13.79-24.13 22.93-34.83 8.16-9.56 16.42-18.84 27.18-25.52 1.65-1.03 2.41-1.58 1.32-3.7-1.15-2.23-1.79-4.82-2.17-7.33-.94-6.08.83-11.04 6.11-14.75 5.55-3.89 10.41-8.91 18.08-8.29 4.34.35 7.52 1.82 9.29 6.09 2.46 5.95 3.2 5.93 8.89 2.9 10.31-5.49 21.21-9.66 31.97-14.18 18.43-7.75 38.11-10.23 57.16-15.26 9.73-2.58 19.91-4.45 30.27-5.24zm-45.99 362.16c4.12 4.09 9.12 6.37 14.71 7.51-4.26-4.14-9.27-6.95-14.54-9.34-1.03-.06-1.85-1.49-3.43-.47 1.25.88 2.26 1.59 3.26 2.3zm229.38-33.81c-6.3 3.27-11.87 7.52-16.85 12.57-6.01 1.88-9.38 7.19-14.13 10.77 5.26-2.86 10.85-5.19 14.82-9.93 6.68-2.82 12.3-7.23 17.74-11.91.15-.35.29-.71.44-1.06 3.97-2.56 7.86-5.24 11.91-7.65 13.46-8.01 25.22-18.38 40.32-24.21 35.62-13.76 58.42-40.46 69.69-76.5 7.1-22.69 10.48-45.68-2.74-68.06-10.97-18.57-22.32-36.62-40.45-49.23-5.65-3.93-8.1-3.87-12.91 1.24-7.06 7.5-13.78 15.33-21.54 22.14-2.1 1.85-1.5 2.81.74 3.88 17.48 8.33 30.18 21.48 38.69 38.75 17.04 34.6 10.49 77.47-21.61 104.19-26.05 21.68-56.12 26-88.12 13.67-34.25-13.2-57.25-51.27-53.03-87.63.49-4.2 3.44-9.92.91-12.17-2.28-2.03-8.15-.1-12.43.22-7.12.54-7.77 1.18-7.82 8.54-.12 18.32 5.87 34.87 14.75 50.61 17.97 31.84 44.9 50.98 80.92 57.17 10.44 1.79 20.96 2.89 29.28-6.06.11-.12.25-.22.39-.31 2.6-1.78 4.44-.19 6.03 1.57 2.1 2.34-.01 3.48-1.61 4.67-6.81 5.05-13.77 9.92-20.39 15.22-3.89 3.11-9.09 4.64-11.67 9.36-.44.06-.89.11-1.33.15zm-30.17 32.21c-7.57 2.93-13.26 8.56-19.39 13.62 7.32-3.81 14.85-7.25 20.95-13.01-.03-.27.08-.46.32-.57 3-1.75 6.04-3.43 8.99-5.26 25.66-15.94 51.3-31.9 76.95-47.85 2.79-.34 5.7.72 8.38-.5 18.55-8.44 34.33-20.52 47.26-36.27 10.21-12.43 17.7-26.37 22.71-41.62 6.22-18.9 8.51-38.36 5.45-57.97-1.58-10.1 8.5-19.38 15.46-21.36 2.43-.69 6.09 1.55 7.14-1.54.83-2.43-2.67-4.29-3.56-6.78-.11-.31-.2-.65-.38-.92-2.11-3.18-6.48-4.32-9.57-2.08-6.18 4.46-12.18 9.17-18.23 13.81-1.55 1.19-2.69 2.71-1.67 4.72 6.76 13.36 6.55 27.5 4.61 41.79-2.79 20.54-8.85 39.91-20.74 57.17-11.53 16.74-25.53 30.73-43.55 40.56-5.2 2.83-11.01 4.49-15.73 8.2-2.78-.42-6.1-2.61-7.22 2.35-.13.57-1.34.88-2.02 1.34-23.18 15.92-46.37 31.84-69.52 47.8-1.78 1.23-4.13 1.97-4.7 4.49-.63-.04-1.28-.08-1.94-.12zm-3.32 12.79c8.12-2.49 15.17-6.94 21.98-11.84 24.63-13.62 49.28-27.21 73.88-40.89 3.42-1.9 7.32-3.09 10.02-6.19 5.64.57 7.92 3.19 7.94 9.2.06 16.61-1.5 33.19-.91 49.81.05 1.44-.72 3.34.62 4.23 1.7 1.12 2.56-.99 3.59-1.84 5.61-4.64 11.43-9.1 16.62-14.18 12.12-11.87 22.11-25.38 30.62-40.11 13.7-23.69 22.4-49.21 27.26-75.91 3.61-19.86 5.84-40.02 3.23-60.32-1.02-7.88-1.98-15.76-3.21-23.61-.43-2.76-1.86-4.34-4.74-1.75-2.72 2.44-4.67 4.95-4.2 8.98 1.65 14.06 1.46 28.16-.96 42.09-3.76 21.64-11.71 41.71-24.98 59.33-9.61 12.77-20.98 23.95-34.44 32.68-5.92 3.84-11.85 7.95-18.86 9.81-4.08-3.53-6.56-.22-9.82 1.84-23.81 15.03-47.78 29.81-71.69 44.67-8.07 3.48-15.27 8.33-21.92 14.03-.35.23-1.31-.42-1.03.72.34-.25.67-.5 1-.75zm-159.9.08c.18.15.37.29.55.44-.15-.18-.3-.36-.44-.54-3.5-4.32-8.44-6.79-12.94-9.77-5.88-3.9-11.26-8.63-17.95-11.24-7.63-3.57-13.68-9.46-20.68-14-15-9.73-29.66-20.01-43.99-30.71-3.25-2.43-5.81-3.17-9.33-2.45-2.15-3.9-6.67-3.2-9.86-5.1-10.05-5.99-20.36-11.56-28.87-19.82-12.27-11.91-22.76-25.1-30.02-40.7-6.36-13.65-10.46-28-11.8-42.92-1.2-13.36-1.78-26.89 4.92-39.37.98-1.83.47-3.01-1.09-4.24-4.56-3.59-8.8-7.61-13.6-10.84-2.16-1.45-4.09-3.46-6.57-4.33-5.72-2-8.13 2.04-10.28 6.13-.79 1.49-3.4 2.35-2.17 4.54 1.11 1.98 3.3 1.04 5.04 1.1 9.43.34 19.05 11.15 17.99 20.05-3.42 28.78.78 56.07 15.12 81.68 11.6 20.73 27.18 37.44 47.81 49.16 6.57 3.73 13.11 8.74 21.62 6.83 2.41 1.45 4.84 2.86 7.22 4.35 22.46 14.1 44.92 28.22 67.37 42.33 7.84 5.17 15.59 10.48 23.57 15.42 2.59 1.6 5 3.91 8.38 4zm-121.44-58.3c4.44 2.36 8.93 4.63 13.3 7.11 21.36 12.11 43.22 23.31 64.26 36 1.11.67 2.41 1.84 4.04.56-.29-.41-.48-.91-.85-1.15-14.07-8.9-28.32-17.53-42.18-26.74-10-6.65-21.45-11.22-29.83-20.26-.9-.97-1.83-.25-2.68.18-1.33.68-2.62 1.42-3.93 2.14-3.8-.72-6.98-2.81-10.32-4.6-13.26-7.11-24.72-16.65-34.75-27.61-15.09-16.5-25.41-35.85-31.02-57.63-4.31-16.72-5.6-33.62-3.5-50.77.64-5.17.2-9.54-4.94-12.94-3.04-2.01-3.41-.75-3.8 1.37-2.05 11.23-3.64 22.55-4.1 33.96-.51 12.78.26 25.52 1.85 38.23 2.07 16.5 5.93 32.6 11.13 48.31 4.89 14.78 11.34 28.92 19.38 42.38 12.68 21.2 28.46 39.45 48.32 54.16.76.57 1.44 1.65 2.53.9.94-.65.6-1.81.61-2.77.02-5.99.02-11.98.01-17.96-.04-11.29-1.42-22.54-.92-33.85.31-6.54 1.58-8.19 7.39-9.02zm64.37 10.07c.15 1.13 1.05 1.61 1.87 2.17 8.05 5.54 16 11.22 24.17 16.57 4.73 3.09 9.02 6.97 14.97 9.31-.58-2.27-1.84-2.98-3.03-3.84-6.29-4.57-12.52-9.22-18.82-13.79-5.85-4.24-11.01-9.49-17.86-12.29-9.69-5.98-17.77-14.11-27.22-20.42-1.44-.96-2.33-2.14-.97-3.64 1.42-1.56 2.97-3.47 5.49-2.29 1.48.7 2.92 1.67 4.09 2.81 4.38 4.3 9.64 5.51 15.57 5 7.98-.69 15.91-1.7 23.58-4.07 38.48-11.88 63.29-37.84 76.64-75.22 3.64-10.18 6.17-20.73 5.16-31.8-.37-4.03-1.57-6.52-6.27-6.24-3.13.19-6.36-.05-9.44-.65-4.37-.85-5.77-.22-4.84 4.83 4.59 24.94-.93 47.71-16.12 67.97-23.55 31.42-66.28 42.53-102.59 26.87-36-15.53-57.37-54.07-50.68-92.67 4.93-28.44 20.01-49.94 46.1-63.16 1.98-1.01 3.87-1.72 1.22-4.08-8.73-7.74-16.34-16.58-24.16-25.19-2.4-2.64-4.18-2.57-7.1-.6-16.22 10.92-28.35 25.41-38.04 42.19-6.22 10.78-13.2 21.14-14.02 34.2-1.23 19.69 2.5 38.43 10.44 56.34 12.95 29.23 33.64 51.26 63.56 62.88 12.63 4.9 23.65 11.68 34.55 19.16 4.62 3.2 9.17 6.45 13.75 9.65zm329.91 136.06c-.11-.44-.23-.89-.34-1.33-.13.09-.38.24-.37.25.21.38.45.74.68 1.11-1.78 10.02-.49 20.15-.72 30.2-.65 28.95-.35 57.93-.23 86.89.02 4.09-.85 7.11-4.77 8.87-2.54 1.14-3.38 2.63-2.64 5.87 2.54 11.15 3.87 22.54 4.22 33.97.58 19.45-.7 38.66-5.63 57.71-5.32 20.56-11.18 40.45-25.88 56.83-14.44 16.1-30.53 30.07-49.13 40.94-17.98 10.5-37.19 18.3-57.39 23.52-18.81 4.86-37.7 9.02-57.3 8.9-9.32-.06-18.52-.67-27.76-2.03-19.6-2.89-38.7-7.75-57.19-14.69-19.47-7.31-37.52-17.44-54-30.22-12.77-9.91-24.48-20.97-34.04-34-11.94-16.27-16.61-35.54-21.16-54.75-3.92-16.55-4.62-33.36-4.09-50.31.39-12.63 1.49-25.09 4.78-37.31.6-2.23-.21-3.42-2.13-4.35-3.08-1.49-4.67-3.69-4.69-7.44-.17-29.1.77-58.21-.71-87.31-.53-10.29-.09-20.64-.14-30.96-.01-1.15.53-2.52-1.05-3.81-5.43 11.86-10.94 23.35-16 35.03-6.9 15.94-13.11 32.18-18.52 48.68-4.64 14.14-8.77 28.47-12.41 42.9-3.76 14.92-6.42 30.07-8.46 45.37-1.78 13.34-3.22 26.69-3.4 40.08-.28 20.56 1.14 41.08 5.86 61.21 3.34 14.26 7.56 28.29 14.77 41.08 8.28 14.68 19.2 27.24 31.98 38.38 17.51 15.27 37.02 27.24 58.06 36.73 18.77 8.47 38.28 14.97 58.47 19.27 17.85 3.79 35.81 6.95 54.09 7.31 19.14.38 38.3-.25 57.44.24 26.78.68 52.92-3.59 78.73-9.78 21.98-5.28 43.04-13.52 63.12-23.96 21.32-11.08 40.35-25.26 57-42.71 13.21-13.84 22.49-29.9 28.46-47.89 5.7-17.19 9.15-34.99 10.22-52.99 1.55-26.06.43-52.15-4.06-77.93-3.97-22.8-9.42-45.24-16.38-67.37-4.18-13.29-8.9-26.34-13.87-39.31-4.9-12.81-10.27-25.46-16.12-37.86-2.11-4.44-2.84-9.86-7.3-13.03zm-521.71-338.64c-.34-5.15-3.55-8.42-7.25-10.44-10.33-5.65-20.84-11.02-31.56-15.89-17.48-7.95-34.42-16.95-51.47-25.73-29.02-14.95-57.66-30.63-86-46.84-15.77-9.01-32.02-17.25-47.38-26.9-20.04-12.59-40.93-23.74-60.71-36.76-12.28-8.07-25.21-15.16-37.44-23.3-12.83-8.54-26.03-16.54-38.32-25.88-1.99-1.51-3.34-1.42-3.55 1.49-.96 13.38-2.38 26.75-2.82 40.15-.88 26.75.95 53.43 2.87 80.09 1.44 20 4.02 39.92 7.43 59.61 4.55 26.23 10.02 52.35 16.95 78.1 6.54 24.3 13.94 48.31 22.56 71.98 10.87 29.81 23.45 58.85 37.99 87.02 12.84 24.87 27.1 48.89 43.62 71.55 14.19 19.47 29.86 37.58 47.4 54.11 13.12 12.36 27.77 22.58 43.14 31.84 2.14 1.29 3.3 2.79 3.94 5.31 2.05 8 3.64 16.1 6.63 23.87 8.14 21.21 17.92 41.56 29.44 61.16 9.59 16.32 20.26 31.89 32.09 46.56 13.21 16.36 27.01 32.27 42.85 46.31 16.02 14.22 32.42 27.89 51.03 38.6 10.34 5.95 20.96 11.42 32.31 15.28 1.5.51 3.7 1.98 2.98-1.38-2.37-11.06-3.15-22.28-3.7-33.53-.09-1.88-.72-3.42-2.95-4.07-3.1-.9-3.36-3.32-2.35-5.96 1.12-2.92 2.55-5.73 3.52-8.69 3.4-10.39 2.51-21.34 3.54-31.99 1.98-20.49 5.92-40.59 10.86-60.43 4.59-18.43 10.17-36.68 16.91-54.49 4.67-12.34 9.31-24.71 14.78-36.73 3.08-6.77 5.92-13.65 8.95-20.45 2.8-6.26 2.74-12.88 2.84-19.52.05-3.31.55-6.59 5.13-6.28 4.99.34 6.54-.83 6.66-5.89.17-7.15.1-14.31.05-21.47-.03-3.56-1.27-6.25-4.93-7.8-3.5-1.47-6.87-3.26-10.05-5.46-16.74-11.6-31.31-25.47-44.24-41.19-8.22-9.99-15.67-20.54-22.45-31.5-10.13-16.36-18.74-33.52-25.72-51.52-5.58-14.38-10.67-28.92-14.18-43.9-3.28-13.99-5.63-28.16-6.62-42.63-1.11-16.35-.41-32.47 2.41-48.51 1.09-6.14 3.23-12.12 4.81-17.9zm521.7 298.8c0 6.45-.12 10.94.04 15.43.11 2.93.76 5.32 4.86 3.78 2.74-1.03 4.65.04 5.24 3.4.43 2.48.61 4.91.73 7.4.19 3.94-.29 7.85 1.34 11.77 6.51 15.72 13.66 31.14 19.82 47.02 9.36 24.12 17.19 48.67 23.3 73.8 5.32 21.92 8.86 44.1 10.7 66.59.81 9.89-.11 20.27 6.25 29.12 1.61 2.25-.19 4.53-2.41 4.98-3.06.61-2.89 2.46-3.07 4.69-.75 9.24-1.65 18.47-2.48 27.71-.22 2.41-2.59 5.25-.67 6.94.97.85 4.44-.87 6.65-1.75 31.2-12.31 57.3-32.26 81.62-54.81 10.94-10.15 20.96-21.2 30.71-32.51 14.96-17.35 28.11-36.01 40.17-55.44 9.12-14.68 17.09-30.02 23.69-45.99 4.99-12.06 10.16-24.1 12.67-37.09.69-3.6 1.25-7.85 5.45-10.11 15.41-8.28 29.18-18.97 42.06-30.66 21.69-19.7 39.91-42.5 56.44-66.58 10.37-15.12 19.95-30.8 28.64-46.97 11.14-20.72 21.51-41.85 30.59-63.53 10.63-25.37 19.9-51.27 27.95-77.59 8.63-28.21 15.56-56.88 21.22-85.81 4-20.45 7.13-41.05 9.49-61.8 2.15-18.96 3.79-37.92 4.51-56.95.56-14.63.04-29.29.24-43.94.18-13.26-1.08-26.43-2.15-39.61-.2-2.41-1.05-3.85-3.84-1.84-4.83 3.49-9.87 6.71-14.81 10.06-20.72 14.05-41.9 27.4-63.24 40.47-22.76 13.95-45.77 27.49-68.82 40.96-18.85 11.02-37.84 21.79-56.91 32.43-15.75 8.79-31.69 17.26-47.57 25.81-17.64 9.49-35.48 18.61-53.51 27.34-14.61 7.07-29.33 13.96-43.72 21.47-8.04 4.2-13.69 7.53-9.6 21.09 5 16.58 6.5 33.55 5.61 51.02-.94 18.49-3.94 36.47-8.22 54.38-5.98 25-15.72 48.56-27.34 71.32-7.08 13.86-15.43 27.07-24.81 39.58-15.52 20.69-32.51 40.12-54.96 53.33-9.82 5.78-14.76 11.79-11.86 21.09zm-13.58 218.24c.16-14.14-.91-28.18-2.96-42.18-.56-3.84-1.87-4.07-4.79-2.44-15.59 8.71-31.17 17.44-46.97 25.8-16.4 8.68-32.34 18.22-48.56 27.26-19.08 10.64-38.6 20.49-57.31 31.78-1.23.74-2.46.86-3.76 1.05-11.76 1.71-23.59.45-35.38.79-5.98.17-11.25-1.06-16.91-4.15-24.42-13.31-48.69-26.89-73.02-40.36-25.33-14.02-50.75-27.91-76.12-41.87-4.54-2.5-5.72-2.08-6.39 3.17-2.88 22.78-4.31 45.57-1.34 68.52 2.85 22.03 10.66 42.14 22.95 60.39 10.98 16.3 24.84 30.08 41.07 41.27 19.28 13.29 40.42 22.55 62.98 28.78 19.77 5.45 39.77 10.01 60.31 9.63 22.47-.42 44.34-5.29 65.81-11.97 22.23-6.92 43.03-16.86 61.38-31.02 23.41-18.06 41.09-40.8 51.04-69.05 6.34-17.95 8.17-36.52 7.97-55.4zm-213.83-146.42c-.06 0-.12 0-.18 0 0-23.64-.08-47.28.07-70.92.03-4.87-1.49-7.89-6.01-10.29-19.48-10.35-38.78-21.03-58.09-31.7-31.93-17.64-63.81-35.36-95.71-53.04-5.1-2.83-5.8-2.45-5.8 3.52 0 22.45.3 44.9.02 67.35-.28 23.11.96 46.19.58 69.31-.59 35.74-1.06 71.52 2.43 107.2.49 4.96 2.33 7.8 6.64 10.02 9.99 5.15 19.78 10.69 29.63 16.11 23.12 12.74 46.22 25.52 69.33 38.27 16.86 9.3 33.73 18.55 50.58 27.86 1.85 1.02 3.49 3.1 5.81 1.93 2.4-1.21 1.61-3.8 1.58-5.87-.48-33.11.25-66.23-.75-99.34-.7-23.44-.13-46.93-.13-70.41zm53.48 58.85c-.57 35.34.48 74.07-.94 112.78-.14 3.97 2.37 5.56 5.86 3.67 5.24-2.85 10.33-5.99 15.54-8.89 22.73-12.67 45.45-25.36 68.24-37.93 23.93-13.21 47.9-26.33 71.91-39.39 3.37-1.84 4.46-4.33 4.5-8.06.47-41.41-.21-82.84.76-124.25.18-7.76-1.01-15.6-.53-23.4.31-4.97.39-9.85.16-14.86-.54-11.69-1.41-23.39-.7-35.12.93-15.39 3.42-30.72 1.54-46.22-.65-5.39-1.31-5.93-6.02-3.32-23.91 13.22-47.8 26.48-71.72 39.69-28.04 15.5-56.08 31-84.19 46.38-2.55 1.39-3.68 3-3.67 5.82.01 10.64-.52 21.27-.63 31.9-.31 32.59-.11 65.21-.11 101.2zm-88.76-562.72c1.7.95 2.24 1.25 2.77 1.55 6.05 3.41 12.43 6.35 16.46 12.48 1.2 1.83 2.22 3.42.19 5.21-1.9 1.68-4.12 1.76-5.86.08-2.1-2.03-4.2-1.94-6.84-1.52-16.19 2.57-32.3 5.48-48.24 9.39-14.79 3.62-29.7 6.63-43.92 12.32-10.78 4.31-21.36 9.04-31.7 14.32-1.82.93-3.63 1.63-1.78 4.4 6.09 9.12 12.64 17.86 20.13 25.89 1.61 1.73 3.2 2.3 5.71 1.91 5.39-.85 10.87-1.6 16.3-1.52 12.07.17 23.82 2.29 35.53 5.57 15.01 4.21 28.41 11.3 40.14 21.09 13.96 11.65 25.63 25.47 32.86 42.5.88 2.08 2.24 2.5 4.22 2.69 17.08 1.67 34.15 1.25 51.22-.02 2.24-.17 3.64-1.11 4.59-3.16 7.59-16.36 18.26-30.34 32.34-41.69 14.8-11.94 31.4-20.11 50.01-24.23 14.25-3.16 28.55-3.64 42.94-1.23 1.85.31 3.27-.2 4.48-1.49 7.5-7.99 14.16-16.64 20.49-25.57 1.94-2.74 1.37-3.85-1.33-5.2-13.08-6.52-26.35-12.78-40.25-17.19-25.9-8.22-52.51-13.68-79.32-18.01-4.21-.68-9.17-2.83-13.01 1.78-1.27 1.53-2.79.32-3.98-.53-1.43-1.02-1.66-2.59-.91-4.01 1.53-2.92 3.04-5.84 6.14-7.61 4.4-2.52 8.64-5.3 12.93-7.95-.61-1.3-1.65-1.51-2.57-1.69-13.3-2.57-26.66-3.19-40.08-.93-4.94.83-7.16-.8-7.78-5.66-.15-1.15-.16-2.33-.45-3.44-.73-2.85-.74-6.71-3.95-7.51-2.74-.69-4.83 2.27-6.87 4.14-4.07 3.72-7.1 8.32-10.6 12.51-2.48 2.96-5.15 4.13-8.42.93-1.75-1.71-4.14-2.1-6.48-2.13-6.16-.08-12.36-.45-18.46.13-5.18.47-10.45 1.21-16.65 3.4zm85.01 273.61c0 4.36-.31 7.47.05 10.5 1.56 12.81 1.12 25.54-1.38 38.15-2.47 12.45-9.74 22.72-16.19 33.25-2.99 4.88-8.25 4.61-11.35-.15-3.97-6.09-7.99-12.19-11.27-18.65-6.6-13.04-8.02-27.1-7.27-41.53.34-6.46.06-12.96.06-20.38-5.68 7.08-10.12 13.79-15.7 19.36-19.53 19.48-42.5 33.07-69.77 38.77-1.05.22-2.63-.34-2.83 1.28-.13 1.06 1.1 1.49 1.9 2.09 5.99 4.45 11.95 8.94 17.92 13.42 18.44 13.8 36.88 27.6 55.33 41.41 10.75 8.04 21.55 16.01 32.21 24.17 3.79 2.9 7.17 4.19 10.72-.19.6-.74 1.65-1.1 2.45-1.69 11.59-8.57 23.19-17.13 34.75-25.75 10.08-7.51 20.1-15.1 30.17-22.62 12.75-9.53 25.51-19.04 38.28-28.55.79-.59 1.88-1.03 1.55-2.25-.33-1.21-1.51-1-2.46-1.23-5.63-1.41-11.46-2.33-16.81-4.44-12.47-4.92-24.69-10.28-35.52-18.63-9.09-7.02-17.5-14.58-24.81-23.38-3.25-3.91-6.21-8-10.03-12.96zm153.98 657.98c1 0 2-.04 3 .01 11.1.58 20.34-3.47 27.13-12.07 6.23-7.89 5.2-17.21 3.05-26.23-3.62-15.22-11.35-28.58-19.65-41.63-3.26-5.12-4.28-5.31-9.5-1.93-7.12 4.62-14.54 8.73-22.18 12.36-33.6 15.97-69.02 25.45-106 29.15-3.14.31-4.73 1.5-5.27 4.74-1.69 10.2-2.15 20.31-1.07 30.68 2.06 19.7 21.79 27.67 35.59 23.44 6.95-2.13 14.28-2.93 20.89-6.29 1.21-.62 3.07-.63 4.41-.21 5.64 1.77 11.28.65 16.78-.14 11.14-1.6 22.44-3.11 31.44-11.04 2.13-1.88 4.9-2.51 7.52-1.75 4.6 1.35 9.22.97 13.86.91zm-223.8-17.97c.61-5.72-.94-11.26-1.18-16.89-.16-3.73-1.85-5.2-5.54-5.51-22.73-1.91-44.89-6.78-66.62-13.55-22.13-6.9-43.16-16.37-62.87-28.59-3.67-2.27-5.31-1.54-7.5 1.78-7.9 12.02-13.6 25.13-18.81 38.41-2.53 6.43-3.79 13.4-2.32 20.51 2.41 11.59 13.83 21.53 25.7 21.69 7.61.1 15.27 1.17 22.86-.82 2.85-.75 5.59.19 7.83 2.27.97.9 1.97 1.85 3.12 2.45 13.58 7.04 28 9.78 43.24 8.32 1.96-.19 4.33-.5 5.88.37 6.84 3.81 14.6 4.32 21.85 6.58 10.12 3.15 23.5-2.26 29.26-11.05 5.26-8.03 4.74-17.08 5.1-25.97zm66.71-429.64h.13c0-16.14 0-32.28 0-48.43 0-2.71-.05-6.29-3.27-6.33-9.57-.12-19.15-1.45-28.73.22-7.39 1.29-7.44 1.17-7.4 8.73.31 64.05-.51 128.1.9 192.15.34 15.64.14 31.29.08 46.93-.02 4.56 1.83 6.7 6.54 6.6 7.82-.16 15.65-.03 23.47-.05 6.3-.01 7.31-1.03 7.36-7.19.4-48.57-.62-97.14.84-145.71.48-15.62.08-31.27.08-46.92zm-150.67-187.37c20.1.18 37.43-6.75 52.28-19.96 23.53-20.92 30.53-47.13 24.59-77.47-.52-2.66-1.7-4.41-4.28-4.77-6.28-.86-12.27-2.89-18.41-4.33-1.04-.24-2.26-1.3-3.24-.14-.99 1.16-.34 2.54.1 3.77.33.93.84 1.81 1.29 2.7 4.93 9.56 6.48 19.7 5.39 30.35-3.9 38.12-45.09 61.4-79.78 45.06-24.01-11.31-36.63-35.45-32.1-61.4 4.1-23.47 21.12-40.65 45.41-45.85 1.19-.26 3.06.4 3.3-1.41.19-1.46-1.37-2.16-2.46-2.86-5.87-3.78-11.6-7.77-16.83-12.4-2.68-2.37-5.27-2.56-8.2-.97-5.1 2.76-10.16 5.59-14.72 9.22-19.24 15.32-29.91 35.17-30.65 59.84-.54 18.33 4.83 34.84 16.2 49.53 15.82 20.47 36.64 30.3 62.11 31.09zm338.89-80.51c.66-6.16-.97-14.27-3.53-22.24-7.02-21.83-21.97-36.65-41.79-47.12-2.49-1.31-4.94-1.1-7.41.83-5.76 4.49-11.74 8.68-17.61 13.03-.9.67-2.18 1.3-1.91 2.66.31 1.53 1.83 1.07 2.9 1.31 15.89 3.54 28.71 11.36 37.61 25.49 16.91 26.84 9.48 61.31-19.44 79.14-17.45 10.76-36.12 10.57-54.19 1.5-13.81-6.93-23.56-17.93-28.18-33.12-4.58-15.07-3.58-29.49 3.88-43.43.58-1.08 1.9-2.33.8-3.59-1.02-1.16-2.47-.32-3.74-.01-5.16 1.23-10.31 2.56-15.51 3.6-3.82.76-6.28 2.47-7.01 6.57-3.01 16.95-2.34 33.76 5.16 49.31 14.6 30.25 38.96 46.1 72.91 46.43 21.87.21 40.2-8.66 55.26-23.64 14.85-14.78 22.18-33.24 21.8-56.72zm-224.23 73.35c.01.78-.3 4.37-.38 5.14 0 2.33.11 4.67-.02 6.99-.86 15.8 4.69 29.63 13.03 42.6 1.6 2.49 3.12 4.2 5.71.44 5.33-7.74 9.86-15.8 11.85-25.04 3.09-14.31.9-28.79 1.35-43.16.52-16.62-6.08-31.06-10.06-46.33-.77-2.94-3.06-5.08-6.17-4.91-3.14.17-4.89 2.47-5.43 5.63-.98 5.77-3.2 11.16-5.13 16.64-1.32 3.74-3.71 7.22-3.77 11.27-.17 11.97-.98 18.78-.98 30.73zm-119.91-196.09c-3.65 0-7.31-.08-10.96.05-1.07.04-2.61-.44-3.19.75-.78 1.59.88 2.31 1.78 3.14 29.99 27.65 64.15 47.63 104.28 56.6 1.25.28 2.78 1.22 3.77.11 1.09-1.22-.26-2.49-.88-3.55-21.12-36.43-52.93-55.22-94.8-57.1zm286.66.45c-52.41-5.82-95.09 24.92-111.43 60.13 40.81-13.58 79.92-28.49 111.43-60.13zm-352.51 7.18c-.05-1.19-.31-2.3-1.18-3.2-4.7-4.81-7.57-10.87-10.76-16.61-2.39-4.29-4.08-3.86-7.46-1.42-8.41 6.07-15.49 13.46-22.06 21.38-9.87 11.9-17.95 24.93-24.15 39.11-.9 2.06-.34 3.32 1.42 4.61 4.27 3.13 8.59 6.23 12.51 9.77 3.28 2.95 4.98 2.69 6.73-1.41 2.99-7.03 7.77-13.08 12.09-19.27 8.01-11.47 18.05-21.09 29.88-28.72 1.56-1.01 3.06-2.08 2.98-4.24zm469.32 40.9c-.31-.66-.76-1.54-1.13-2.45-6-14.71-14.69-27.81-24.96-39.75-6.65-7.73-13.66-15.31-22.41-20.94-1.78-1.14-2.95-1.94-4.36.44-3.95 6.7-7.79 13.48-12.68 19.57-1.84 2.3-1.27 3.94 1.19 5.63 4.08 2.81 8.2 5.55 11.93 8.88 13.25 11.84 23.61 25.9 32.04 41.42 1.51 2.79 2.63 3.09 4.64.92 3.86-4.19 8.73-7.09 13.22-10.46 1.07-.79 2.27-1.46 2.52-3.26zm-148.18 184.42c2 0 3.99.05 5.99-.02 1.46-.05 2.6-.66 2.66-2.35.07-1.91-1.35-1.95-2.7-2.11-8.42-1-16.54-3.17-24.67-5.58-20.62-6.11-37.66-18.22-51.58-33.74-9.79-10.91-18.07-23.65-22.7-38.17-1.4-4.4-3.5-8.59-4.58-13.15-.97-4.07-5.34-5.21-7.72-4.6-3.54.91-.9 4.27-.22 6.65 1.6 5.58 3.65 10.98 5.81 16.38 8.38 21.02 22.35 37.67 39.69 51.81 9.18 7.49 19.6 12.87 30.35 17.51 9.41 4.08 19.23 7.14 29.67 7.37zm-238.34.2c1.96-.25 4.63-.39 7.21-.96 21.53-4.72 40.5-14.34 57.26-28.78 17.44-15.03 30.04-33.18 37.69-54.83 1.32-3.72 1.87-7.67 3.59-11.32.7-1.49 1.4-5.22-2.32-4.24-3.14.83-6.24 2.49-7.38 6.48-5.92 20.71-16.31 38.87-31.29 54.45-9.87 10.27-21.63 18.03-34.13 24.2-11.53 5.69-24.17 9.06-37.17 10.32-1.19.11-2.45.2-2.52 1.78-.07 1.59.85 2.48 2.4 2.59 1.98.14 3.97.19 6.66.31zm99.76-110.44c-.27 1.03-.61 2.08.42 2.78.97.66 1.86.25 2.7-.43 1.89-1.54 4.22-1.65 6.49-2.13 8.85-1.9 17.41-1.51 25.66 2.51 1.12.55 2.27.81 2.8-.79.78-2.34-2.21-7.17-4.76-8.15-9.28-3.59-18.49-3.7-27.96-.46-3.62 1.23-5.12 3.25-5.35 6.67zm18.85-18.89c-4.67.22-9.64-.08-14.55 1.01-1.27.28-2.72-.01-3.49 1.39-.35.64-.17 1.29.4 1.76 1.36 1.13 2.84.83 4.18.09 4.25-2.36 8.86-2.09 13.5-2.41 5.32-.36 10.04 1.61 15.03 2.51 1.35.24 2.5.22 2.75-1.16.26-1.44-1-1.82-2.22-2.09-5.05-1.12-10.19-.94-15.6-1.1zm-89.91 184.45c-.39-.11-.76-.27-1.13-.28-.09 0-.33.64-.28.67.31.21.69.34 1.04.5.1-.25.21-.5.37-.89zm159.16 5.08c.13-.06.26-.13.39-.19-.11-.08-.22-.23-.33-.24-.12-.01-.25.11-.38.17.1.09.21.18.32.26zm-156.96-3.48c-.12.07-.24.14-.35.21.07.11.14.21.21.32.17-.12.35-.25.52-.37-.12-.05-.25-.1-.38-.16z"/><path d="m375.2 225.73c-1.58 5.78-3.72 11.75-4.8 17.91-2.83 16.04-3.53 32.15-2.41 48.51.99 14.47 3.34 28.63 6.62 42.63 3.51 14.98 8.6 29.52 14.18 43.9 6.98 17.99 15.59 35.16 25.72 51.52 6.78 10.95 14.23 21.5 22.45 31.5 12.93 15.72 27.5 29.59 44.24 41.19 3.18 2.2 6.56 3.99 10.05 5.46 3.67 1.54 4.91 4.23 4.93 7.8.05 7.16.12 14.32-.05 21.47-.12 5.07-1.67 6.23-6.66 5.89-4.58-.31-5.08 2.97-5.13 6.28-.1 6.64-.05 13.27-2.84 19.52-3.03 6.79-5.87 13.68-8.95 20.45-5.48 12.03-10.11 24.39-14.78 36.73-6.74 17.81-12.32 36.06-16.91 54.49-4.94 19.84-8.88 39.94-10.86 60.43-1.03 10.65-.14 21.6-3.54 31.99-.97 2.96-2.4 5.77-3.52 8.69-1.01 2.65-.75 5.06 2.35 5.96 2.23.65 2.86 2.19 2.95 4.07.55 11.25 1.33 22.47 3.7 33.53.72 3.35-1.49 1.88-2.98 1.38-11.35-3.86-21.98-9.34-32.31-15.28-18.61-10.71-35.01-24.38-51.03-38.6-15.83-14.05-29.64-29.95-42.85-46.31-11.84-14.66-22.5-30.24-32.09-46.56-11.52-19.6-21.3-39.95-29.44-61.16-2.98-7.78-4.58-15.88-6.63-23.87-.65-2.52-1.81-4.02-3.94-5.31-15.37-9.27-30.02-19.48-43.14-31.84-17.54-16.53-33.21-34.64-47.4-54.11-16.52-22.67-30.78-46.69-43.62-71.55-14.55-28.17-27.13-57.21-37.99-87.02-8.62-23.66-16.02-47.68-22.56-71.98-6.93-25.75-12.41-51.86-16.95-78.1-3.41-19.7-5.99-39.61-7.43-59.61-1.93-26.67-3.77-53.35-2.88-80.1.44-13.4 1.87-26.77 2.83-40.15.21-2.91 1.56-3 3.55-1.49 12.29 9.34 25.49 17.34 38.32 25.88 12.23 8.14 25.16 15.23 37.44 23.31 19.78 13.02 40.68 24.16 60.71 36.76 15.36 9.65 31.61 17.89 47.38 26.9 28.35 16.2 56.98 31.88 86 46.84 17.05 8.78 33.99 17.78 51.47 25.73 10.72 4.87 21.23 10.25 31.56 15.89 3.69 2.01 6.9 5.28 7.24 10.43zm-19.02 23.85c2.98.42 4.6-.49 4.84-2.61.31-2.76-.87-4.58-3.9-5.35-20.08-5.13-39.94-10.97-59.5-17.89-38.52-13.62-76.04-29.55-112.5-47.99-32.11-16.25-63.75-33.28-93.84-53.17-14.64-9.67-29.01-19.68-43.26-29.87-2.52-1.8-5.13-3.21-7.36-.41-2.35 2.95-.06 5.41 2.24 7.13 19.61 14.73 39.81 28.65 60.83 41.26 20.15 12.08 40.51 23.83 61.48 34.49 28.66 14.58 57.67 28.35 87.53 40.37 26.64 10.73 53.5 20.76 81.18 28.47 7.62 2.13 15.16 4.7 22.26 5.57zm-12.21 61.15c1.33 0 2.67-.06 3.99.01 2.53.14 4.92-.18 5.13-3.28.21-3.02-1.88-3.72-4.54-3.97-8.39-.81-16.77-1.74-25.15-2.76-25.16-3.05-50.04-7.74-74.7-13.49-36.03-8.41-71.47-18.9-106.28-31.44-17.34-6.24-34.56-12.8-51.44-20.25-15.32-6.76-30.42-13.92-45.25-21.67-2.23-1.17-5.01-2.33-6.64.49-1.65 2.83-.03 5.07 2.71 6.45 5.32 2.68 10.66 5.3 15.95 8.03 20.81 10.74 42.46 19.53 64.32 27.82 13.94 5.29 27.92 10.46 42.13 15.05 16.1 5.21 32.26 10.29 48.58 14.62 26.23 6.95 52.61 13.44 79.45 17.8 17.19 2.79 34.4 5.16 51.74 6.59zm-108.99 57.93c28.21-.18 51.53-1.61 74.84-3.88 15.21-1.48 30.18-4.03 45.06-7.3 2.54-.56 5.85-1.59 5.01-4.99-.81-3.28-3.69-4.34-7.18-3.47-11.09 2.78-22.39 4.28-33.7 6.01-18.77 2.87-37.63 3.62-56.47 4.34-25.59.98-51.22.19-76.83-.81-.66-.03-1.33-.07-1.99-.13-13.51-1.25-27.02-2.66-40.55-3.72-10.41-.81-20.74-2.24-31.05-3.78-8.35-1.25-16.65-2.84-24.99-4.14-2.58-.4-5.49 0-6.15 2.86-.69 3.02 1.55 4.85 4.39 5.7.47.14.98.17 1.47.25 6.37 1.02 12.76 1.95 19.11 3.08 28.43 5.06 57.19 7.25 85.96 8.62 15.93.77 31.89 1.99 43.07 1.36zm219.37 143.12c-.3-2.34-.19-4.85-3.04-5.22-3.02-.39-4.49 1.62-5.05 4.31-2.13 10.23-5.28 20.2-8.88 29.93-4.92 13.29-10.44 26.36-16.19 39.35-12.36 27.94-26.8 54.75-41.89 81.25-3.52 6.19-7.03 12.41-11.03 18.29-10.27 15.05-19.9 30.54-30.92 45.08-1.86 2.45-2.55 5.27.09 6.94 2.36 1.49 5.04.42 6.79-2.28 2.6-4.03 5.38-7.97 8.18-11.84 13.91-19.19 26.25-39.33 38.32-59.71 10.19-17.2 19.36-34.93 28.19-52.78 11.21-22.65 21.15-45.97 28.69-70.19 2.39-7.73 4.93-15.41 6.74-23.13zm-315.85-35.98c14.52-2.12 29.92-3.55 44.94-6.72 40.34-8.49 80.39-18.12 119.22-32.35 23.66-8.67 47.05-17.8 69.09-30.14 2.69-1.5 4.54-3.04 2.94-6.17-1.54-3.02-4.24-2.22-6.5-1.12-3.1 1.51-5.94 3.54-9 5.13-25.36 13.13-52.06 23.01-79.19 31.67-30.79 9.83-62.04 18.02-93.83 23.97-16.1 3.02-32.19 6.19-48.56 7.45-3.28.25-6.98.96-6.9 4.91.1 4.76 4.43 2.51 7.79 3.37zm282.67-.98c.16-2.93-.82-4.45-2.74-5.06-2.75-.88-3.79 1.14-4.83 3.16-9 17.38-19.26 33.94-30.63 49.92-10.47 14.72-21.49 28.99-32.93 42.91-17.18 20.91-35.62 40.73-55.14 59.5-8.01 7.71-16.35 15.08-24.52 22.63-1.55 1.43-2.88 3.25-1.24 5.2 1.58 1.88 3.96 1.85 5.85.45 3.05-2.25 6.05-4.63 8.79-7.25 17.96-17.21 36.11-34.19 52.4-53.07 15.58-18.05 31.24-35.97 45.3-55.29 12.2-16.76 23.76-33.9 34.26-51.76 2.24-3.83 3.85-8.02 5.43-11.34zm-223.26 81.53c1.69-.52 4.25-1.21 6.73-2.11 12.16-4.38 24.02-9.51 35.83-14.74 15.15-6.72 30.15-13.8 44.73-21.66 24.36-13.13 48.23-27.1 71.15-42.68 10.84-7.36 20.93-15.63 31.22-23.66 3.64-2.84 6.66-6.45 9.99-9.69 1.76-1.71 2.5-3.51.8-5.69-1.91-2.45-3.47-.65-5.06.44-.82.56-1.65 1.14-2.36 1.83-12.97 12.71-27.77 23.12-42.81 33.09-25.54 16.93-51.93 32.4-79.43 46.05-23.2 11.52-46.52 22.63-71.05 31.02-1.49.51-2.53 1.56-3.48 2.73-.81.99-.9 2.17-.43 3.3.61 1.4 1.83 1.85 4.17 1.77z" fill="#545454"/><path d="m896.9 524.53c-2.9-9.29 2.05-15.31 11.87-21.09 22.45-13.21 39.44-32.63 54.96-53.33 9.38-12.51 17.73-25.72 24.81-39.58 11.62-22.76 21.36-46.32 27.34-71.32 4.28-17.91 7.28-35.88 8.22-54.38.89-17.48-.61-34.44-5.61-51.02-4.09-13.56 1.55-16.89 9.6-21.09 14.39-7.51 29.1-14.4 43.72-21.47 18.03-8.73 35.87-17.84 53.51-27.34 15.89-8.55 31.82-17.02 47.57-25.81 19.06-10.64 38.06-21.42 56.91-32.43 23.05-13.47 46.06-27.01 68.82-40.96 21.34-13.08 42.52-26.43 63.24-40.47 4.94-3.35 9.97-6.57 14.81-10.06 2.78-2.01 3.64-.57 3.84 1.84 1.07 13.18 2.33 26.35 2.15 39.61-.2 14.65.32 29.31-.24 43.94-.72 19.03-2.36 37.99-4.51 56.95-2.35 20.75-5.49 41.35-9.49 61.8-5.66 28.93-12.59 57.6-21.22 85.81-8.05 26.31-17.32 52.22-27.95 77.59-9.09 21.69-19.46 42.82-30.59 63.53-8.69 16.17-18.27 31.85-28.64 46.97-16.53 24.08-34.75 46.88-56.44 66.58-12.88 11.7-26.64 22.38-42.06 30.66-4.21 2.26-4.76 6.52-5.45 10.11-2.51 12.99-7.68 25.03-12.67 37.09-6.6 15.96-14.57 31.3-23.69 45.99-12.07 19.43-25.21 38.09-40.17 55.44-9.75 11.31-19.77 22.36-30.71 32.51-24.31 22.54-50.42 42.49-81.62 54.81-2.21.87-5.68 2.6-6.65 1.75-1.92-1.68.46-4.52.67-6.94.83-9.24 1.73-18.47 2.48-27.71.18-2.23 0-4.08 3.07-4.69 2.22-.44 4.03-2.73 2.41-4.98-6.36-8.85-5.44-19.22-6.25-29.12-1.85-22.49-5.38-44.67-10.7-66.59-6.1-25.13-13.94-49.67-23.3-73.8-6.16-15.88-13.32-31.31-19.82-47.02-1.62-3.92-1.15-7.83-1.34-11.77-.12-2.49-.3-4.92-.73-7.4-.59-3.37-2.5-4.44-5.24-3.4-4.1 1.54-4.75-.85-4.86-3.78-.18-4.49-.05-8.99-.05-15.43zm138.25-274.51c5.77-1.46 11.58-2.8 17.32-4.4 21.1-5.87 41.93-12.62 62.38-20.48 15.79-6.07 31.79-11.75 47.1-18.9 18.17-8.48 36.39-16.86 54.33-25.88 26.98-13.57 53.2-28.43 78.93-44.14 18.51-11.31 36.38-23.67 53.8-36.63 2.72-2.02 3.7-4.79 1.88-7.33-1.95-2.71-4.49-1.26-6.89.46-22.19 15.94-44.65 31.47-68.17 45.44-31.29 18.59-63.46 35.49-96.49 50.76-24.09 11.14-48.47 21.57-73.42 30.65-23.54 8.57-47.37 16.18-71.72 22.07-2.75.67-4.25 2.05-3.87 4.74.36 2.51 2.17 3.65 4.82 3.64zm12.7 60.7c6.16.03 12.17-1.33 18.26-1.94 21.77-2.16 43.24-6.11 64.59-10.67 20.89-4.47 41.58-9.74 62.11-15.64 19.58-5.62 39.06-11.65 58.16-18.69 16.93-6.24 33.83-12.58 50.42-19.76 15.97-6.92 31.65-14.39 47.09-22.36 2.65-1.37 6.65-2.97 4.63-6.91-2.06-4.04-5.51-1.53-8.18-.12-15.71 8.33-31.86 15.79-48.18 22.76-19.04 8.14-38.54 15.21-58.13 22.02-28.18 9.8-56.76 18.13-85.67 25.43-14.45 3.65-29.08 6.39-43.69 9.3-16.73 3.34-33.56 5.8-50.51 7.59-5.26.56-10.51 1.24-15.77 1.9-2.39.3-4.29 1.35-4 4.08.26 2.41 2.05 3.17 4.35 3.03 1.52-.1 3.03-.02 4.52-.02zm103.36 57.74c19.55.21 36.94-1.08 54.35-1.64 23.24-.75 46.23-3.6 69.24-6.38 10.64-1.28 21.32-2.75 31.78-5.31 2.81-.69 4.61-2.07 3.84-5.21-.76-3.08-3.21-3.61-5.88-3.17-2.94.48-5.81 1.41-8.75 1.82-16.88 2.34-33.78 4.45-50.71 6.44-22.27 2.61-44.59 3.64-66.92 4.37-27.72.9-55.49.76-83.16-1.84-11.03-1.04-22.09-1.88-33.03-3.8-7.83-1.37-15.68-2.62-23.37-4.65-2.63-.7-5.19-.71-6.37 2.16-1.24 3.01 1.1 4.29 3.2 5.86 2.41 1.79 5.12 1.11 7.64 1.75 17.57 4.47 35.59 6.27 53.54 7.4 18.86 1.19 37.74 3.33 54.6 2.2zm-213.43 144.25c.18.98.35 2.46.74 3.89 7.18 26.37 17.29 51.59 28.86 76.33 7.29 15.59 14.91 30.99 23.02 46.14 15.26 28.5 32.5 55.79 51.19 82.16 2 2.82 4.09 5.62 6.2 8.38 1.65 2.16 3.98 3.7 6.43 2 2.67-1.84 1.96-4.61.34-7.04-.74-1.1-1.47-2.21-2.31-3.24-8.11-10.04-15.22-20.82-22.22-31.6-9.33-14.36-17.99-29.17-26.48-44.07-14.51-25.48-27.1-51.9-38.91-78.69-7.88-17.87-14.03-36.38-18.8-55.33-.66-2.63-1.43-5.36-4.94-5.12-3.88.26-2.87 3.34-3.12 6.19zm316.82-37.09c2.08-.99 6.38 1.76 6.8-3.07.37-4.26-3.72-4.25-6.42-4.7-9.96-1.63-19.97-2.88-29.95-4.34-19.5-2.86-38.73-7.16-57.83-11.87-17.84-4.4-35.54-9.4-53.09-14.95-24.86-7.85-49.25-16.81-72.81-27.96-6.28-2.97-12.32-6.46-18.52-9.61-2.32-1.18-4.77-1.02-6.15 1.38-1.39 2.44.79 3.93 2.29 5.4.57.56 1.43.83 2.15 1.25 19.18 10.95 39.64 18.97 60.22 26.82 20.61 7.86 41.72 14.12 62.91 20.05 22.65 6.34 45.6 11.53 68.76 15.69 13.66 2.45 27.38 4.59 41.64 5.91zm-135.25 178.72c1.7.18 3.1-.25 3.71-1.92.93-2.56-1.07-4.33-2.49-5.49-4.52-3.67-8.34-8.09-12.79-11.75-9.12-7.5-17.06-16.18-25.35-24.5-16.74-16.81-32.25-34.72-47.23-53.12-17.9-21.99-34.62-44.77-48.94-69.25-3.16-5.4-5.87-11.06-8.91-16.54-.95-1.7-2.55-2.76-4.61-2-2.23.83-2.02 2.86-1.81 4.66.13 1.12.55 2.27 1.1 3.26 3.79 6.76 7.38 13.61 11.35 20.28 12.22 20.52 26.17 39.77 40.99 58.47 13.59 17.15 27.97 33.57 42.82 49.62 13.96 15.09 29.05 29.02 44.11 42.98 2.26 2.12 4.38 5.12 8.05 5.3zm73.55-98.01c3.28.18 5.22-.8 5.45-3.01.32-3.18-2.56-3.97-4.85-4.8-19.04-6.88-37.61-14.88-55.85-23.64-16.6-7.97-33.11-16.18-48.98-25.53-13.66-8.05-27.39-15.98-40.53-24.95-12.57-8.58-25.33-16.85-36.83-26.88-4.25-3.7-8.48-7.43-12.76-11.1-1.7-1.46-3.51-2.78-5.57-.41-2.08 2.4-.88 4.26.94 6.03 8.93 8.69 18.41 16.87 28.57 23.92 16.59 11.52 33.38 22.77 50.84 33.08 32.91 19.44 67.01 36.27 102.32 50.75 5.97 2.46 12.08 4.59 17.25 6.54z" fill="#545454"/><path d="m896.91 564.37c4.46 3.17 5.19 8.59 7.28 13.01 5.85 12.4 11.22 25.06 16.12 37.86 4.97 12.97 9.69 26.02 13.87 39.31 6.97 22.13 12.41 44.58 16.38 67.37 4.49 25.78 5.6 51.87 4.06 77.93-1.07 18-4.52 35.8-10.22 52.99-5.97 17.99-15.25 34.05-28.46 47.89-16.65 17.44-35.68 31.63-57 42.71-20.08 10.43-41.14 18.68-63.12 23.96-25.82 6.2-51.96 10.47-78.73 9.78-19.14-.49-38.3.14-57.44-.24-18.27-.36-36.24-3.52-54.09-7.31-20.19-4.29-39.7-10.79-58.47-19.27-21.03-9.49-40.55-21.46-58.06-36.73-12.78-11.15-23.71-23.7-31.98-38.38-7.21-12.79-11.43-26.82-14.77-41.08-4.72-20.13-6.14-40.65-5.86-61.21.18-13.39 1.62-26.74 3.4-40.08 2.04-15.3 4.7-30.45 8.46-45.37 3.64-14.43 7.78-28.76 12.41-42.9 5.41-16.5 11.62-32.74 18.52-48.68 5.06-11.68 10.56-23.17 16-35.03 1.58 1.29 1.05 2.67 1.05 3.81.06 10.32-.38 20.66.14 30.96 1.49 29.1.54 58.21.71 87.31.02 3.75 1.61 5.95 4.69 7.44 1.91.92 2.73 2.12 2.13 4.35-3.29 12.21-4.39 24.68-4.78 37.31-.52 16.96.17 33.76 4.09 50.31 4.55 19.21 9.22 38.48 21.16 54.75 9.57 13.03 21.27 24.09 34.04 34 16.48 12.78 34.52 22.91 54 30.22 18.49 6.94 37.59 11.8 57.19 14.69 9.23 1.36 18.44 1.98 27.76 2.03 19.61.12 38.5-4.04 57.3-8.9 20.2-5.22 39.41-13.01 57.39-23.52 18.61-10.87 34.69-24.84 49.13-40.94 14.69-16.38 20.55-36.26 25.88-56.83 4.93-19.04 6.21-38.25 5.63-57.71-.34-11.44-1.68-22.82-4.22-33.97-.74-3.24.1-4.73 2.64-5.87 3.92-1.76 4.78-4.77 4.77-8.87-.12-28.96-.43-57.94.23-86.89.23-10.06-1.06-20.18.72-30.2z" fill="#545454"/><path d="m883.32 742.77c.21 18.88-1.63 37.45-7.95 55.41-9.95 28.25-27.63 50.99-51.04 69.05-18.35 14.16-39.15 24.1-61.38 31.02-21.48 6.68-43.34 11.55-65.81 11.97-20.54.38-40.54-4.18-60.31-9.63-22.56-6.22-43.71-15.48-62.98-28.78-16.23-11.19-30.08-24.97-41.07-41.27-12.29-18.25-20.1-38.36-22.95-60.39-2.97-22.95-1.54-45.73 1.34-68.52.66-5.25 1.85-5.67 6.39-3.17 25.37 13.96 50.78 27.84 76.12 41.87 24.33 13.47 48.59 27.05 73.02 40.36 5.66 3.09 10.93 4.32 16.91 4.15 11.79-.34 23.62.91 35.38-.79 1.3-.19 2.53-.31 3.76-1.05 18.72-11.29 38.23-21.15 57.31-31.78 16.21-9.04 32.16-18.58 48.56-27.26 15.79-8.36 31.37-17.09 46.97-25.8 2.92-1.63 4.22-1.4 4.79 2.44 2.03 13.99 3.09 28.03 2.94 42.17z" fill="#c45979"/><path d="m669.49 596.35c0 23.47-.57 46.97.14 70.42 1 33.12.27 66.23.75 99.34.03 2.07.82 4.65-1.58 5.87-2.31 1.17-3.96-.91-5.81-1.93-16.85-9.31-33.73-18.56-50.58-27.86-23.12-12.75-46.21-25.53-69.33-38.27-9.85-5.43-19.64-10.96-29.63-16.11-4.31-2.22-6.16-5.06-6.64-10.02-3.49-35.68-3.03-71.46-2.43-107.2.38-23.13-.85-46.2-.58-69.31.27-22.45-.02-44.9-.02-67.35 0-5.97.7-6.35 5.8-3.52 31.9 17.68 63.78 35.4 95.71 53.04 19.31 10.67 38.61 21.35 58.09 31.7 4.52 2.4 6.04 5.43 6.01 10.29-.15 23.64-.07 47.28-.07 70.92.05-.01.11-.01.17-.01z" fill="#0fcc8c"/><path d="m722.97 655.2c0-35.99-.2-68.61.11-101.23.1-10.63.63-21.26.63-31.9 0-2.82 1.13-4.43 3.67-5.82 28.11-15.37 56.15-30.88 84.19-46.38 23.91-13.22 47.8-26.48 71.72-39.69 4.71-2.6 5.37-2.06 6.02 3.32 1.87 15.5-.61 30.83-1.54 46.22-.71 11.73.16 23.44.7 35.12.23 5 .14 9.89-.16 14.86-.48 7.8.72 15.64.53 23.4-.97 41.41-.29 82.84-.76 124.25-.04 3.73-1.13 6.23-4.5 8.06-24.01 13.06-47.98 26.18-71.91 39.39-22.78 12.58-45.51 25.26-68.24 37.93-5.21 2.91-10.29 6.05-15.54 8.89-3.49 1.89-6 .3-5.86-3.67 1.41-38.68.37-77.41.94-112.75zm41.84-15.25c3.27-3.6 6.59-6.9 4.43-12-.42-1-3.6-3.29-2.72-4.48.28-.38 3.24.79 3.76.95 1.55.47 1.62 1.9 1.79 3.23.4 3.12.87 6.24 1.26 9.36.23 1.8.72 3.45 2.93 3.2s2.39-2.34 2.3-3.84c-.14-2.46-1.05-4.87-1.32-7.33-.3-2.78-1.59-5.76 2.58-7.45 2.17-.88 1.57-3.23-.66-4.06-1.86-.69-3.42-1.26-3.42-3.58 0-3.66-.08-7.31-.02-10.97.03-1.56.26-3.17 2.59-2.36 1.92.67 3.71.78 4.33-1.7.56-2.22-.5-3.87-2.24-5.14-3.58-2.59-8.73.16-9.81 5.68-.85 4.35-1.84 8.78-.71 13.33.46 1.85 1.16 4.33-1.07 5.42-3.91 1.91-5.44 6.1-9.35 8.41-4.08 2.41-2.58 8.68-4.49-1.92-.26-1.46-.46-2.97-.95-4.37-2.07-5.98-7.23-9.54-12.35-8.64-5.57.98-8.1 4.64-8.17 11.83-.11 10.81-.28 21.62-.3 32.43-.01 6.06 2.06 7.2 7.82 5.09 6.2-2.28 9.08-7.52 11.96-12.76 1.53-2.79 3.07-4.17 6.11-1.83 2.13 1.64 4.6 1.67 7.11.67 2.3-.91 5.44-1.51 5.18-4.49-.3-3.34-3.82-1.52-6.57-2.68zm79-60.43c.21 1.57 1.84 12.09 1.93 12.63.57 3.22 2.95 4.38 5.69 4.68 3.11.35 5.48-1.24 6.81-4.03 2.46-5.16 4.32-10.51 2.8-16.33-.7-2.68-1.27-5.53-5.08-5.85-3.84-.33-7.02.38-8.76 4.11-1.33 2.85-2.28 4.94-6.56 4.56-4.11-.37-8.29-1.76-9.25-5.87-.38-1.65-.94-2.96-2.73-2.97-1.96-.01-2.4 1.67-2.47 3.16-.1 2.28-.82 3.41-3.29 4.1-2.6.73-2.81 3.26-.24 4.18 3.63 1.29 2.88 3.58 2.86 6.33-.05 6.29.36 12.58.6 18.86.06 1.64 1.16 2.39 2.6 2.47 1.48.09 1.79-1.18 2.17-2.31.45-1.32.16-2.6.1-3.93-.23-5.65-.23-11.31-.44-16.96-.16-4.21 3.44-3.89 5.6-4.03 3.28-.21 2 2.81 1.72 4.43-.71 4.15-.33 8.3-.52 12.45-.1 2.19.51 4.35 2.94 4.43 2.6.09 2.84-2.43 3.1-4.37.37-2.77-.76-16.11.42-19.74zm-72.98-30.39c6.73-.21 9.24 3.49 7.11 9.22-1.82 4.88-5.43 8.31-9.88 10.8-3.61 2.02-7.38 3.77-11.09 5.61-1.94.96-4.51 1.81-3.4 4.57 1.14 2.83 3.65 1.5 5.62.84 2.03-.67 4.03-1.5 5.94-2.45 7.84-3.92 15.03-8.64 18.62-17.11 2.12-4.99 1.11-9.87-2.02-14.11-2.67-3.61-6.46-4.34-10.71-2.97-.77.25-1.65.21-2.47.2-1.13-.01-2.49.21-2.86-1.3-.27-1.12.62-1.75 1.4-2.41 4.16-3.58 8.53-6.81 13.64-8.98 1.87-.79 3.83-2.12 2.19-4.54-1.45-2.14-3.37-2.16-5.56-.54-3.06 2.26-6.38 4.16-9.5 6.34-2.3 1.61-4.66 3.22-6.63 5.19-2.44 2.44-4.03 5.62-2.56 9.03 1.52 3.51 5.21 3.03 8.27 3.18 1.61.08 3.25-.47 3.89-.57zm103.44 87.01c.1 4.03-.06 7.95-1.93 11.67-1.42 2.82-3.1 2.39-4.36.23-1.58-2.72-2.53-5.76-2.32-9.04.12-1.82.31-4.17-2.26-4.13-2.37.03-3.23 2.11-3.15 4.3.2 5.01.83 9.91 3.97 14.12 1.7 2.28 3.58 3.83 6.73 2.94 3.15-.88 4.77.28 4.41 3.76-.18 1.81-.11 3.65-.16 5.48-.06 2.13-.67 4.1-2.84 4.8-2.22.72-3.22-1.02-4.21-2.64-.82-1.33-1.99-2.5-3.67-1.65-1.89.96-1.68 2.86-1.01 4.38 1.76 3.99 4.72 7.32 9.12 7.45 4.03.12 6.24-3.15 7.3-7 3.79-13.71 0-27.34-.41-41-.05-1.77-1.65-2.38-3.32-2.23-1.87.16-2.54 1.45-2.45 3.12.08 1.82.36 3.63.56 5.44zm-102.05 58.93h.29c0 2.49.04 4.99-.02 7.48-.03 1.13.02 2.9-1.36 2.82-5.13-.3-7.96 3.61-11.69 5.87-1.08.65-2.21 1.92-3.6 1.05-1.59-.99-.9-2.65-.64-4.07 1.73-9.41-1.36-18.86.18-28.29.25-1.56-.41-3.39-2.68-3.49-2.54-.11-2.97 1.69-3.13 3.6-.11 1.32-.16 2.67-.05 3.99.8 10.28.74 20.55-.32 30.82-.15 1.48-.14 3.01.03 4.48.4 3.56 2.48 4.54 5.5 2.56 2.06-1.35 3.79-3.41 6-4.3 5.4-2.17 7.94-9.72 15.42-8.06 1.11.25 2.19-1.4 2.3-2.86.48-6.34-.83-12.58-1.08-18.88-.06-1.4-1.09-2.96-2.99-2.6-1.42.27-2.22 1.34-2.19 2.91.06 2.32.03 4.65.03 6.97zm15.54-29.34h.05c0-1.5.03-2.99-.01-4.49-.04-1.76.51-4.15-2.08-4.32-2.66-.18-3.14 2.29-3.21 4.22-.46 12.96.3 25.88 1.88 38.75.3 2.44 1.8 3.24 4.29 2.66 12.49-2.91 16.84-12.49 10.7-23.69-1.57-2.87-3.79-4.75-7.18-4.17-3.83.65-4.68-1.24-4.46-4.47.1-1.49.02-2.99.02-4.49zm7.52-125.68c-1.09-3.34-.58-5.44-.25-7.57.72-4.58 1.29-9.18 2.02-13.76.29-1.84.13-3.45-1.92-3.93-2.19-.51-2.85.96-3.14 2.84-.37 2.46-.92 4.89-1.34 7.34-1.95 11.26-3.96 22.51-3.63 34.01.06 1.94-.02 4.56 2.65 4.6 2.94.04 2.77-2.65 3.05-4.8.3-2.37-1.39-5.85.99-6.86 2.12-.9 2.91 2.95 4.73 4.24 1.18.84 2.13 2.33 3.81.83 1.35-1.21 1.65-2.76.41-3.94-5.28-5.02-3.43-9.59.58-14.19.53-.6.84-1.44 1.1-2.22.47-1.36.37-2.71-.99-3.51s-2.5-.33-3.43.93c-1.32 1.81-2.74 3.55-4.64 5.99zm24.43 127.49c.21 10.23 6.59 14.13 15.03 9.2.56-.32 1.23-.56 1.86-.61 2.79-.22 3.25-2.05 2.81-4.24-1.06-5.2-2.15-10.41-3.47-15.55-.63-2.45-1.95-3.81-5.13-3.07-7.91 1.84-11.28 5.88-11.1 14.27zm-26.25-53.76c.21 3.06.5 7.19.79 11.32.12 1.67.73 2.95 2.65 2.92 1.86-.03 2.64-1.25 2.66-2.94.03-2.15.29-4.4-.21-6.45-1.13-4.68 1.14-8.38 2.98-12.23.47-.98 1.14-2.22 2.51-2.1 1.5.14 1.61 1.64 1.78 2.67.57 3.41.92 6.87 1.37 10.3.21 1.64.17 3.65 2.45 3.67 2.14.02 2.84-2.02 2.77-3.54-.31-6.22.11-12.62-3.46-18.26-1.48-2.33-3.55-2.96-5.97-2.12-3.86 1.35-10.35 11.37-10.32 16.76zm89.4-44.44c-.07-.01-.13-.02-.2-.02 0-1 .03-2-.01-2.99-.16-4.45-1.93-7.76-6.63-8.67-2.44-.47-11.7 5.39-11.74 7.64-.1 6.43.11 12.86.37 19.29.05 1.23.64 2.88 2.24 2.91 1.76.03 2.6-1.41 2.7-3.02.17-2.65.29-5.33.16-7.98-.16-3.28.86-6.24 2.1-9.15.64-1.49 1.38-3.39 3.45-2.96 2.12.44 1.96 2.49 1.86 4.1-.2 3.3-.68 6.59-.91 9.9-.12 1.71.9 3.03 2.52 3.19 1.76.18 2.61-1.25 2.85-2.86.45-3.12.82-6.25 1.24-9.38zm-49.4-66.67c.04 0 .09 0 .13.01 0-1.49.12-3-.03-4.48-.15-1.51-.57-3.07-2.47-3.23-1.85-.16-2.65 1.07-3 2.68-.25 1.13-.57 2.26-.66 3.41-1.04 12.22-2.03 24.43-3.04 36.65-.17 2.11.02 4.51 2.33 4.87 2.7.42 3.56-1.97 3.75-4.27 1.03-11.87 2-23.76 2.99-35.64zm17.19-10.91c.11-2.93.59-5.98-2.37-6.34-3.15-.37-2.8 3.01-3.48 5.09-.05.16-.1.32-.12.48-1.15 12.52-2.32 25.04-3.45 37.56-.2 2.22-.15 4.85 2.66 4.98 2.43.12 2.81-2.34 3.01-4.39 1.27-12.65 2.54-25.31 3.75-37.38zm2.35 144.94c-2.58.35-4.37 1.97-6.26 3.65-5.96 5.3-7.14 11.75-4.85 19.05.78 2.48-.6 7.33 4.03 6.33 3.65-.79 1.42-4.78 1.36-7.32-.15-6.7.87-12.75 7.42-16.34 1.27-.7 2.26-1.51 1.74-3.1-.52-1.6-1.65-2.43-3.44-2.27zm-50.6 34.82c1.07 5.87 1.06 11.91 2.76 17.69.47 1.6 1.04 2.87 2.95 2.69 1.99-.19 2.42-1.88 2.28-3.3-.3-3.12-.96-6.22-1.52-9.31-1.03-5.6.37-8.55 5.43-11.07 1.26-.63 2.48-1.25 2.25-2.87-.17-1.18-.81-2.11-2.08-2.55-3.92-1.33-12.13 4.59-12.07 8.72zm6.91-128.21c0 .99-.05 1.99.01 2.98.13 2.3-1.05 5.73 2.76 5.67 3.24-.05 3.16-3.26 3.31-5.73.33-5.43-.02-10.9 1.07-16.3.41-2.02.05-4.39-2.4-4.76-2.99-.45-3.35 2.25-3.59 4.32-.53 4.59-.79 9.21-1.16 13.82zm5.87 52.94c-.08.01-.17.03-.25.04.81 5.72 1.54 11.45 2.47 17.15.2 1.23.94 2.54 2.67 2.45 1.47-.08 2.21-1.24 2.21-2.3.01-7.26-.15-14.53-2.03-21.62-.3-1.13-1.21-2.08-2.6-1.85-1.44.24-2.42 1.06-2.47 2.65-.03 1.16 0 2.32 0 3.48zm-25.31 32.52c-1.22-4.95-.63-10.28-.81-15.57-.05-1.48.04-3.4-1.92-3.47-2.41-.08-2.13 2.05-2.15 3.66-.05 5.31-.08 10.62-.08 15.93 0 1.91.19 3.98 2.69 3.92 2.76-.08 2.04-2.47 2.27-4.47zm28.84-117.72c.25-1.97-1.47-2.78-3.39-2.82-2.39-.05-3.75 1.48-3.43 3.86.23 1.75.6 3.93 3.07 3.87 2.69-.06 3.66-1.9 3.75-4.91zm-29.04 92.16c-.05-2.26-1.22-3.14-2.86-3.24-1.91-.12-2.73 1.12-2.46 2.89.23 1.54.92 2.94 2.8 2.95 1.94.02 2.49-1.3 2.52-2.6z" fill="#0fcc8c"/><path d="m634.21 92.48c6.2-2.19 11.47-2.94 16.65-3.43 6.1-.58 12.3-.21 18.46-.13 2.33.03 4.73.42 6.48 2.13 3.27 3.2 5.94 2.03 8.42-.93 3.51-4.19 6.53-8.8 10.6-12.51 2.05-1.87 4.13-4.82 6.87-4.14 3.22.81 3.23 4.66 3.95 7.51.28 1.11.3 2.29.45 3.44.62 4.86 2.84 6.49 7.78 5.66 13.42-2.25 26.78-1.63 40.08.93.92.18 1.96.39 2.57 1.69-4.29 2.65-8.53 5.43-12.93 7.95-3.1 1.77-4.61 4.69-6.14 7.61-.75 1.43-.52 3 .91 4.01 1.2.85 2.71 2.06 3.98.53 3.84-4.61 8.8-2.46 13.01-1.78 26.81 4.33 53.42 9.79 79.32 18.01 13.9 4.41 27.16 10.67 40.25 17.19 2.71 1.35 3.27 2.47 1.33 5.2-6.34 8.93-13 17.58-20.49 25.57-1.21 1.29-2.63 1.8-4.48 1.49-14.39-2.42-28.68-1.93-42.94 1.23-18.61 4.12-35.21 12.29-50.01 24.23-14.07 11.35-24.75 25.33-32.34 41.69-.95 2.06-2.35 3-4.59 3.16-17.08 1.27-34.14 1.69-51.22.02-1.98-.19-3.33-.61-4.22-2.69-7.23-17.02-18.9-30.85-32.86-42.5-11.73-9.79-25.13-16.89-40.14-21.09-11.71-3.28-23.46-5.4-35.53-5.57-5.43-.08-10.92.67-16.3 1.52-2.51.39-4.09-.18-5.71-1.91-7.5-8.02-14.04-16.77-20.13-25.89-1.86-2.78-.05-3.48 1.78-4.4 10.34-5.27 20.92-10 31.7-14.32 14.22-5.68 29.13-8.7 43.92-12.32 15.95-3.91 32.05-6.82 48.24-9.39 2.65-.42 4.74-.51 6.84 1.52 1.73 1.68 3.95 1.6 5.86-.08 2.03-1.79 1.01-3.38-.19-5.21-4.03-6.13-10.41-9.07-16.46-12.48-.54-.27-1.07-.56-2.77-1.52z" fill="#545454"/><path d="m719.22 366.09c3.82 4.96 6.78 9.05 10 12.93 7.31 8.8 15.71 16.37 24.81 23.38 10.83 8.35 23.05 13.71 35.52 18.63 5.36 2.11 11.19 3.03 16.81 4.44.94.24 2.13.02 2.46 1.23.33 1.23-.76 1.67-1.55 2.25-12.76 9.51-25.53 19.02-38.28 28.55-10.07 7.53-20.09 15.11-30.17 22.62-11.56 8.61-23.16 17.17-34.75 25.75-.8.59-1.85.95-2.45 1.69-3.54 4.38-6.93 3.09-10.72.19-10.66-8.15-21.46-16.13-32.21-24.17-18.44-13.8-36.89-27.6-55.33-41.41-5.97-4.47-11.93-8.97-17.92-13.42-.8-.59-2.03-1.02-1.9-2.09.2-1.62 1.78-1.06 2.83-1.28 27.27-5.7 50.24-19.29 69.77-38.77 5.58-5.57 10.03-12.28 15.7-19.36 0 7.43.28 13.92-.06 20.38-.75 14.43.67 28.49 7.27 41.53 3.28 6.46 7.3 12.57 11.27 18.65 3.1 4.76 8.37 5.02 11.35.15 6.45-10.54 13.72-20.8 16.19-33.25 2.5-12.61 2.94-25.35 1.38-38.15-.33-3-.02-6.11-.02-10.47z" fill="#545454"/><path d="m873.2 1024.07c-4.64.05-9.27.44-13.87-.9-2.62-.76-5.39-.13-7.52 1.75-8.99 7.93-20.29 9.44-31.44 11.04-5.49.79-11.14 1.9-16.78.14-1.34-.42-3.2-.4-4.41.21-6.61 3.36-13.94 4.16-20.89 6.29-13.8 4.23-33.53-3.74-35.59-23.44-1.08-10.37-.62-20.49 1.07-30.68.54-3.24 2.13-4.43 5.27-4.74 36.98-3.7 72.4-13.18 106-29.15 7.64-3.63 15.06-7.74 22.18-12.36 5.21-3.38 6.24-3.19 9.5 1.93 8.3 13.04 16.04 26.41 19.65 41.63 2.14 9.02 3.17 18.34-3.05 26.23-6.79 8.6-16.03 12.65-27.13 12.07-.99-.06-1.99-.02-2.99-.02z" fill="#c87c3b"/><path d="m649.4 1006.1c-.36 8.9.17 17.94-5.08 25.96-5.77 8.8-19.14 14.21-29.26 11.05-7.26-2.26-15.02-2.77-21.85-6.58-1.55-.87-3.93-.55-5.88-.37-15.24 1.46-29.66-1.27-43.24-8.32-1.16-.6-2.15-1.55-3.12-2.45-2.25-2.09-4.98-3.02-7.83-2.27-7.58 1.99-15.25.93-22.86.82-11.86-.16-23.29-10.1-25.7-21.69-1.48-7.11-.21-14.08 2.32-20.51 5.22-13.28 10.91-26.39 18.81-38.41 2.19-3.33 3.83-4.06 7.5-1.78 19.71 12.22 40.74 21.69 62.87 28.59 21.73 6.77 43.89 11.64 66.62 13.55 3.68.31 5.38 1.78 5.54 5.51.22 5.64 1.77 11.18 1.16 16.9z" fill="#c87c3b"/><path d="m567 428.31c-4.58-3.21-9.14-6.45-13.75-9.62-10.9-7.49-21.93-14.26-34.55-19.16-29.91-11.62-50.61-33.65-63.56-62.88-7.94-17.91-11.67-36.65-10.44-56.34.82-13.06 7.8-23.42 14.02-34.2 9.69-16.78 21.82-31.28 38.04-42.19 2.93-1.97 4.71-2.03 7.1.6 7.83 8.61 15.43 17.45 24.16 25.19 2.66 2.35.77 3.07-1.22 4.08-26.08 13.22-41.17 34.72-46.1 63.16-6.69 38.6 14.67 77.14 50.68 92.67 36.3 15.66 79.04 4.55 102.59-26.87 15.19-20.27 20.71-43.03 16.12-67.97-.93-5.04.48-5.68 4.84-4.83 3.08.6 6.31.84 9.44.65 4.7-.29 5.91 2.21 6.27 6.24 1.01 11.06-1.53 21.62-5.16 31.8-13.35 37.39-38.16 63.34-76.64 75.22-7.67 2.37-15.59 3.38-23.58 4.07-5.93.51-11.19-.69-15.57-5-1.17-1.15-2.61-2.11-4.09-2.81-2.52-1.19-4.07.72-5.49 2.29-1.36 1.5-.47 2.68.97 3.64 9.45 6.31 17.53 14.44 27.22 20.42.29 1.1-.6 1.41-1.3 1.84z" fill="#fff"/><path d="m818.8 431.32c2.59-4.73 7.78-6.25 11.67-9.36 6.62-5.29 13.58-10.16 20.39-15.22 1.6-1.19 3.71-2.34 1.61-4.67-1.58-1.76-3.43-3.35-6.03-1.57-.14.09-.28.19-.39.31-8.32 8.95-18.84 7.85-29.28 6.06-36.02-6.19-62.95-25.34-80.92-57.17-8.88-15.74-14.87-32.29-14.75-50.61.05-7.36.7-8 7.82-8.54 4.28-.33 10.15-2.25 12.43-.22 2.53 2.25-.42 7.96-.91 12.17-4.22 36.35 18.77 74.43 53.03 87.63 32 12.33 62.07 8.01 88.12-13.67 32.1-26.72 38.65-69.58 21.61-104.19-8.5-17.26-21.21-30.42-38.69-38.75-2.23-1.06-2.84-2.03-.74-3.88 7.76-6.81 14.48-14.64 21.54-22.14 4.81-5.11 7.27-5.17 12.91-1.24 18.12 12.61 29.48 30.66 40.45 49.23 13.22 22.38 9.84 45.37 2.74 68.06-11.28 36.05-34.08 62.74-69.69 76.5-15.1 5.83-26.86 16.2-40.32 24.21-4.05 2.41-7.95 5.09-11.91 7.65-.26-.18-.49-.37-.69-.59z" fill="#fff"/><path d="m716.11 576.46c0 15.64.4 31.3-.07 46.93-1.46 48.57-.44 97.14-.84 145.71-.05 6.16-1.06 7.18-7.36 7.19-7.82.02-15.65-.11-23.47.05-4.72.1-6.56-2.04-6.54-6.6.06-15.64.26-31.29-.08-46.93-1.4-64.05-.59-128.1-.9-192.15-.04-7.56.01-7.44 7.4-8.73 9.57-1.67 19.16-.33 28.73-.22 3.22.04 3.27 3.62 3.27 6.33v48.43c-.06-.01-.1-.01-.14-.01z" fill="#0fcc8c"/><path d="m565.44 389.09c-25.48-.79-46.29-10.63-62.1-31.07-11.36-14.69-16.74-31.21-16.2-49.53.73-24.67 11.41-44.52 30.65-59.84 4.55-3.63 9.62-6.46 14.72-9.22 2.92-1.58 5.51-1.4 8.2.97 5.23 4.62 10.96 8.61 16.83 12.4 1.08.7 2.65 1.4 2.46 2.86-.24 1.81-2.1 1.16-3.3 1.41-24.29 5.2-41.31 22.37-45.41 45.85-4.53 25.95 8.09 50.1 32.1 61.4 34.69 16.34 75.88-6.94 79.78-45.06 1.09-10.65-.46-20.79-5.39-30.35-.46-.89-.96-1.76-1.29-2.7-.44-1.23-1.09-2.61-.1-3.77.98-1.16 2.2-.1 3.24.14 6.13 1.44 12.12 3.47 18.41 4.33 2.58.35 3.76 2.1 4.28 4.77 5.94 30.33-1.07 56.55-24.59 77.47-14.86 13.2-32.18 20.13-52.29 19.94z" fill="#c45979"/><path d="m904.33 308.58c.37 23.48-6.96 41.94-21.79 56.7-15.06 14.97-33.39 23.85-55.26 23.64-33.95-.33-58.31-16.18-72.91-46.43-7.5-15.54-8.17-32.35-5.16-49.31.73-4.1 3.19-5.81 7.01-6.57 5.2-1.04 10.35-2.36 15.51-3.6 1.28-.31 2.73-1.15 3.74.01 1.1 1.26-.22 2.5-.8 3.59-7.46 13.94-8.47 28.36-3.88 43.43 4.62 15.19 14.37 26.19 28.18 33.12 18.08 9.07 36.74 9.26 54.19-1.5 28.91-17.83 36.35-52.3 19.44-79.14-8.9-14.12-21.71-21.94-37.61-25.49-1.06-.24-2.59.23-2.9-1.31-.27-1.35 1.01-1.99 1.91-2.66 5.87-4.34 11.85-8.54 17.61-13.03 2.47-1.93 4.93-2.14 7.41-.83 19.82 10.46 34.77 25.29 41.79 47.12 2.56 7.99 4.18 16.1 3.52 22.26z" fill="#c45979"/><path d="m502.63 418.24c-5.82.82-7.09 2.48-7.37 9.01-.5 11.31.89 22.56.92 33.85.02 5.99.02 11.98-.01 17.96 0 .96.33 2.12-.61 2.77-1.1.75-1.77-.33-2.53-.9-19.86-14.71-35.64-32.96-48.32-54.16-8.05-13.46-14.5-27.6-19.38-42.38-5.2-15.71-9.06-31.81-11.13-48.31-1.59-12.71-2.36-25.45-1.85-38.23.45-11.41 2.04-22.72 4.1-33.96.39-2.12.76-3.38 3.8-1.37 5.14 3.4 5.57 7.77 4.94 12.94-2.11 17.15-.81 34.04 3.5 50.77 5.61 21.78 15.93 41.13 31.02 57.63 10.02 10.96 21.49 20.5 34.75 27.61 3.34 1.79 6.51 3.88 10.32 4.6-.73.74-1.44 1.45-2.15 2.17z" fill="#545454"/><path d="m887.44 415.95c7.01-1.87 12.95-5.97 18.86-9.81 13.46-8.73 24.82-19.91 34.44-32.68 13.27-17.63 21.22-37.69 24.98-59.33 2.42-13.93 2.6-28.02.96-42.09-.47-4.03 1.48-6.54 4.2-8.98 2.88-2.59 4.3-1.01 4.74 1.75 1.23 7.84 2.19 15.73 3.21 23.61 2.62 20.3.38 40.46-3.23 60.32-4.86 26.7-13.55 52.22-27.26 75.91-8.52 14.72-18.5 28.24-30.62 40.11-5.19 5.08-11 9.54-16.62 14.18-1.03.85-1.89 2.96-3.59 1.84-1.34-.88-.57-2.78-.62-4.23-.59-16.62.96-33.2.91-49.81-.02-6.02-2.3-8.63-7.94-9.2-.81-.53-1.61-1.06-2.42-1.59z" fill="#545454"/><path d="m680.1 381.93c0-11.96.82-18.77.98-30.72.06-4.05 2.45-7.53 3.77-11.27 1.93-5.48 4.15-10.87 5.13-16.64.54-3.16 2.29-5.46 5.43-5.63 3.11-.17 5.41 1.97 6.17 4.91 3.98 15.28 10.58 29.71 10.06 46.33-.45 14.37 1.74 28.84-1.35 43.16-1.99 9.24-6.52 17.31-11.85 25.04-2.59 3.76-4.11 2.05-5.71-.44-8.34-12.97-13.89-26.8-13.03-42.6.13-2.32.02-4.66.02-6.99-.01-.72.37-4.44.38-5.15z" fill="#c87c3b"/><path d="m560.19 185.84c41.87 1.89 73.67 20.67 94.79 57.09.62 1.07 1.97 2.33.88 3.55-.99 1.12-2.52.17-3.77-.11-40.14-8.96-74.3-28.95-104.28-56.6-.9-.83-2.56-1.55-1.78-3.14.59-1.19 2.12-.71 3.19-.75 3.66-.12 7.32-.04 10.97-.04z" fill="#fff"/><path d="m846.85 186.29c-31.51 31.64-70.63 46.55-111.43 60.13 16.34-35.2 59.03-65.94 111.43-60.13z" fill="#fff"/><path d="m494.34 193.47c.08 2.16-1.42 3.23-2.97 4.24-11.84 7.63-21.87 17.25-29.88 28.72-4.33 6.19-9.1 12.24-12.09 19.27-1.74 4.1-3.45 4.37-6.73 1.41-3.92-3.53-8.25-6.64-12.51-9.77-1.76-1.29-2.32-2.55-1.42-4.61 6.2-14.18 14.28-27.21 24.15-39.11 6.57-7.92 13.65-15.3 22.06-21.38 3.38-2.44 5.07-2.87 7.46 1.42 3.19 5.73 6.06 11.8 10.76 16.61.87.9 1.12 2 1.17 3.2z" fill="#545454"/><path d="m963.66 234.37c-.26 1.8-1.45 2.47-2.51 3.26-4.5 3.38-9.37 6.27-13.22 10.46-2.01 2.18-3.12 1.87-4.64-.92-8.43-15.52-18.78-29.59-32.04-41.42-3.73-3.33-7.86-6.07-11.93-8.88-2.46-1.69-3.03-3.33-1.19-5.63 4.89-6.1 8.72-12.88 12.68-19.57 1.41-2.38 2.58-1.59 4.36-.44 8.75 5.63 15.76 13.21 22.41 20.94 10.26 11.94 18.96 25.04 24.96 39.75.37.91.82 1.79 1.12 2.45z" fill="#545454"/><path d="m517.52 410.44c-8.51 1.92-15.05-3.09-21.62-6.83-20.63-11.72-36.2-28.43-47.81-49.16-14.33-25.6-18.53-52.9-15.12-81.68 1.06-8.9-8.56-19.71-17.99-20.05-1.74-.06-3.93.87-5.04-1.1-1.23-2.2 1.38-3.05 2.17-4.54 2.15-4.09 4.56-8.13 10.28-6.13 2.49.87 4.41 2.88 6.57 4.33 4.79 3.23 9.04 7.25 13.6 10.84 1.56 1.23 2.07 2.41 1.09 4.24-6.7 12.48-6.12 26.01-4.92 39.37 1.34 14.93 5.45 29.28 11.8 42.92 7.26 15.6 17.75 28.79 30.02 40.7 8.51 8.26 18.82 13.83 28.87 19.82 3.19 1.9 7.72 1.2 9.86 5.1-.58.72-1.17 1.44-1.76 2.17z" fill="#466fc9"/><path d="m872.71 407.8c4.72-3.72 10.53-5.37 15.73-8.2 18.03-9.83 32.03-23.82 43.55-40.56 11.89-17.26 17.95-36.63 20.74-57.17 1.94-14.3 2.15-28.43-4.61-41.79-1.02-2.01.12-3.53 1.67-4.72 6.05-4.64 12.05-9.35 18.23-13.81 3.09-2.23 7.46-1.09 9.57 2.08.18.27.27.61.38.92.89 2.49 4.39 4.35 3.56 6.78-1.05 3.09-4.71.84-7.14 1.54-6.96 1.99-17.04 11.26-15.46 21.36 3.06 19.61.77 39.07-5.45 57.97-5.02 15.25-12.5 29.19-22.71 41.62-12.94 15.76-28.71 27.84-47.26 36.27-2.68 1.22-5.6.16-8.38.5-.24-1.41-1.61-1.86-2.42-2.79z" fill="#466fc9"/><path d="m815.48 418.79c-10.44-.23-20.26-3.29-29.68-7.36-10.76-4.64-21.17-10.02-30.35-17.51-17.34-14.14-31.3-30.79-39.69-51.81-2.15-5.4-4.2-10.8-5.81-16.38-.68-2.38-3.32-5.74.22-6.65 2.38-.61 6.75.53 7.72 4.6 1.09 4.55 3.18 8.74 4.58 13.15 4.62 14.52 12.91 27.26 22.7 38.17 13.93 15.52 30.96 27.63 51.58 33.74 8.13 2.41 16.25 4.58 24.67 5.58 1.36.16 2.77.2 2.7 2.11-.06 1.69-1.2 2.3-2.66 2.35-1.99.07-3.99.01-5.98.01z" fill="#466fc9"/><path d="m577.14 418.99c-2.69-.12-4.68-.17-6.67-.31-1.56-.11-2.47-1-2.4-2.59.07-1.57 1.33-1.66 2.52-1.78 13-1.26 25.64-4.63 37.17-10.32 12.5-6.17 24.26-13.93 34.13-24.2 14.98-15.58 25.37-33.74 31.29-54.45 1.14-4 4.24-5.66 7.38-6.48 3.71-.98 3.02 2.75 2.32 4.24-1.72 3.65-2.27 7.6-3.59 11.32-7.64 21.65-20.25 39.79-37.69 54.83-16.75 14.44-35.73 24.06-57.26 28.78-2.57.57-5.24.71-7.2.96z" fill="#466fc9"/><path d="m887.44 415.95c.8.53 1.6 1.05 2.41 1.58-2.7 3.1-6.6 4.29-10.02 6.19-24.59 13.68-49.24 27.27-73.88 40.89-.01-.72-.02-1.43-.02-2.15 23.92-14.86 47.88-29.64 71.69-44.67 3.27-2.05 5.74-5.36 9.82-1.84z" fill="#fff"/><path d="m502.63 418.24c.71-.72 1.42-1.44 2.13-2.16 1.31-.72 2.6-1.46 3.93-2.14.85-.43 1.79-1.15 2.68-.18 8.38 9.04 19.83 13.6 29.83 20.26 13.86 9.22 28.11 17.84 42.18 26.74.36.23.56.74.85 1.15-1.63 1.28-2.93.11-4.04-.56-21.04-12.68-42.91-23.88-64.26-36-4.37-2.48-8.86-4.74-13.3-7.11z" fill="#fff"/><path d="m872.71 407.8c.81.93 2.17 1.37 2.41 2.79-25.65 15.95-51.29 31.92-76.95 47.85-2.95 1.83-5.99 3.51-9 5.25-.01-.01.1.11.1.11.56-2.54 2.9-3.28 4.68-4.51 23.15-15.96 46.34-31.88 69.52-47.8.68-.47 1.89-.77 2.02-1.34 1.12-4.96 4.44-2.77 7.22-2.35z" fill="#fff"/><path d="m517.52 410.44c.59-.72 1.18-1.45 1.77-2.17 3.52-.72 6.08.02 9.33 2.45 14.33 10.69 28.99 20.98 43.99 30.71 6.99 4.54 13.05 10.44 20.68 14 .22.99-.47 1.35-1.18 1.7-22.46-14.11-44.91-28.23-67.37-42.33-2.38-1.5-4.81-2.91-7.22-4.36z" fill="#fff"/><path d="m676.9 308.55c.23-3.42 1.73-5.44 5.35-6.68 9.47-3.23 18.68-3.13 27.96.46 2.55.98 5.54 5.81 4.76 8.15-.54 1.6-1.68 1.33-2.8.79-8.25-4.02-16.81-4.41-25.66-2.51-2.27.49-4.6.59-6.49 2.13-.84.68-1.73 1.09-2.7.43-1.02-.69-.69-1.74-.42-2.77z" fill="#466fc9"/><g fill="#545454"><path d="m567 428.31c.7-.44 1.58-.74 1.31-1.86 6.85 2.8 12 8.05 17.85 12.29 6.3 4.56 12.53 9.22 18.82 13.79 1.19.86 2.46 1.57 3.03 3.84-5.95-2.35-10.25-6.22-14.97-9.31-8.17-5.35-16.12-11.03-24.17-16.57-.81-.57-1.71-1.04-1.87-2.18z"/><path d="m695.75 289.66c5.41.16 10.55-.02 15.6 1.11 1.22.27 2.48.65 2.22 2.09-.25 1.39-1.4 1.41-2.75 1.16-4.99-.9-9.71-2.87-15.03-2.51-4.64.32-9.25.05-13.5 2.41-1.34.74-2.82 1.04-4.18-.09-.57-.47-.75-1.12-.4-1.76.77-1.41 2.22-1.11 3.49-1.39 4.91-1.1 9.89-.79 14.55-1.02z"/><path d="m592.11 457.12c.7-.35 1.39-.71 1.18-1.7 6.69 2.61 12.07 7.35 17.95 11.24 4.49 2.98 9.43 5.45 12.94 9.77l-.11.11c-3.38-.09-5.79-2.4-8.38-4.01-7.99-4.93-15.74-10.24-23.58-15.41z"/><path d="m805.93 462.47c.01.72.02 1.43.02 2.15-6.81 4.91-13.87 9.36-21.98 11.84l.03.04c6.66-5.7 13.85-10.55 21.93-14.03z"/><path d="m788.86 464.28c-6.11 5.76-13.64 9.2-20.95 13.01 6.12-5.06 11.82-10.69 19.39-13.62.52.2 1.04.4 1.56.61z"/><path d="m800.61 444.03c4.98-5.05 10.55-9.3 16.85-12.57.53.5 1.06 1 1.59 1.5-5.44 4.68-11.06 9.08-17.74 11.91-.24-.28-.47-.56-.7-.84z"/><path d="m588.25 463.44c5.28 2.38 10.29 5.2 14.54 9.34-5.6-1.14-10.6-3.42-14.71-7.51-.56-.67-.06-1.23.17-1.83z"/><path d="m801.3 444.87c-3.97 4.73-9.56 7.06-14.82 9.93 4.74-3.57 8.12-8.89 14.12-10.77.24.28.47.56.7.84z"/></g><path d="m588.25 463.44c-.23.59-.73 1.16-.17 1.83-1-.71-2.01-1.42-3.26-2.3 1.58-1.02 2.4.41 3.43.47z" fill="#fff"/><path d="m605.84 474.11c-.16.39-.27.64-.37.89-.35-.16-.72-.29-1.04-.5-.05-.03.19-.67.28-.67.37.02.74.17 1.13.28z" fill="#545454"/><path d="m783.97 476.46c-.33.25-.66.5-.99.76-.28-1.13.68-.49 1.03-.72 0 0-.04-.04-.04-.04z" fill="#545454"/><path d="m896.88 564.4c-.23-.37-.47-.73-.68-1.11-.01-.01.24-.16.37-.25.11.44.23.89.34 1.33-0 0-.03.03-.03.03z" fill="#545454"/><path d="m765 479.19c-.11-.08-.22-.17-.33-.25.13-.06.26-.18.38-.17s.22.15.33.24c-.13.06-.26.12-.38.18z" fill="#545454"/><path d="m788.86 464.28c-.52-.2-1.04-.41-1.57-.61.66.04 1.31.09 1.97.14.01.01-.1-.12-.09-.1-.23.11-.34.3-.31.57z" fill="#fff"/><path d="m608.04 475.71c.13.05.25.11.38.16-.17.12-.35.25-.52.37-.07-.11-.14-.21-.21-.32.12-.06.23-.13.35-.21z" fill="#545454"/><path d="m624.17 476.44c.15.18.3.36.44.54-.18-.15-.36-.29-.55-.44-0 0 .11-.1.11-.1z" fill="#545454"/><path d="m819.04 432.96c-.53-.5-1.06-1-1.59-1.5.45-.05.89-.09 1.34-.14.21.21.43.41.68.58-.14.36-.28.71-.43 1.06z" fill="#fff"/><path d="m356.18 249.58c-7.1-.87-14.63-3.44-22.27-5.56-27.68-7.72-54.54-17.74-81.18-28.47-29.86-12.02-58.87-25.79-87.53-40.37-20.97-10.67-41.33-22.42-61.48-34.49-21.02-12.6-41.22-26.53-60.83-41.26-2.3-1.72-4.59-4.18-2.24-7.13 2.23-2.8 4.84-1.39 7.36.41 14.26 10.19 28.63 20.2 43.26 29.87 30.09 19.89 61.72 36.92 93.84 53.17 36.46 18.44 73.98 34.38 112.5 47.99 19.56 6.91 39.42 12.76 59.5 17.89 3.03.77 4.21 2.6 3.9 5.35-.23 2.11-1.86 3.02-4.83 2.6z"/><path d="m343.97 310.73c-17.34-1.43-34.55-3.79-51.72-6.58-26.84-4.36-53.22-10.85-79.45-17.8-16.32-4.33-32.48-9.41-48.58-14.62-14.21-4.6-28.19-9.77-42.13-15.05-21.86-8.29-43.51-17.08-64.32-27.82-5.29-2.73-10.64-5.35-15.95-8.03-2.74-1.38-4.36-3.62-2.71-6.45 1.64-2.82 4.41-1.66 6.64-.49 14.83 7.76 29.94 14.91 45.25 21.67 16.88 7.45 34.1 14 51.44 20.25 34.81 12.54 70.26 23.03 106.28 31.44 24.65 5.75 49.54 10.44 74.7 13.49 8.37 1.01 16.75 1.95 25.15 2.76 2.66.26 4.74.95 4.54 3.97-.21 3.1-2.6 3.42-5.13 3.28-1.34-.08-2.68-.02-4.01-.02z"/><path d="m234.98 368.66c-11.18.63-27.14-.59-43.05-1.35-28.77-1.37-57.53-3.57-85.96-8.62-6.35-1.13-12.74-2.06-19.11-3.08-.49-.08-1-.11-1.47-.25-2.83-.86-5.08-2.68-4.39-5.7.66-2.86 3.57-3.27 6.15-2.86 8.34 1.31 16.64 2.9 24.99 4.14 10.31 1.54 20.64 2.97 31.05 3.78 13.53 1.05 27.03 2.46 40.55 3.72.66.06 1.33.11 1.99.13 25.6 1 51.23 1.79 76.83.81 18.84-.72 37.7-1.47 56.47-4.34 11.3-1.73 22.6-3.23 33.7-6.01 3.49-.87 6.37.19 7.18 3.47.84 3.4-2.47 4.43-5.01 4.99-14.88 3.27-29.85 5.82-45.06 7.3-23.33 2.26-46.65 3.68-74.86 3.87z"/><path d="m454.35 511.78c-1.82 7.73-4.35 15.4-6.76 23.13-7.55 24.23-17.48 47.54-28.69 70.19-8.83 17.85-18.01 35.58-28.19 52.78-12.07 20.38-24.4 40.52-38.32 59.71-2.8 3.86-5.58 7.81-8.18 11.84-1.75 2.7-4.43 3.77-6.79 2.28-2.64-1.67-1.94-4.49-.09-6.94 11.02-14.53 20.65-30.03 30.92-45.08 4.01-5.87 7.51-12.1 11.03-18.29 15.09-26.5 29.53-53.31 41.89-81.25 5.75-12.99 11.27-26.07 16.19-39.35 3.61-9.73 6.76-19.71 8.88-29.93.56-2.69 2.04-4.7 5.05-4.31 2.87.36 2.76 2.87 3.06 5.22z"/><path d="m138.5 475.8c-3.35-.87-7.69 1.38-7.79-3.38-.08-3.95 3.62-4.65 6.9-4.91 16.38-1.26 32.47-4.43 48.56-7.45 31.79-5.96 63.04-14.14 93.83-23.97 27.13-8.66 53.83-18.54 79.19-31.67 3.06-1.59 5.9-3.62 9-5.13 2.26-1.1 4.95-1.9 6.5 1.12 1.6 3.13-.26 4.67-2.94 6.17-22.04 12.34-45.42 21.47-69.09 30.14-38.83 14.23-78.88 23.85-119.22 32.35-15.03 3.18-30.42 4.61-44.94 6.73z"/><path d="m421.17 474.82c-1.57 3.32-3.19 7.52-5.43 11.34-10.5 17.86-22.06 35-34.26 51.76-14.06 19.32-29.73 37.24-45.3 55.29-16.29 18.88-34.44 35.87-52.4 53.07-2.74 2.62-5.73 5-8.79 7.25-1.9 1.4-4.28 1.43-5.85-.45-1.63-1.95-.3-3.77 1.24-5.2 8.17-7.55 16.51-14.92 24.52-22.63 19.52-18.77 37.95-38.6 55.14-59.5 11.44-13.92 22.46-28.19 32.93-42.91 11.37-15.98 21.63-32.54 30.63-49.92 1.04-2.02 2.09-4.04 4.83-3.16 1.92.61 2.9 2.13 2.74 5.06z"/><path d="m197.91 556.35c-2.34.09-3.57-.36-4.16-1.76-.48-1.13-.38-2.3.43-3.3.95-1.16 1.99-2.22 3.48-2.73 24.54-8.4 47.85-19.5 71.05-31.02 27.5-13.66 53.89-29.13 79.43-46.05 15.04-9.97 29.84-20.39 42.81-33.09.71-.69 1.53-1.27 2.36-1.83 1.59-1.08 3.15-2.89 5.06-.44 1.7 2.18.95 3.98-.8 5.69-3.33 3.24-6.36 6.85-9.99 9.69-10.29 8.04-20.38 16.3-31.22 23.66-22.92 15.58-46.79 29.55-71.15 42.68-14.58 7.86-29.58 14.93-44.73 21.66-11.81 5.24-23.67 10.36-35.83 14.74-2.49.88-5.05 1.57-6.74 2.1z"/><path d="m1035.15 250.02c-2.66.01-4.47-1.13-4.82-3.62-.38-2.69 1.12-4.07 3.87-4.74 24.36-5.89 48.19-13.51 71.72-22.07 24.95-9.08 49.33-19.52 73.42-30.65 33.03-15.27 65.19-32.17 96.49-50.76 23.52-13.97 45.98-29.5 68.17-45.44 2.4-1.72 4.94-3.18 6.89-.46 1.82 2.53.84 5.3-1.88 7.33-17.42 12.96-35.29 25.32-53.8 36.63-25.73 15.71-51.95 30.57-78.93 44.14-17.94 9.02-36.16 17.4-54.33 25.88-15.31 7.14-31.3 12.83-47.1 18.9-20.45 7.86-41.27 14.6-62.38 20.48-5.74 1.58-11.54 2.92-17.32 4.38z"/><path d="m1047.85 310.72c-1.5 0-3-.08-4.49.02-2.3.14-4.1-.61-4.35-3.03-.29-2.72 1.61-3.78 4-4.08 5.25-.66 10.5-1.34 15.77-1.9 16.95-1.79 33.78-4.26 50.51-7.59 14.61-2.91 29.24-5.65 43.69-9.3 28.91-7.31 57.48-15.64 85.67-25.43 19.59-6.81 39.09-13.88 58.13-22.02 16.32-6.98 32.47-14.43 48.18-22.76 2.67-1.41 6.11-3.92 8.18.12 2.01 3.95-1.99 5.55-4.63 6.91-15.45 7.97-31.12 15.45-47.09 22.36-16.59 7.18-33.49 13.52-50.42 19.76-19.1 7.04-38.58 13.07-58.16 18.69-20.53 5.9-41.23 11.17-62.11 15.64-21.35 4.57-42.82 8.51-64.59 10.67-6.11.61-12.12 1.97-18.29 1.94z"/><path d="m1151.21 368.46c-16.86 1.13-35.74-1.01-54.6-2.19-17.95-1.13-35.97-2.94-53.54-7.4-2.52-.64-5.24.05-7.64-1.75-2.11-1.57-4.45-2.85-3.2-5.86 1.18-2.87 3.74-2.86 6.37-2.16 7.69 2.04 15.54 3.28 23.37 4.65 10.94 1.92 22 2.76 33.03 3.8 27.67 2.6 55.44 2.74 83.16 1.84 22.32-.73 44.65-1.75 66.92-4.37 16.93-1.99 33.83-4.1 50.71-6.44 2.95-.41 5.81-1.34 8.75-1.82 2.67-.44 5.12.09 5.88 3.17.77 3.14-1.03 4.52-3.84 5.21-10.46 2.56-21.14 4.03-31.78 5.31-23.01 2.78-46 5.63-69.24 6.38-17.41.55-34.8 1.84-54.35 1.63z"/><path d="m937.78 512.71c.25-2.85-.76-5.93 3.1-6.19 3.51-.23 4.28 2.49 4.94 5.12 4.77 18.95 10.92 37.46 18.8 55.33 11.81 26.79 24.4 53.21 38.91 78.69 8.49 14.9 17.15 29.71 26.48 44.07 7 10.78 14.11 21.56 22.22 31.6.83 1.03 1.57 2.14 2.31 3.24 1.63 2.44 2.33 5.2-.34 7.04-2.45 1.7-4.78.16-6.43-2-2.11-2.76-4.2-5.56-6.2-8.38-18.68-26.37-35.93-53.67-51.19-82.16-8.11-15.15-15.74-30.55-23.02-46.14-11.56-24.74-21.68-49.96-28.86-76.33-.37-1.43-.54-2.91-.72-3.89z"/><path d="m1254.6 475.62c-14.26-1.32-27.98-3.46-41.66-5.92-23.16-4.16-46.11-9.35-68.76-15.69-21.19-5.93-42.29-12.19-62.91-20.05-20.58-7.85-41.04-15.87-60.22-26.82-.72-.41-1.58-.68-2.15-1.25-1.5-1.47-3.69-2.96-2.29-5.4 1.37-2.4 3.82-2.56 6.15-1.38 6.2 3.15 12.24 6.63 18.52 9.61 23.56 11.15 47.96 20.11 72.81 27.96 17.55 5.54 35.24 10.55 53.09 14.95 19.11 4.71 38.33 9.01 57.83 11.87 9.98 1.46 20 2.71 29.95 4.34 2.71.44 6.79.43 6.42 4.7-.4 4.84-4.71 2.1-6.78 3.08z"/><path d="m1119.35 654.34c-3.67-.18-5.79-3.18-8.07-5.3-15.06-13.96-30.15-27.88-44.11-42.98-14.84-16.05-29.23-32.47-42.82-49.62-14.82-18.7-28.77-37.95-40.99-58.47-3.97-6.67-7.56-13.52-11.35-20.28-.55-.99-.97-2.14-1.1-3.26-.21-1.8-.43-3.84 1.81-4.66 2.07-.76 3.67.29 4.61 2 3.04 5.48 5.75 11.14 8.91 16.54 14.32 24.49 31.04 47.26 48.94 69.25 14.98 18.41 30.49 36.32 47.23 53.12 8.29 8.32 16.22 17 25.35 24.5 4.45 3.66 8.27 8.08 12.79 11.75 1.42 1.15 3.43 2.92 2.49 5.49-.59 1.67-1.99 2.1-3.69 1.92z"/><path d="m1192.9 556.33c-5.16-1.94-11.27-4.07-17.25-6.52-35.31-14.48-69.41-31.31-102.32-50.75-17.46-10.31-34.25-21.56-50.84-33.08-10.15-7.05-19.64-15.24-28.57-23.92-1.82-1.77-3.01-3.63-.94-6.03 2.05-2.37 3.87-1.04 5.57.41 4.28 3.66 8.51 7.39 12.76 11.1 11.5 10.03 24.26 18.29 36.83 26.88 13.14 8.97 26.87 16.9 40.53 24.95 15.87 9.35 32.37 17.56 48.98 25.53 18.24 8.76 36.81 16.75 55.85 23.64 2.29.83 5.18 1.62 4.85 4.8-.23 2.19-2.18 3.17-5.45 2.99z"/><path d="m764.81 639.95c2.76 1.16 6.27-.66 6.57 2.68.26 2.98-2.88 3.58-5.18 4.49-2.51 1-4.98.97-7.11-.67-3.05-2.34-4.58-.96-6.11 1.83-2.88 5.24-5.76 10.48-11.96 12.76-5.76 2.12-7.83.98-7.82-5.09.02-10.81.2-21.62.3-32.43.07-7.18 2.6-10.85 8.17-11.83 5.12-.9 10.28 2.66 12.35 8.64.48 1.4.66 2.9.95 4.37 1.91 9.86.41 4.33 4.49 1.92 3.9-2.3 5.44-6.5 9.35-8.41 2.22-1.09 1.53-3.57 1.07-5.42-1.13-4.55-.14-8.98.71-13.33 1.08-5.52 6.23-8.26 9.81-5.68 1.75 1.26 2.8 2.91 2.24 5.14-.62 2.48-2.41 2.37-4.33 1.7-2.33-.82-2.56.79-2.59 2.36-.06 3.65.02 7.31.02 10.97 0 2.32 1.56 2.89 3.42 3.58 2.23.83 2.83 3.18.66 4.06-4.16 1.69-2.87 4.68-2.58 7.45.26 2.46 1.17 4.87 1.32 7.33.09 1.5-.09 3.59-2.3 3.84-2.22.25-2.71-1.4-2.93-3.2-.39-3.12-.86-6.24-1.26-9.36-.17-1.34-.24-2.76-1.79-3.23-.52-.16-3.48-1.33-3.76-.95-.88 1.2 2.3 3.49 2.72 4.48 2.15 5.1-1.16 8.4-4.43 12zm-14.39-5.17c-.34-4.91-.25-9.96-2.73-14.45-1.03-1.86-2.5-3.7-5.14-3.05-2.32.57-2.85 2.35-3.1 4.52-1.14 9.93-.67 19.88-.73 29.83-.01.95-.09 2.09 1 2.61 1.37.65 2.13-.4 2.91-1.24 4.81-5.12 8.29-10.8 7.79-18.22z"/><path d="m843.81 579.52c-1.18 3.63-.05 16.97-.41 19.75-.25 1.94-.49 4.46-3.1 4.37-2.43-.08-3.04-2.24-2.94-4.43.19-4.14-.18-8.3.52-12.45.28-1.62 1.56-4.64-1.72-4.43-2.16.14-5.76-.18-5.6 4.03.21 5.65.22 11.31.44 16.96.05 1.32.34 2.61-.1 3.93-.38 1.13-.68 2.4-2.17 2.31-1.44-.09-2.54-.83-2.6-2.47-.24-6.29-.65-12.58-.6-18.86.02-2.75.77-5.04-2.86-6.33-2.57-.92-2.36-3.45.24-4.18 2.47-.69 3.19-1.82 3.29-4.1.07-1.49.51-3.17 2.47-3.16 1.79.01 2.34 1.32 2.73 2.97.96 4.11 5.14 5.5 9.25 5.87 4.28.38 5.23-1.71 6.56-4.56 1.74-3.73 4.92-4.44 8.76-4.11 3.8.32 4.38 3.17 5.08 5.85 1.51 5.82-.34 11.17-2.8 16.33-1.33 2.79-3.7 4.38-6.81 4.03-2.74-.31-5.12-1.46-5.69-4.68-.1-.55-1.8-11.2-1.94-12.64zm12.01 2.7c.36-3.02 0-4.41-1.84-4.77-1.86-.36-2.69.85-3.1 2.43-.67 2.59-.54 5.22-.19 7.84.12.92-.05 2.18 1.22 2.4 1.48.25 1.99-1.11 2.32-2.11.78-2.33 1.31-4.74 1.59-5.79z"/><path d="m770.83 549.13c-.63.1-2.28.66-3.9.58-3.07-.16-6.76.32-8.27-3.18-1.47-3.41.12-6.59 2.56-9.03 1.97-1.97 4.33-3.58 6.63-5.19 3.12-2.18 6.44-4.08 9.5-6.34 2.19-1.62 4.11-1.59 5.56.54 1.64 2.41-.33 3.75-2.19 4.54-5.11 2.17-9.47 5.41-13.64 8.98-.78.67-1.67 1.29-1.4 2.41.36 1.51 1.73 1.29 2.86 1.3.83.01 1.71.05 2.47-.2 4.25-1.37 8.04-.64 10.71 2.97 3.13 4.24 4.14 9.12 2.02 14.11-3.59 8.46-10.78 13.19-18.62 17.11-1.91.96-3.91 1.78-5.94 2.45-1.97.66-4.48 1.99-5.62-.84-1.11-2.76 1.46-3.6 3.4-4.57 3.71-1.84 7.48-3.59 11.09-5.61 4.44-2.49 8.06-5.92 9.88-10.8 2.14-5.75-.37-9.45-7.1-9.23z"/><path d="m874.27 636.14c-.2-1.81-.48-3.62-.57-5.43-.09-1.67.59-2.96 2.45-3.12 1.67-.15 3.27.47 3.32 2.23.41 13.66 4.2 27.29.41 41-1.06 3.85-3.27 7.12-7.3 7-4.41-.13-7.37-3.46-9.12-7.45-.67-1.52-.88-3.42 1.01-4.38 1.68-.85 2.85.31 3.67 1.65.99 1.62 2 3.36 4.21 2.64 2.18-.71 2.79-2.67 2.84-4.8.05-1.83-.02-3.66.16-5.48.35-3.48-1.26-4.64-4.41-3.76s-5.02-.67-6.73-2.94c-3.15-4.2-3.78-9.11-3.97-14.12-.09-2.2.77-4.27 3.15-4.3 2.57-.03 2.38 2.31 2.26 4.13-.21 3.28.74 6.31 2.32 9.04 1.26 2.17 2.94 2.59 4.36-.23 1.88-3.73 2.04-7.66 1.94-11.68z"/><path d="m772.22 695.07c0-2.33.03-4.65-.01-6.98-.03-1.58.76-2.64 2.19-2.91 1.9-.36 2.93 1.2 2.99 2.6.26 6.3 1.56 12.55 1.08 18.88-.11 1.47-1.2 3.11-2.3 2.86-7.48-1.66-10.02 5.89-15.42 8.06-2.22.89-3.94 2.94-6 4.3-3.02 1.98-5.1 1-5.5-2.56-.17-1.48-.18-3-.03-4.48 1.05-10.27 1.12-20.53.32-30.82-.1-1.32-.06-2.67.05-3.99.16-1.92.59-3.72 3.13-3.6 2.26.1 2.93 1.93 2.68 3.49-1.54 9.44 1.55 18.88-.18 28.29-.26 1.42-.95 3.08.64 4.07 1.38.86 2.51-.4 3.6-1.05 3.74-2.26 6.57-6.16 11.69-5.87 1.38.08 1.33-1.69 1.36-2.82.06-2.49.02-4.99.02-7.48-.11.01-.21.01-.31.01z"/><path d="m787.76 665.73c0 1.5.08 3-.02 4.49-.22 3.23.63 5.12 4.46 4.47 3.39-.58 5.61 1.3 7.18 4.17 6.14 11.2 1.8 20.78-10.7 23.69-2.49.58-3.99-.21-4.29-2.66-1.58-12.87-2.34-25.79-1.88-38.75.07-1.93.55-4.4 3.21-4.22 2.59.18 2.03 2.56 2.08 4.32.04 1.49.01 2.99.01 4.49-.01-0-.03-0-.05-0zm1.13 23.06c0 .32-.05 1.16.01 1.98.15 1.93-.32 4.69 2.06 5.01 2.45.34 4.03-1.92 5-4.15.33-.75.56-1.58.65-2.4.35-3.16-.97-5.83-2.7-8.31-.66-.95-1.76-.94-2.66-.28-2.64 1.94-2.77 4.73-2.36 8.15z"/><path d="m795.28 540.05c1.9-2.44 3.31-4.18 4.64-5.98.93-1.26 2.06-1.73 3.43-.93 1.36.8 1.46 2.15.99 3.51-.27.78-.58 1.61-1.1 2.22-4.01 4.59-5.86 9.16-.58 14.19 1.24 1.18.94 2.74-.41 3.94-1.68 1.5-2.63 0-3.81-.83-1.82-1.29-2.61-5.14-4.73-4.24-2.38 1.01-.69 4.49-.99 6.86-.27 2.15-.1 4.84-3.05 4.8-2.67-.04-2.59-2.66-2.65-4.6-.33-11.5 1.69-22.75 3.63-34.01.42-2.45.97-4.88 1.34-7.34.28-1.88.95-3.35 3.14-2.84 2.05.47 2.21 2.09 1.92 3.93-.72 4.58-1.3 9.18-2.02 13.76-.33 2.12-.84 4.22.25 7.56z"/><path d="m819.71 667.54c-.17-8.39 3.2-12.43 11.1-14.27 3.19-.74 4.51.62 5.13 3.07 1.32 5.14 2.41 10.35 3.47 15.55.45 2.19-.02 4.02-2.81 4.24-.64.05-1.31.29-1.86.61-8.44 4.93-14.82 1.03-15.03-9.2zm5.94-1.83c0 1.95-.1 2.79.02 3.6.28 1.83.78 4.04 2.61 4.45 1.95.43 3.05-1.78 4.01-3.19 1.46-2.14-.32-4.44-.32-6.7-.01-2.09-1.48-3.43-3.48-3.53-2.24-.11-2.32 1.99-2.68 3.53-.24.95-.17 1.97-.16 1.84z"/><path d="m793.46 613.78c-.03-5.39 6.46-15.41 10.33-16.75 2.43-.84 4.5-.22 5.97 2.12 3.57 5.64 3.15 12.04 3.46 18.26.08 1.52-.63 3.56-2.77 3.54-2.28-.02-2.24-2.03-2.45-3.67-.44-3.44-.79-6.89-1.37-10.3-.17-1.03-.28-2.53-1.78-2.67-1.38-.13-2.04 1.12-2.51 2.1-1.84 3.85-4.11 7.55-2.98 12.23.5 2.05.24 4.29.21 6.45-.02 1.68-.8 2.91-2.66 2.94-1.92.03-2.53-1.26-2.65-2.92-.3-4.14-.59-8.27-.8-11.33z"/><path d="m882.86 569.34c-.41 3.13-.79 6.26-1.25 9.37-.24 1.61-1.09 3.03-2.85 2.86-1.62-.16-2.64-1.48-2.52-3.19.23-3.3.71-6.59.91-9.9.1-1.61.26-3.66-1.86-4.1-2.07-.43-2.81 1.47-3.45 2.96-1.24 2.91-2.26 5.87-2.1 9.15.13 2.65.01 5.33-.16 7.98-.1 1.61-.95 3.05-2.7 3.02-1.6-.03-2.19-1.67-2.24-2.91-.26-6.43-.47-12.86-.37-19.29.04-2.26 9.3-8.12 11.74-7.64 4.7.91 6.47 4.21 6.63 8.67.04 1 .01 2 .01 2.99z"/><path d="m833.46 502.67c-.99 11.88-1.96 23.77-2.99 35.65-.2 2.29-1.05 4.69-3.75 4.27-2.32-.36-2.51-2.77-2.33-4.87 1.01-12.22 2.01-24.44 3.04-36.65.1-1.15.42-2.28.66-3.41.35-1.61 1.16-2.84 3-2.68 1.9.16 2.32 1.72 2.47 3.23.15 1.48.03 2.98.03 4.48-.04-.02-.08-.02-.13-.02z"/><path d="m850.65 491.76c-1.21 12.06-2.48 24.73-3.74 37.39-.2 2.05-.59 4.5-3.01 4.39-2.82-.13-2.86-2.76-2.66-4.98 1.13-12.52 2.29-25.04 3.45-37.56.02-.16.07-.33.12-.48.68-2.07.33-5.46 3.48-5.09 2.95.35 2.47 3.41 2.36 6.33z"/><path d="m853 636.7c1.78-.17 2.92.66 3.44 2.26.52 1.58-.47 2.4-1.74 3.1-6.55 3.59-7.57 9.64-7.42 16.34.06 2.54 2.28 6.54-1.36 7.32-4.64 1-3.26-3.85-4.03-6.33-2.29-7.29-1.11-13.75 4.85-19.05 1.89-1.67 3.68-3.28 6.26-3.64z"/><path d="m802.4 671.52c-.06-4.13 8.16-10.05 12.05-8.72 1.27.43 1.92 1.37 2.08 2.55.23 1.62-.98 2.24-2.25 2.87-5.06 2.52-6.45 5.48-5.43 11.07.57 3.09 1.22 6.19 1.52 9.31.14 1.43-.29 3.11-2.28 3.3-1.9.18-2.48-1.09-2.95-2.69-1.68-5.78-1.68-11.81-2.74-17.69z"/><path d="m809.31 543.31c.37-4.61.63-9.23 1.16-13.82.24-2.07.61-4.77 3.59-4.32 2.44.37 2.8 2.74 2.4 4.76-1.09 5.4-.74 10.87-1.07 16.3-.15 2.47-.06 5.67-3.31 5.73-3.81.06-2.63-3.37-2.76-5.67-.06-.99-.01-1.98-.01-2.98z"/><path d="m815.18 596.25c0-1.16-.03-2.32.01-3.48.04-1.59 1.03-2.41 2.47-2.65 1.39-.23 2.31.73 2.6 1.85 1.88 7.08 2.04 14.35 2.03 21.62 0 1.06-.73 2.22-2.21 2.3-1.74.09-2.47-1.21-2.67-2.45-.93-5.7-1.67-11.43-2.47-17.15.07-.01.16-.02.24-.04z"/><path d="m789.87 628.77c-.24 2 .49 4.39-2.27 4.47-2.5.07-2.69-2.01-2.69-3.92.01-5.31.03-10.62.08-15.93.02-1.62-.26-3.75 2.15-3.66 1.96.07 1.87 1.99 1.92 3.47.19 5.29-.41 10.62.81 15.57z"/><path d="m818.71 511.05c-.09 3.01-1.06 4.85-3.75 4.91-2.47.05-2.84-2.12-3.07-3.87-.32-2.38 1.04-3.91 3.43-3.86 1.93.04 3.64.85 3.39 2.82z"/><path d="m775.95 675.39c.25-1.97-1.47-2.78-3.39-2.82-2.39-.05-3.75 1.48-3.43 3.86.23 1.75.6 3.93 3.07 3.87 2.69-.06 3.66-1.9 3.75-4.91z" fill="#0fcc8c"/><path d="m775.95 675.39c-.09 3.01-1.06 4.85-3.75 4.91-2.47.05-2.84-2.12-3.07-3.87-.32-2.38 1.04-3.91 3.43-3.86 1.92.04 3.64.85 3.39 2.82z"/><path d="m820.37 582.47c-.06 2-.71 3.22-2.52 3.26-1.66.03-1.91-1.41-2.06-2.57-.21-1.58.7-2.6 2.3-2.56 1.29.02 2.44.56 2.28 1.87z"/><path d="m843.52 571.59c-.06 2-.71 3.22-2.52 3.26-1.66.03-1.91-1.41-2.06-2.57-.21-1.58.7-2.6 2.3-2.56 1.29.02 2.44.56 2.28 1.87z"/><path d="m789.67 603.21c-.03 1.29-.57 2.61-2.53 2.6-1.87-.01-2.56-1.4-2.8-2.95-.27-1.78.55-3.01 2.46-2.89 1.64.11 2.82.99 2.87 3.24z"/><path d="m750.42 634.78c.49 7.42-2.98 13.1-7.78 18.22-.79.84-1.54 1.89-2.91 1.24-1.09-.52-1.01-1.66-1-2.61.06-9.95-.41-19.9.73-29.83.25-2.17.78-3.95 3.1-4.52 2.65-.65 4.12 1.2 5.14 3.05 2.48 4.49 2.38 9.54 2.72 14.45z" fill="#0fcc8c"/><path d="m855.82 582.22c-.28 1.05-.81 3.46-1.59 5.79-.33 1-.84 2.36-2.32 2.11-1.27-.21-1.1-1.47-1.22-2.4-.34-2.62-.47-5.24.19-7.84.41-1.58 1.24-2.79 3.1-2.43 1.83.36 2.19 1.75 1.84 4.77z" fill="#0fcc8c"/><path d="m788.89 688.79c-.42-3.43-.28-6.22 2.37-8.15.9-.66 2-.66 2.66.28 1.73 2.48 3.05 5.15 2.7 8.31-.09.82-.32 1.65-.65 2.4-.98 2.22-2.56 4.48-5 4.15-2.38-.33-1.91-3.09-2.06-5.01-.07-.82-.02-1.66-.02-1.98z" fill="#0fcc8c"/><path d="m825.65 665.71c-.01.13-.08-.89.15-1.84.37-1.54.44-3.64 2.68-3.53 2 .1 3.48 1.44 3.48 3.53.01 2.27 1.78 4.56.32 6.7-.96 1.41-2.06 3.62-4.01 3.19-1.83-.4-2.33-2.61-2.61-4.45-.11-.81-.01-1.65-.01-3.6z" fill="#0fcc8c"/><path d="m762.39 633.37c0 .01-.04-.06-.04-.14.01-.14-.05-.3.32-.47.34-.16.63-.18.7-.03.08.16.46.18.29.46-.11.18-.22.43-.55.55-.32.12-.48 0-.59-.11-.05-.05-.06-.12-.13-.26z" fill="#0fcc8c"/><circle cx="567" cy="313.75" fill="#333" r="47.71"/><circle cx="824.33" cy="313.75" fill="#333" r="47.71"/><path d="m502.63 146.53s61.95 112.95 192.94 112.95 194.27-114.28 194.27-114.28 2.78-4.95 3.55-6.44 2.36-3.41 3.66-3.03c1.3.39 13.02 5.34 14.29 6.28s3.63 4.13 1.32 10.29c-2.31 6.17-7.6 15.14-9.63 18.39-2.04 3.25-55.83 110.26-207.45 110.26s-209.19-115.04-211.83-119.28-8.17-13.82-4.46-16.54c3.72-2.72 9.17-6.03 11.81-7.84s5.24-3.23 11.53 9.24z" fill="#191919"/><path d="m557.37 301.65c-.03 8.11-6.64 14.86-14.42 14.73-7.67-.13-13.48-6.01-13.54-13.7-.07-8.05 6.96-15.5 14.54-15.4 7.58.09 13.45 6.39 13.42 14.37z" fill="#fff"/><path d="m574.38 336.2c.02 5.22-4.23 9.57-9.43 9.65-5.49.09-9.89-4.28-9.83-9.76.06-5.15 4.41-9.35 9.7-9.37 5.25-.01 9.54 4.24 9.56 9.48z" fill="#fff"/><path d="m780.8 302.15c-.26 7.57 5.5 13.92 12.95 14.28 7.84.37 14.73-6.4 15.05-14.79.28-7.37-5.78-14.07-13-14.38-7.71-.34-14.71 6.62-15 14.89z"/><path d="m815.96 345.83c5.3.1 9.48-3.92 9.68-9.3.19-5.19-4.02-9.71-9.17-9.85-5.57-.14-9.9 4.05-9.89 9.59 0 5.39 4 9.46 9.38 9.56z"/><path d="m780.8 302.15c.29-8.27 7.29-15.23 14.99-14.9 7.22.31 13.28 7.01 13 14.38-.32 8.39-7.21 15.17-15.05 14.79-7.44-.35-13.2-6.7-12.94-14.27z" fill="#fff"/><path d="m815.96 345.83c-5.38-.1-9.38-4.17-9.38-9.56-.01-5.53 4.32-9.73 9.89-9.59 5.15.13 9.36 4.65 9.17 9.85-.2 5.39-4.38 9.4-9.68 9.3z" fill="#fff"/></svg>